<svg xmlns="http://www.w3.org/2000/svg" xmlns:xlink="http://www.w3.org/1999/xlink" width="581" zoomAndPan="magnify" viewBox="0 0 435.75 149.999998" height="200" preserveAspectRatio="xMidYMid meet" version="1.0"><defs><g/></defs><g fill="#393939" fill-opacity="1"><g transform="translate(16.865193, 63.910315)"><g><path d="M 15.375 -57.453125 L 29.265625 -13.796875 L 29.796875 -13.796875 L 43.703125 -57.453125 L 57.171875 -57.453125 L 37.375 0 L 21.71875 0 L 1.875 -57.453125 Z M 15.375 -57.453125 "/></g></g></g><g fill="#393939" fill-opacity="1"><g transform="translate(72.552454, 63.910315)"><g><path d="M 24.40625 0.84375 C 19.988281 0.84375 16.179688 -0.0546875 12.984375 -1.859375 C 9.785156 -3.671875 7.328125 -6.234375 5.609375 -9.546875 C 3.890625 -12.867188 3.03125 -16.800781 3.03125 -21.34375 C 3.03125 -25.78125 3.890625 -29.671875 5.609375 -33.015625 C 7.328125 -36.367188 9.753906 -38.976562 12.890625 -40.84375 C 16.023438 -42.71875 19.707031 -43.65625 23.9375 -43.65625 C 27.726562 -43.65625 31.148438 -42.847656 34.203125 -41.234375 C 37.265625 -39.628906 39.691406 -37.203125 41.484375 -33.953125 C 43.285156 -30.710938 44.1875 -26.648438 44.1875 -21.765625 L 44.1875 -18.484375 L 14.84375 -18.484375 L 14.84375 -18.453125 C 14.84375 -15.242188 15.71875 -12.710938 17.46875 -10.859375 C 19.226562 -9.003906 21.609375 -8.078125 24.609375 -8.078125 C 26.609375 -8.078125 28.335938 -8.5 29.796875 -9.34375 C 31.253906 -10.1875 32.28125 -11.429688 32.875 -13.078125 L 43.9375 -12.34375 C 43.09375 -8.34375 40.957031 -5.144531 37.53125 -2.75 C 34.113281 -0.351562 29.738281 0.84375 24.40625 0.84375 Z M 14.84375 -25.890625 L 32.9375 -25.890625 C 32.914062 -28.453125 32.09375 -30.566406 30.46875 -32.234375 C 28.84375 -33.898438 26.726562 -34.734375 24.125 -34.734375 C 21.46875 -34.734375 19.285156 -33.867188 17.578125 -32.140625 C 15.878906 -30.421875 14.96875 -28.335938 14.84375 -25.890625 Z M 14.84375 -25.890625 "/></g></g></g><g fill="#393939" fill-opacity="1"><g transform="translate(116.372307, 63.910315)"><g><path d="M 27.6875 -43.09375 L 27.6875 -34.109375 L 19.578125 -34.109375 L 19.578125 -13.234375 C 19.578125 -11.585938 19.953125 -10.472656 20.703125 -9.890625 C 21.453125 -9.316406 22.425781 -9.03125 23.625 -9.03125 C 24.1875 -9.03125 24.742188 -9.082031 25.296875 -9.1875 C 25.859375 -9.289062 26.289062 -9.367188 26.59375 -9.421875 L 28.46875 -0.53125 C 27.875 -0.34375 27.035156 -0.125 25.953125 0.125 C 24.867188 0.375 23.550781 0.53125 22 0.59375 C 17.65625 0.78125 14.171875 -0.15625 11.546875 -2.21875 C 8.921875 -4.289062 7.613281 -7.441406 7.625 -11.671875 L 7.625 -34.109375 L 1.734375 -34.109375 L 1.734375 -43.09375 L 7.625 -43.09375 L 7.625 -53.421875 L 19.578125 -53.421875 L 19.578125 -43.09375 Z M 27.6875 -43.09375 "/></g></g></g><g fill="#393939" fill-opacity="1"><g transform="translate(143.667559, 63.910315)"><g><path d="M 24.40625 0.84375 C 19.988281 0.84375 16.179688 -0.0546875 12.984375 -1.859375 C 9.785156 -3.671875 7.328125 -6.234375 5.609375 -9.546875 C 3.890625 -12.867188 3.03125 -16.800781 3.03125 -21.34375 C 3.03125 -25.78125 3.890625 -29.671875 5.609375 -33.015625 C 7.328125 -36.367188 9.753906 -38.976562 12.890625 -40.84375 C 16.023438 -42.71875 19.707031 -43.65625 23.9375 -43.65625 C 27.726562 -43.65625 31.148438 -42.847656 34.203125 -41.234375 C 37.265625 -39.628906 39.691406 -37.203125 41.484375 -33.953125 C 43.285156 -30.710938 44.1875 -26.648438 44.1875 -21.765625 L 44.1875 -18.484375 L 14.84375 -18.484375 L 14.84375 -18.453125 C 14.84375 -15.242188 15.71875 -12.710938 17.46875 -10.859375 C 19.226562 -9.003906 21.609375 -8.078125 24.609375 -8.078125 C 26.609375 -8.078125 28.335938 -8.5 29.796875 -9.34375 C 31.253906 -10.1875 32.28125 -11.429688 32.875 -13.078125 L 43.9375 -12.34375 C 43.09375 -8.34375 40.957031 -5.144531 37.53125 -2.75 C 34.113281 -0.351562 29.738281 0.84375 24.40625 0.84375 Z M 14.84375 -25.890625 L 32.9375 -25.890625 C 32.914062 -28.453125 32.09375 -30.566406 30.46875 -32.234375 C 28.84375 -33.898438 26.726562 -34.734375 24.125 -34.734375 C 21.46875 -34.734375 19.285156 -33.867188 17.578125 -32.140625 C 15.878906 -30.421875 14.96875 -28.335938 14.84375 -25.890625 Z M 14.84375 -25.890625 "/></g></g></g><g fill="#393939" fill-opacity="1"><g transform="translate(187.487405, 63.910315)"><g><path d="M 4.765625 0 L 4.765625 -43.09375 L 16.359375 -43.09375 L 16.359375 -35.578125 L 16.796875 -35.578125 C 17.585938 -38.242188 18.90625 -40.265625 20.75 -41.640625 C 22.59375 -43.015625 24.726562 -43.703125 27.15625 -43.703125 C 28.3125 -43.703125 29.382812 -43.5625 30.375 -43.28125 C 31.375 -43 32.265625 -42.617188 33.046875 -42.140625 L 29.453125 -32.265625 C 28.890625 -32.546875 28.273438 -32.78125 27.609375 -32.96875 C 26.953125 -33.164062 26.210938 -33.265625 25.390625 -33.265625 C 22.972656 -33.265625 20.925781 -32.441406 19.25 -30.796875 C 17.582031 -29.148438 16.738281 -27.007812 16.71875 -24.375 L 16.71875 0 Z M 4.765625 0 "/></g></g></g><g fill="#393939" fill-opacity="1"><g transform="translate(217.952924, 63.910315)"><g><path d="M 4.765625 0 L 4.765625 -43.09375 L 16.71875 -43.09375 L 16.71875 0 Z M 10.765625 -48.640625 C 9.003906 -48.640625 7.488281 -49.234375 6.21875 -50.421875 C 4.945312 -51.609375 4.3125 -53.035156 4.3125 -54.703125 C 4.3125 -56.367188 4.945312 -57.789062 6.21875 -58.96875 C 7.488281 -60.144531 9.003906 -60.734375 10.765625 -60.734375 C 12.546875 -60.734375 14.070312 -60.144531 15.34375 -58.96875 C 16.613281 -57.789062 17.25 -56.367188 17.25 -54.703125 C 17.25 -53.035156 16.613281 -51.609375 15.34375 -50.421875 C 14.070312 -49.234375 12.546875 -48.640625 10.765625 -48.640625 Z M 10.765625 -48.640625 "/></g></g></g><g fill="#393939" fill-opacity="1"><g transform="translate(236.046025, 63.910315)"><g><path d="M 16.71875 -24.90625 L 16.71875 0 L 4.765625 0 L 4.765625 -43.09375 L 16.15625 -43.09375 L 16.15625 -35.484375 L 16.671875 -35.484375 C 17.640625 -37.992188 19.238281 -39.984375 21.46875 -41.453125 C 23.707031 -42.921875 26.425781 -43.65625 29.625 -43.65625 C 34.113281 -43.65625 37.710938 -42.207031 40.421875 -39.3125 C 43.140625 -36.425781 44.5 -32.46875 44.5 -27.4375 L 44.5 0 L 32.546875 0 L 32.546875 -25.3125 C 32.566406 -27.945312 31.890625 -30.003906 30.515625 -31.484375 C 29.148438 -32.972656 27.273438 -33.71875 24.890625 -33.71875 C 22.472656 -33.71875 20.507812 -32.945312 19 -31.40625 C 17.5 -29.863281 16.738281 -27.695312 16.71875 -24.90625 Z M 16.71875 -24.90625 "/></g></g></g><g fill="#393939" fill-opacity="1"><g transform="translate(281.773633, 63.910315)"><g><path d="M 17.0625 0.8125 C 12.945312 0.8125 9.53125 -0.257812 6.8125 -2.40625 C 4.101562 -4.5625 2.75 -7.769531 2.75 -12.03125 C 2.75 -15.25 3.503906 -17.773438 5.015625 -19.609375 C 6.535156 -21.441406 8.523438 -22.78125 10.984375 -23.625 C 13.441406 -24.476562 16.09375 -25.039062 18.9375 -25.3125 C 22.675781 -25.675781 25.347656 -26.0625 26.953125 -26.46875 C 28.566406 -26.882812 29.375 -27.785156 29.375 -29.171875 L 29.375 -29.34375 C 29.375 -31.125 28.816406 -32.5 27.703125 -33.46875 C 26.585938 -34.4375 25.007812 -34.921875 22.96875 -34.921875 C 20.820312 -34.921875 19.113281 -34.453125 17.84375 -33.515625 C 16.570312 -32.585938 15.726562 -31.40625 15.3125 -29.96875 L 4.265625 -30.859375 C 5.085938 -34.785156 7.128906 -37.898438 10.390625 -40.203125 C 13.660156 -42.503906 17.875 -43.65625 23.03125 -43.65625 C 26.226562 -43.65625 29.21875 -43.148438 32 -42.140625 C 34.789062 -41.128906 37.039062 -39.550781 38.75 -37.40625 C 40.46875 -35.269531 41.328125 -32.488281 41.328125 -29.0625 L 41.328125 0 L 29.984375 0 L 29.984375 -5.96875 L 29.65625 -5.96875 C 28.601562 -3.96875 27.035156 -2.335938 24.953125 -1.078125 C 22.867188 0.179688 20.238281 0.8125 17.0625 0.8125 Z M 20.484375 -7.4375 C 23.097656 -7.4375 25.242188 -8.195312 26.921875 -9.71875 C 28.609375 -11.238281 29.453125 -13.132812 29.453125 -15.40625 L 29.453125 -19.96875 C 28.984375 -19.65625 28.257812 -19.375 27.28125 -19.125 C 26.300781 -18.882812 25.253906 -18.675781 24.140625 -18.5 C 23.023438 -18.320312 22.03125 -18.164062 21.15625 -18.03125 C 19.0625 -17.738281 17.375 -17.148438 16.09375 -16.265625 C 14.8125 -15.390625 14.171875 -14.109375 14.171875 -12.421875 C 14.171875 -10.773438 14.765625 -9.53125 15.953125 -8.6875 C 17.140625 -7.851562 18.648438 -7.4375 20.484375 -7.4375 Z M 20.484375 -7.4375 "/></g></g></g><g fill="#393939" fill-opacity="1"><g transform="translate(324.218768, 63.910315)"><g><path d="M 4.765625 0 L 4.765625 -43.09375 L 16.359375 -43.09375 L 16.359375 -35.578125 L 16.796875 -35.578125 C 17.585938 -38.242188 18.90625 -40.265625 20.75 -41.640625 C 22.59375 -43.015625 24.726562 -43.703125 27.15625 -43.703125 C 28.3125 -43.703125 29.382812 -43.5625 30.375 -43.28125 C 31.375 -43 32.265625 -42.617188 33.046875 -42.140625 L 29.453125 -32.265625 C 28.890625 -32.546875 28.273438 -32.78125 27.609375 -32.96875 C 26.953125 -33.164062 26.210938 -33.265625 25.390625 -33.265625 C 22.972656 -33.265625 20.925781 -32.441406 19.25 -30.796875 C 17.582031 -29.148438 16.738281 -27.007812 16.71875 -24.375 L 16.71875 0 Z M 4.765625 0 "/></g></g></g><g fill="#393939" fill-opacity="1"><g transform="translate(354.684288, 63.910315)"><g><path d="M 4.765625 0 L 4.765625 -43.09375 L 16.71875 -43.09375 L 16.71875 0 Z M 10.765625 -48.640625 C 9.003906 -48.640625 7.488281 -49.234375 6.21875 -50.421875 C 4.945312 -51.609375 4.3125 -53.035156 4.3125 -54.703125 C 4.3125 -56.367188 4.945312 -57.789062 6.21875 -58.96875 C 7.488281 -60.144531 9.003906 -60.734375 10.765625 -60.734375 C 12.546875 -60.734375 14.070312 -60.144531 15.34375 -58.96875 C 16.613281 -57.789062 17.25 -56.367188 17.25 -54.703125 C 17.25 -53.035156 16.613281 -51.609375 15.34375 -50.421875 C 14.070312 -49.234375 12.546875 -48.640625 10.765625 -48.640625 Z M 10.765625 -48.640625 "/></g></g></g><g fill="#393939" fill-opacity="1"><g transform="translate(372.777374, 63.910315)"><g><path d="M 17.0625 0.8125 C 12.945312 0.8125 9.53125 -0.257812 6.8125 -2.40625 C 4.101562 -4.5625 2.75 -7.769531 2.75 -12.03125 C 2.75 -15.25 3.503906 -17.773438 5.015625 -19.609375 C 6.535156 -21.441406 8.523438 -22.78125 10.984375 -23.625 C 13.441406 -24.476562 16.09375 -25.039062 18.9375 -25.3125 C 22.675781 -25.675781 25.347656 -26.0625 26.953125 -26.46875 C 28.566406 -26.882812 29.375 -27.785156 29.375 -29.171875 L 29.375 -29.34375 C 29.375 -31.125 28.816406 -32.5 27.703125 -33.46875 C 26.585938 -34.4375 25.007812 -34.921875 22.96875 -34.921875 C 20.820312 -34.921875 19.113281 -34.453125 17.84375 -33.515625 C 16.570312 -32.585938 15.726562 -31.40625 15.3125 -29.96875 L 4.265625 -30.859375 C 5.085938 -34.785156 7.128906 -37.898438 10.390625 -40.203125 C 13.660156 -42.503906 17.875 -43.65625 23.03125 -43.65625 C 26.226562 -43.65625 29.21875 -43.148438 32 -42.140625 C 34.789062 -41.128906 37.039062 -39.550781 38.75 -37.40625 C 40.46875 -35.269531 41.328125 -32.488281 41.328125 -29.0625 L 41.328125 0 L 29.984375 0 L 29.984375 -5.96875 L 29.65625 -5.96875 C 28.601562 -3.96875 27.035156 -2.335938 24.953125 -1.078125 C 22.867188 0.179688 20.238281 0.8125 17.0625 0.8125 Z M 20.484375 -7.4375 C 23.097656 -7.4375 25.242188 -8.195312 26.921875 -9.71875 C 28.609375 -11.238281 29.453125 -13.132812 29.453125 -15.40625 L 29.453125 -19.96875 C 28.984375 -19.65625 28.257812 -19.375 27.28125 -19.125 C 26.300781 -18.882812 25.253906 -18.675781 24.140625 -18.5 C 23.023438 -18.320312 22.03125 -18.164062 21.15625 -18.03125 C 19.0625 -17.738281 17.375 -17.148438 16.09375 -16.265625 C 14.8125 -15.390625 14.171875 -14.109375 14.171875 -12.421875 C 14.171875 -10.773438 14.765625 -9.53125 15.953125 -8.6875 C 17.140625 -7.851562 18.648438 -7.4375 20.484375 -7.4375 Z M 20.484375 -7.4375 "/></g></g></g><g fill="#393939" fill-opacity="1"><g transform="translate(2.139418, 130.917905)"><g><path d="M 5 0 L 5 -57.453125 L 27.65625 -57.453125 C 34.1875 -57.453125 39.25 -55.75 42.84375 -52.34375 C 46.445312 -48.945312 48.25 -44.394531 48.25 -38.6875 C 48.25 -34.757812 47.375 -31.398438 45.625 -28.609375 C 43.875 -25.828125 41.363281 -23.734375 38.09375 -22.328125 L 50.296875 0 L 36.890625 0 L 26 -20.375 L 17.140625 -20.375 L 17.140625 0 Z M 17.140625 -30.125 L 25.390625 -30.125 C 32.285156 -30.125 35.734375 -32.976562 35.734375 -38.6875 C 35.734375 -44.582031 32.265625 -47.53125 25.328125 -47.53125 L 17.140625 -47.53125 Z M 17.140625 -30.125 "/></g></g></g><g fill="#393939" fill-opacity="1"><g transform="translate(50.588404, 130.917905)"><g><path d="M 32.40625 -18.34375 L 32.40625 -43.09375 L 44.359375 -43.09375 L 44.359375 0 L 32.875 0 L 32.875 -7.828125 L 32.4375 -7.828125 C 31.457031 -5.304688 29.835938 -3.273438 27.578125 -1.734375 C 25.328125 -0.203125 22.585938 0.5625 19.359375 0.5625 C 15.015625 0.5625 11.5 -0.878906 8.8125 -3.765625 C 6.132812 -6.660156 4.785156 -10.625 4.765625 -15.65625 L 4.765625 -43.09375 L 16.71875 -43.09375 L 16.71875 -17.78125 C 16.738281 -15.238281 17.421875 -13.226562 18.765625 -11.75 C 20.109375 -10.269531 21.914062 -9.53125 24.1875 -9.53125 C 26.332031 -9.53125 28.242188 -10.28125 29.921875 -11.78125 C 31.597656 -13.28125 32.425781 -15.46875 32.40625 -18.34375 Z M 32.40625 -18.34375 "/></g></g></g><g fill="#393939" fill-opacity="1"><g transform="translate(96.31602, 130.917905)"><g><path d="M 4.765625 0 L 4.765625 -43.09375 L 16.15625 -43.09375 L 16.15625 -35.484375 L 16.671875 -35.484375 C 17.566406 -38.023438 19.066406 -40.019531 21.171875 -41.46875 C 23.273438 -42.925781 25.773438 -43.65625 28.671875 -43.65625 C 31.628906 -43.65625 34.144531 -42.921875 36.21875 -41.453125 C 38.289062 -39.984375 39.675781 -37.992188 40.375 -35.484375 L 40.8125 -35.484375 C 41.695312 -37.953125 43.289062 -39.929688 45.59375 -41.421875 C 47.90625 -42.910156 50.644531 -43.65625 53.8125 -43.65625 C 57.832031 -43.65625 61.097656 -42.378906 63.609375 -39.828125 C 66.128906 -37.273438 67.390625 -33.660156 67.390625 -28.984375 L 67.390625 0 L 55.46875 0 L 55.46875 -26.625 C 55.46875 -29.019531 54.828125 -30.816406 53.546875 -32.015625 C 52.273438 -33.210938 50.6875 -33.8125 48.78125 -33.8125 C 46.613281 -33.8125 44.921875 -33.117188 43.703125 -31.734375 C 42.492188 -30.347656 41.890625 -28.539062 41.890625 -26.3125 L 41.890625 0 L 30.296875 0 L 30.296875 -26.875 C 30.296875 -28.988281 29.691406 -30.671875 28.484375 -31.921875 C 27.273438 -33.179688 25.691406 -33.8125 23.734375 -33.8125 C 21.753906 -33.8125 20.085938 -33.082031 18.734375 -31.625 C 17.390625 -30.175781 16.71875 -28.253906 16.71875 -25.859375 L 16.71875 0 Z M 4.765625 0 "/></g></g></g><g fill="#393939" fill-opacity="1"><g transform="translate(164.964851, 130.917905)"><g><path d="M 4.765625 0 L 4.765625 -43.09375 L 16.71875 -43.09375 L 16.71875 0 Z M 10.765625 -48.640625 C 9.003906 -48.640625 7.488281 -49.234375 6.21875 -50.421875 C 4.945312 -51.609375 4.3125 -53.035156 4.3125 -54.703125 C 4.3125 -56.367188 4.945312 -57.789062 6.21875 -58.96875 C 7.488281 -60.144531 9.003906 -60.734375 10.765625 -60.734375 C 12.546875 -60.734375 14.070312 -60.144531 15.34375 -58.96875 C 16.613281 -57.789062 17.25 -56.367188 17.25 -54.703125 C 17.25 -53.035156 16.613281 -51.609375 15.34375 -50.421875 C 14.070312 -49.234375 12.546875 -48.640625 10.765625 -48.640625 Z M 10.765625 -48.640625 "/></g></g></g><g fill="#393939" fill-opacity="1"><g transform="translate(183.057952, 130.917905)"><g><path d="M 4.765625 16.15625 L 4.765625 -43.09375 L 16.546875 -43.09375 L 16.546875 -35.859375 L 17.078125 -35.859375 C 17.628906 -37.035156 18.398438 -38.222656 19.390625 -39.421875 C 20.378906 -40.617188 21.6875 -41.625 23.3125 -42.4375 C 24.9375 -43.25 26.945312 -43.65625 29.34375 -43.65625 C 32.5 -43.65625 35.394531 -42.835938 38.03125 -41.203125 C 40.675781 -39.566406 42.796875 -37.101562 44.390625 -33.8125 C 45.992188 -30.53125 46.796875 -26.421875 46.796875 -21.484375 C 46.796875 -16.679688 46.019531 -12.628906 44.46875 -9.328125 C 42.914062 -6.023438 40.816406 -3.523438 38.171875 -1.828125 C 35.535156 -0.140625 32.582031 0.703125 29.3125 0.703125 C 27 0.703125 25.03125 0.320312 23.40625 -0.4375 C 21.789062 -1.207031 20.472656 -2.175781 19.453125 -3.34375 C 18.429688 -4.519531 17.640625 -5.707031 17.078125 -6.90625 L 16.71875 -6.90625 L 16.71875 16.15625 Z M 16.46875 -21.546875 C 16.46875 -17.710938 17.253906 -14.628906 18.828125 -12.296875 C 20.410156 -9.972656 22.644531 -8.8125 25.53125 -8.8125 C 28.46875 -8.8125 30.710938 -9.992188 32.265625 -12.359375 C 33.816406 -14.722656 34.59375 -17.785156 34.59375 -21.546875 C 34.59375 -25.285156 33.820312 -28.316406 32.28125 -30.640625 C 30.738281 -32.972656 28.488281 -34.140625 25.53125 -34.140625 C 22.632812 -34.140625 20.398438 -33.003906 18.828125 -30.734375 C 17.253906 -28.460938 16.46875 -25.398438 16.46875 -21.546875 Z M 16.46875 -21.546875 "/></g></g></g><g fill="#393939" fill-opacity="1"><g transform="translate(229.627221, 130.917905)"><g><path d="M 17.0625 0.8125 C 12.945312 0.8125 9.53125 -0.257812 6.8125 -2.40625 C 4.101562 -4.5625 2.75 -7.769531 2.75 -12.03125 C 2.75 -15.25 3.503906 -17.773438 5.015625 -19.609375 C 6.535156 -21.441406 8.523438 -22.78125 10.984375 -23.625 C 13.441406 -24.476562 16.09375 -25.039062 18.9375 -25.3125 C 22.675781 -25.675781 25.347656 -26.0625 26.953125 -26.46875 C 28.566406 -26.882812 29.375 -27.785156 29.375 -29.171875 L 29.375 -29.34375 C 29.375 -31.125 28.816406 -32.5 27.703125 -33.46875 C 26.585938 -34.4375 25.007812 -34.921875 22.96875 -34.921875 C 20.820312 -34.921875 19.113281 -34.453125 17.84375 -33.515625 C 16.570312 -32.585938 15.726562 -31.40625 15.3125 -29.96875 L 4.265625 -30.859375 C 5.085938 -34.785156 7.128906 -37.898438 10.390625 -40.203125 C 13.660156 -42.503906 17.875 -43.65625 23.03125 -43.65625 C 26.226562 -43.65625 29.21875 -43.148438 32 -42.140625 C 34.789062 -41.128906 37.039062 -39.550781 38.75 -37.40625 C 40.46875 -35.269531 41.328125 -32.488281 41.328125 -29.0625 L 41.328125 0 L 29.984375 0 L 29.984375 -5.96875 L 29.65625 -5.96875 C 28.601562 -3.96875 27.035156 -2.335938 24.953125 -1.078125 C 22.867188 0.179688 20.238281 0.8125 17.0625 0.8125 Z M 20.484375 -7.4375 C 23.097656 -7.4375 25.242188 -8.195312 26.921875 -9.71875 C 28.609375 -11.238281 29.453125 -13.132812 29.453125 -15.40625 L 29.453125 -19.96875 C 28.984375 -19.65625 28.257812 -19.375 27.28125 -19.125 C 26.300781 -18.882812 25.253906 -18.675781 24.140625 -18.5 C 23.023438 -18.320312 22.03125 -18.164062 21.15625 -18.03125 C 19.0625 -17.738281 17.375 -17.148438 16.09375 -16.265625 C 14.8125 -15.390625 14.171875 -14.109375 14.171875 -12.421875 C 14.171875 -10.773438 14.765625 -9.53125 15.953125 -8.6875 C 17.140625 -7.851562 18.648438 -7.4375 20.484375 -7.4375 Z M 20.484375 -7.4375 "/></g></g></g><g fill="#393939" fill-opacity="1"><g transform="translate(272.072356, 130.917905)"><g><path d="M 4.765625 0 L 4.765625 -43.09375 L 16.15625 -43.09375 L 16.15625 -35.484375 L 16.671875 -35.484375 C 17.566406 -38.023438 19.066406 -40.019531 21.171875 -41.46875 C 23.273438 -42.925781 25.773438 -43.65625 28.671875 -43.65625 C 31.628906 -43.65625 34.144531 -42.921875 36.21875 -41.453125 C 38.289062 -39.984375 39.675781 -37.992188 40.375 -35.484375 L 40.8125 -35.484375 C 41.695312 -37.953125 43.289062 -39.929688 45.59375 -41.421875 C 47.90625 -42.910156 50.644531 -43.65625 53.8125 -43.65625 C 57.832031 -43.65625 61.097656 -42.378906 63.609375 -39.828125 C 66.128906 -37.273438 67.390625 -33.660156 67.390625 -28.984375 L 67.390625 0 L 55.46875 0 L 55.46875 -26.625 C 55.46875 -29.019531 54.828125 -30.816406 53.546875 -32.015625 C 52.273438 -33.210938 50.6875 -33.8125 48.78125 -33.8125 C 46.613281 -33.8125 44.921875 -33.117188 43.703125 -31.734375 C 42.492188 -30.347656 41.890625 -28.539062 41.890625 -26.3125 L 41.890625 0 L 30.296875 0 L 30.296875 -26.875 C 30.296875 -28.988281 29.691406 -30.671875 28.484375 -31.921875 C 27.273438 -33.179688 25.691406 -33.8125 23.734375 -33.8125 C 21.753906 -33.8125 20.085938 -33.082031 18.734375 -31.625 C 17.390625 -30.175781 16.71875 -28.253906 16.71875 -25.859375 L 16.71875 0 Z M 4.765625 0 "/></g></g></g><g fill="#393939" fill-opacity="1"><g transform="translate(340.721194, 130.917905)"><g><path d="M 5 0 L 5 -57.453125 L 16.9375 -57.453125 L 16.9375 -35.859375 L 17.3125 -35.859375 C 17.851562 -37.035156 18.617188 -38.222656 19.609375 -39.421875 C 20.597656 -40.617188 21.90625 -41.625 23.53125 -42.4375 C 25.164062 -43.25 27.175781 -43.65625 29.5625 -43.65625 C 32.726562 -43.65625 35.628906 -42.835938 38.265625 -41.203125 C 40.898438 -39.566406 43.015625 -37.101562 44.609375 -33.8125 C 46.210938 -30.53125 47.015625 -26.421875 47.015625 -21.484375 C 47.015625 -16.679688 46.238281 -12.628906 44.6875 -9.328125 C 43.132812 -6.023438 41.039062 -3.523438 38.40625 -1.828125 C 35.769531 -0.140625 32.816406 0.703125 29.546875 0.703125 C 27.222656 0.703125 25.25 0.320312 23.625 -0.4375 C 22.007812 -1.207031 20.691406 -2.175781 19.671875 -3.34375 C 18.660156 -4.519531 17.875 -5.707031 17.3125 -6.90625 L 16.78125 -6.90625 L 16.78125 0 Z M 16.6875 -21.546875 C 16.6875 -17.710938 17.476562 -14.628906 19.0625 -12.296875 C 20.644531 -9.972656 22.875 -8.8125 25.75 -8.8125 C 28.6875 -8.8125 30.929688 -9.992188 32.484375 -12.359375 C 34.035156 -14.722656 34.8125 -17.785156 34.8125 -21.546875 C 34.8125 -25.285156 34.039062 -28.316406 32.5 -30.640625 C 30.957031 -32.972656 28.707031 -34.140625 25.75 -34.140625 C 22.851562 -34.140625 20.617188 -33.003906 19.046875 -30.734375 C 17.472656 -28.460938 16.6875 -25.398438 16.6875 -21.546875 Z M 16.6875 -21.546875 "/></g></g></g><g fill="#393939" fill-opacity="1"><g transform="translate(387.514919, 130.917905)"><g><path d="M 17.0625 0.8125 C 12.945312 0.8125 9.53125 -0.257812 6.8125 -2.40625 C 4.101562 -4.5625 2.75 -7.769531 2.75 -12.03125 C 2.75 -15.25 3.503906 -17.773438 5.015625 -19.609375 C 6.535156 -21.441406 8.523438 -22.78125 10.984375 -23.625 C 13.441406 -24.476562 16.09375 -25.039062 18.9375 -25.3125 C 22.675781 -25.675781 25.347656 -26.0625 26.953125 -26.46875 C 28.566406 -26.882812 29.375 -27.785156 29.375 -29.171875 L 29.375 -29.34375 C 29.375 -31.125 28.816406 -32.5 27.703125 -33.46875 C 26.585938 -34.4375 25.007812 -34.921875 22.96875 -34.921875 C 20.820312 -34.921875 19.113281 -34.453125 17.84375 -33.515625 C 16.570312 -32.585938 15.726562 -31.40625 15.3125 -29.96875 L 4.265625 -30.859375 C 5.085938 -34.785156 7.128906 -37.898438 10.390625 -40.203125 C 13.660156 -42.503906 17.875 -43.65625 23.03125 -43.65625 C 26.226562 -43.65625 29.21875 -43.148438 32 -42.140625 C 34.789062 -41.128906 37.039062 -39.550781 38.75 -37.40625 C 40.46875 -35.269531 41.328125 -32.488281 41.328125 -29.0625 L 41.328125 0 L 29.984375 0 L 29.984375 -5.96875 L 29.65625 -5.96875 C 28.601562 -3.96875 27.035156 -2.335938 24.953125 -1.078125 C 22.867188 0.179688 20.238281 0.8125 17.0625 0.8125 Z M 20.484375 -7.4375 C 23.097656 -7.4375 25.242188 -8.195312 26.921875 -9.71875 C 28.609375 -11.238281 29.453125 -13.132812 29.453125 -15.40625 L 29.453125 -19.96875 C 28.984375 -19.65625 28.257812 -19.375 27.28125 -19.125 C 26.300781 -18.882812 25.253906 -18.675781 24.140625 -18.5 C 23.023438 -18.320312 22.03125 -18.164062 21.15625 -18.03125 C 19.0625 -17.738281 17.375 -17.148438 16.09375 -16.265625 C 14.8125 -15.390625 14.171875 -14.109375 14.171875 -12.421875 C 14.171875 -10.773438 14.765625 -9.53125 15.953125 -8.6875 C 17.140625 -7.851562 18.648438 -7.4375 20.484375 -7.4375 Z M 20.484375 -7.4375 "/></g></g></g></svg>