<svg xmlns="http://www.w3.org/2000/svg" xmlns:xlink="http://www.w3.org/1999/xlink" width="1550" zoomAndPan="magnify" viewBox="0 0 1162.5 223.499994" height="298" preserveAspectRatio="xMidYMid meet" version="1.0"><defs><g/><clipPath id="5b1bf458e4"><path d="M 1.046875 12 L 141 12 L 141 179 L 1.046875 179 Z M 1.046875 12 " clip-rule="nonzero"/></clipPath><clipPath id="6969c22e3c"><path d="M 1091 52 L 1160.953125 52 L 1160.953125 182 L 1091 182 Z M 1091 52 " clip-rule="nonzero"/></clipPath></defs><g clip-path="url(#5b1bf458e4)"><g fill="#1b1b29" fill-opacity="1"><g transform="translate(-54.985931, 178.880617)"><g><path d="M 14.46875 -166.53125 L 57.890625 -166.53125 L 103.765625 -54.640625 L 105.703125 -54.640625 L 151.578125 -166.53125 L 195 -166.53125 L 195 0 L 160.84375 0 L 160.84375 -108.390625 L 159.453125 -108.390625 L 116.359375 -0.8125 L 93.109375 -0.8125 L 50.015625 -108.796875 L 48.625 -108.796875 L 48.625 0 L 14.46875 0 Z M 14.46875 -166.53125 "/></g></g></g></g><g fill="#1b1b29" fill-opacity="1"><g transform="translate(146.740203, 178.880617)"><g><path d="M 13.828125 0 L 13.828125 -124.90625 L 48.46875 -124.90625 L 48.46875 0 Z M 31.234375 -141 C 26.140625 -141 21.75 -142.71875 18.0625 -146.15625 C 14.375 -149.601562 12.53125 -153.738281 12.53125 -158.5625 C 12.53125 -163.382812 14.375 -167.503906 18.0625 -170.921875 C 21.75 -174.335938 26.140625 -176.046875 31.234375 -176.046875 C 36.378906 -176.046875 40.796875 -174.335938 44.484375 -170.921875 C 48.171875 -167.503906 50.015625 -163.382812 50.015625 -158.5625 C 50.015625 -153.738281 48.171875 -149.601562 44.484375 -146.15625 C 40.796875 -142.71875 36.378906 -141 31.234375 -141 Z M 31.234375 -141 "/></g></g></g><g fill="#1b1b29" fill-opacity="1"><g transform="translate(199.178549, 178.880617)"><g/></g></g><g fill="#1b1b29" fill-opacity="1"><g transform="translate(242.428704, 178.880617)"><g><path d="M 14.46875 0 L 14.46875 -166.53125 L 80.171875 -166.53125 C 92.804688 -166.53125 103.566406 -164.128906 112.453125 -159.328125 C 121.347656 -154.535156 128.140625 -147.894531 132.828125 -139.40625 C 137.515625 -130.925781 139.859375 -121.15625 139.859375 -110.09375 C 139.859375 -99.039062 137.472656 -89.296875 132.703125 -80.859375 C 127.929688 -72.429688 121.03125 -65.847656 112 -61.109375 C 102.976562 -56.367188 92.070312 -54 79.28125 -54 L 49.6875 -54 L 49.6875 0 Z M 49.6875 -82.203125 L 73.59375 -82.203125 C 83.675781 -82.203125 91.195312 -84.789062 96.15625 -89.96875 C 101.113281 -95.144531 103.59375 -101.851562 103.59375 -110.09375 C 103.59375 -118.394531 101.113281 -125.078125 96.15625 -130.140625 C 91.195312 -135.210938 83.617188 -137.75 73.421875 -137.75 L 49.6875 -137.75 Z M 49.6875 -82.203125 "/></g></g></g><g fill="#1b1b29" fill-opacity="1"><g transform="translate(380.894581, 178.880617)"><g><path d="M 70.75 2.4375 C 57.945312 2.4375 46.910156 -0.175781 37.640625 -5.40625 C 28.378906 -10.632812 21.253906 -18.0625 16.265625 -27.6875 C 11.273438 -37.3125 8.78125 -48.707031 8.78125 -61.875 C 8.78125 -74.726562 11.273438 -86.003906 16.265625 -95.703125 C 21.253906 -105.410156 28.285156 -112.972656 37.359375 -118.390625 C 46.441406 -123.816406 57.109375 -126.53125 69.359375 -126.53125 C 80.367188 -126.53125 90.300781 -124.195312 99.15625 -119.53125 C 108.019531 -114.875 115.054688 -107.84375 120.265625 -98.4375 C 125.472656 -89.03125 128.078125 -77.25 128.078125 -63.09375 L 128.078125 -53.59375 L 43.015625 -53.59375 L 43.015625 -53.5 C 43.015625 -44.175781 45.5625 -36.832031 50.65625 -31.46875 C 55.75 -26.101562 62.632812 -23.421875 71.3125 -23.421875 C 77.113281 -23.421875 82.128906 -24.640625 86.359375 -27.078125 C 90.585938 -29.515625 93.566406 -33.117188 95.296875 -37.890625 L 127.34375 -35.78125 C 124.90625 -24.175781 118.722656 -14.90625 108.796875 -7.96875 C 98.878906 -1.03125 86.195312 2.4375 70.75 2.4375 Z M 43.015625 -75.046875 L 95.46875 -75.046875 C 95.414062 -82.472656 93.03125 -88.597656 88.3125 -93.421875 C 83.59375 -98.253906 77.46875 -100.671875 69.9375 -100.671875 C 62.238281 -100.671875 55.921875 -98.175781 50.984375 -93.1875 C 46.046875 -88.195312 43.390625 -82.148438 43.015625 -75.046875 Z M 43.015625 -75.046875 "/></g></g></g><g fill="#1b1b29" fill-opacity="1"><g transform="translate(507.895495, 178.880617)"><g><path d="M 80.265625 -124.90625 L 80.265625 -98.875 L 56.765625 -98.875 L 56.765625 -38.375 C 56.765625 -33.601562 57.847656 -30.378906 60.015625 -28.703125 C 62.179688 -27.023438 65 -26.1875 68.46875 -26.1875 C 70.09375 -26.1875 71.71875 -26.332031 73.34375 -26.625 C 74.96875 -26.925781 76.21875 -27.160156 77.09375 -27.328125 L 82.53125 -1.546875 C 80.800781 -1.003906 78.363281 -0.367188 75.21875 0.359375 C 72.070312 1.097656 68.25 1.546875 63.75 1.703125 C 51.175781 2.242188 41.078125 -0.476562 33.453125 -6.46875 C 25.835938 -12.457031 22.0625 -21.578125 22.125 -33.828125 L 22.125 -98.875 L 5.046875 -98.875 L 5.046875 -124.90625 L 22.125 -124.90625 L 22.125 -154.828125 L 56.765625 -154.828125 L 56.765625 -124.90625 Z M 80.265625 -124.90625 "/></g></g></g><g fill="#1b1b29" fill-opacity="1"><g transform="translate(587.004007, 178.880617)"><g/></g></g><g fill="#1b1b29" fill-opacity="1"><g transform="translate(630.254182, 178.880617)"><g><path d="M 161.40625 -108.234375 L 125.796875 -108.234375 C 124.441406 -117.390625 120.535156 -124.582031 114.078125 -129.8125 C 107.628906 -135.050781 99.582031 -137.671875 89.9375 -137.671875 C 77.03125 -137.671875 66.6875 -132.9375 58.90625 -123.46875 C 51.132812 -114.007812 47.25 -100.609375 47.25 -83.265625 C 47.25 -65.484375 51.164062 -51.96875 59 -42.71875 C 66.832031 -33.476562 77.0625 -28.859375 89.6875 -28.859375 C 99.070312 -28.859375 107.015625 -31.3125 113.515625 -36.21875 C 120.023438 -41.125 124.117188 -48.023438 125.796875 -56.921875 L 161.40625 -56.765625 C 160.164062 -46.566406 156.535156 -36.96875 150.515625 -27.96875 C 144.492188 -18.96875 136.316406 -11.675781 125.984375 -6.09375 C 115.660156 -0.507812 103.375 2.28125 89.125 2.28125 C 74.269531 2.28125 61 -1.078125 49.3125 -7.796875 C 37.632812 -14.523438 28.421875 -24.257812 21.671875 -37 C 14.921875 -49.738281 11.546875 -65.160156 11.546875 -83.265625 C 11.546875 -101.421875 14.957031 -116.867188 21.78125 -129.609375 C 28.613281 -142.347656 37.882812 -152.066406 49.59375 -158.765625 C 61.3125 -165.460938 74.488281 -168.8125 89.125 -168.8125 C 101.96875 -168.8125 113.550781 -166.4375 123.875 -161.6875 C 134.207031 -156.945312 142.664062 -150.0625 149.25 -141.03125 C 155.84375 -132.007812 159.894531 -121.078125 161.40625 -108.234375 Z M 161.40625 -108.234375 "/></g></g></g><g fill="#1b1b29" fill-opacity="1"><g transform="translate(792.625556, 178.880617)"><g><path d="M 48.46875 -166.53125 L 48.46875 0 L 13.828125 0 L 13.828125 -166.53125 Z M 48.46875 -166.53125 "/></g></g></g><g fill="#1b1b29" fill-opacity="1"><g transform="translate(845.063861, 178.880617)"><g><path d="M 13.828125 0 L 13.828125 -124.90625 L 48.46875 -124.90625 L 48.46875 0 Z M 31.234375 -141 C 26.140625 -141 21.75 -142.71875 18.0625 -146.15625 C 14.375 -149.601562 12.53125 -153.738281 12.53125 -158.5625 C 12.53125 -163.382812 14.375 -167.503906 18.0625 -170.921875 C 21.75 -174.335938 26.140625 -176.046875 31.234375 -176.046875 C 36.378906 -176.046875 40.796875 -174.335938 44.484375 -170.921875 C 48.171875 -167.503906 50.015625 -163.382812 50.015625 -158.5625 C 50.015625 -153.738281 48.171875 -149.601562 44.484375 -146.15625 C 40.796875 -142.71875 36.378906 -141 31.234375 -141 Z M 31.234375 -141 "/></g></g></g><g fill="#1b1b29" fill-opacity="1"><g transform="translate(897.502166, 178.880617)"><g><path d="M 48.46875 -72.203125 L 48.46875 0 L 13.828125 0 L 13.828125 -124.90625 L 46.84375 -124.90625 L 46.84375 -102.859375 L 48.296875 -102.859375 C 51.117188 -110.128906 55.769531 -115.890625 62.25 -120.140625 C 68.726562 -124.398438 76.601562 -126.53125 85.875 -126.53125 C 98.882812 -126.53125 109.316406 -122.34375 117.171875 -113.96875 C 125.035156 -105.59375 128.96875 -94.113281 128.96875 -79.53125 L 128.96875 0 L 94.328125 0 L 94.328125 -73.34375 C 94.378906 -80.988281 92.425781 -86.960938 88.46875 -91.265625 C 84.507812 -95.578125 79.0625 -97.734375 72.125 -97.734375 C 65.132812 -97.734375 59.457031 -95.5 55.09375 -91.03125 C 50.726562 -86.5625 48.519531 -80.285156 48.46875 -72.203125 Z M 48.46875 -72.203125 "/></g></g></g><g fill="#1b1b29" fill-opacity="1"><g transform="translate(1030.032297, 178.880617)"><g><path d="M 13.828125 0 L 13.828125 -124.90625 L 48.46875 -124.90625 L 48.46875 0 Z M 31.234375 -141 C 26.140625 -141 21.75 -142.71875 18.0625 -146.15625 C 14.375 -149.601562 12.53125 -153.738281 12.53125 -158.5625 C 12.53125 -163.382812 14.375 -167.503906 18.0625 -170.921875 C 21.75 -174.335938 26.140625 -176.046875 31.234375 -176.046875 C 36.378906 -176.046875 40.796875 -174.335938 44.484375 -170.921875 C 48.171875 -167.503906 50.015625 -163.382812 50.015625 -158.5625 C 50.015625 -153.738281 48.171875 -149.601562 44.484375 -146.15625 C 40.796875 -142.71875 36.378906 -141 31.234375 -141 Z M 31.234375 -141 "/></g></g></g><g clip-path="url(#6969c22e3c)"><g fill="#1b1b29" fill-opacity="1"><g transform="translate(1082.470602, 178.880617)"><g><path d="M 70.25 2.4375 C 57.457031 2.4375 46.46875 -0.285156 37.28125 -5.734375 C 28.09375 -11.179688 21.046875 -18.753906 16.140625 -28.453125 C 11.234375 -38.160156 8.78125 -49.332031 8.78125 -61.96875 C 8.78125 -74.757812 11.257812 -85.992188 16.21875 -95.671875 C 21.175781 -105.347656 28.234375 -112.910156 37.390625 -118.359375 C 46.554688 -123.804688 57.457031 -126.53125 70.09375 -126.53125 C 80.988281 -126.53125 90.539062 -124.550781 98.75 -120.59375 C 106.96875 -116.632812 113.445312 -111.078125 118.1875 -103.921875 C 122.9375 -96.765625 125.550781 -88.363281 126.03125 -78.71875 L 93.34375 -78.71875 C 92.425781 -84.945312 90 -89.972656 86.0625 -93.796875 C 82.132812 -97.617188 77 -99.53125 70.65625 -99.53125 C 62.632812 -99.53125 56.179688 -96.300781 51.296875 -89.84375 C 46.421875 -83.394531 43.984375 -74.265625 43.984375 -62.453125 C 43.984375 -50.523438 46.410156 -41.296875 51.265625 -34.765625 C 56.117188 -28.234375 62.582031 -24.96875 70.65625 -24.96875 C 76.625 -24.96875 81.640625 -26.769531 85.703125 -30.375 C 89.773438 -33.976562 92.320312 -39.113281 93.34375 -45.78125 L 126.03125 -45.78125 C 125.488281 -36.238281 122.898438 -27.832031 118.265625 -20.5625 C 113.640625 -13.300781 107.257812 -7.648438 99.125 -3.609375 C 90.988281 0.421875 81.363281 2.4375 70.25 2.4375 Z M 70.25 2.4375 "/></g></g></g></g></svg>