<svg xmlns="http://www.w3.org/2000/svg" xmlns:xlink="http://www.w3.org/1999/xlink" width="384" zoomAndPan="magnify" viewBox="0 0 288 137.249994" height="183" preserveAspectRatio="xMidYMid meet" version="1.0"><defs><g/></defs><g fill="#ffffff" fill-opacity="1"><g transform="translate(-1.013922, 134.118257)"><g><path d="M 58.90625 -39.5 L 45.90625 -39.5 C 45.414062 -42.84375 43.992188 -45.46875 41.640625 -47.375 C 39.285156 -49.28125 36.34375 -50.234375 32.8125 -50.234375 C 28.101562 -50.234375 24.328125 -48.503906 21.484375 -45.046875 C 18.648438 -41.597656 17.234375 -36.710938 17.234375 -30.390625 C 17.234375 -23.898438 18.660156 -18.96875 21.515625 -15.59375 C 24.378906 -12.21875 28.117188 -10.53125 32.734375 -10.53125 C 36.148438 -10.53125 39.046875 -11.425781 41.421875 -13.21875 C 43.796875 -15.007812 45.289062 -17.523438 45.90625 -20.765625 L 58.90625 -20.71875 C 58.445312 -17 57.117188 -13.492188 54.921875 -10.203125 C 52.734375 -6.921875 49.753906 -4.257812 45.984375 -2.21875 C 42.210938 -0.1875 37.722656 0.828125 32.515625 0.828125 C 27.097656 0.828125 22.257812 -0.394531 18 -2.84375 C 13.738281 -5.300781 10.375 -8.851562 7.90625 -13.5 C 5.445312 -18.144531 4.21875 -23.773438 4.21875 -30.390625 C 4.21875 -37.015625 5.460938 -42.648438 7.953125 -47.296875 C 10.441406 -51.953125 13.820312 -55.5 18.09375 -57.9375 C 22.375 -60.382812 27.179688 -61.609375 32.515625 -61.609375 C 37.210938 -61.609375 41.441406 -60.738281 45.203125 -59 C 48.972656 -57.269531 52.0625 -54.757812 54.46875 -51.46875 C 56.875 -48.175781 58.351562 -44.1875 58.90625 -39.5 Z M 58.90625 -39.5 "/></g></g></g><g fill="#ffffff" fill-opacity="1"><g transform="translate(58.238637, 134.118257)"><g><path d="M 17.6875 -60.765625 L 17.6875 0 L 5.046875 0 L 5.046875 -60.765625 Z M 17.6875 -60.765625 "/></g></g></g><g fill="#ffffff" fill-opacity="1"><g transform="translate(77.374433, 134.118257)"><g><path d="M 5.046875 0 L 5.046875 -45.578125 L 17.6875 -45.578125 L 17.6875 0 Z M 11.40625 -51.453125 C 9.539062 -51.453125 7.9375 -52.078125 6.59375 -53.328125 C 5.25 -54.585938 4.578125 -56.097656 4.578125 -57.859375 C 4.578125 -59.617188 5.25 -61.125 6.59375 -62.375 C 7.9375 -63.625 9.539062 -64.25 11.40625 -64.25 C 13.28125 -64.25 14.890625 -63.625 16.234375 -62.375 C 17.578125 -61.125 18.25 -59.617188 18.25 -57.859375 C 18.25 -56.097656 17.578125 -54.585938 16.234375 -53.328125 C 14.890625 -52.078125 13.28125 -51.453125 11.40625 -51.453125 Z M 11.40625 -51.453125 "/></g></g></g><g fill="#ffffff" fill-opacity="1"><g transform="translate(96.510228, 134.118257)"><g><path d="M 17.6875 -26.34375 L 17.6875 0 L 5.046875 0 L 5.046875 -45.578125 L 17.09375 -45.578125 L 17.09375 -37.53125 L 17.625 -37.53125 C 18.65625 -40.1875 20.351562 -42.289062 22.71875 -43.84375 C 25.082031 -45.394531 27.957031 -46.171875 31.34375 -46.171875 C 36.082031 -46.171875 39.882812 -44.640625 42.75 -41.578125 C 45.625 -38.523438 47.0625 -34.335938 47.0625 -29.015625 L 47.0625 0 L 34.421875 0 L 34.421875 -26.765625 C 34.441406 -29.554688 33.726562 -31.738281 32.28125 -33.3125 C 30.84375 -34.882812 28.859375 -35.671875 26.328125 -35.671875 C 23.773438 -35.671875 21.703125 -34.851562 20.109375 -33.21875 C 18.515625 -31.582031 17.707031 -29.289062 17.6875 -26.34375 Z M 17.6875 -26.34375 "/></g></g></g><g fill="#ffffff" fill-opacity="1"><g transform="translate(144.873094, 134.118257)"><g><path d="M 5.046875 0 L 5.046875 -45.578125 L 17.6875 -45.578125 L 17.6875 0 Z M 11.40625 -51.453125 C 9.539062 -51.453125 7.9375 -52.078125 6.59375 -53.328125 C 5.25 -54.585938 4.578125 -56.097656 4.578125 -57.859375 C 4.578125 -59.617188 5.25 -61.125 6.59375 -62.375 C 7.9375 -63.625 9.539062 -64.25 11.40625 -64.25 C 13.28125 -64.25 14.890625 -63.625 16.234375 -62.375 C 17.578125 -61.125 18.25 -59.617188 18.25 -57.859375 C 18.25 -56.097656 17.578125 -54.585938 16.234375 -53.328125 C 14.890625 -52.078125 13.28125 -51.453125 11.40625 -51.453125 Z M 11.40625 -51.453125 "/></g></g></g><g fill="#ffffff" fill-opacity="1"><g transform="translate(164.008889, 134.118257)"><g><path d="M 25.640625 0.890625 C 20.972656 0.890625 16.960938 -0.101562 13.609375 -2.09375 C 10.253906 -4.082031 7.679688 -6.847656 5.890625 -10.390625 C 4.097656 -13.929688 3.203125 -18.003906 3.203125 -22.609375 C 3.203125 -27.273438 4.109375 -31.375 5.921875 -34.90625 C 7.734375 -38.4375 10.3125 -41.195312 13.65625 -43.1875 C 17 -45.175781 20.972656 -46.171875 25.578125 -46.171875 C 29.554688 -46.171875 33.039062 -45.445312 36.03125 -44 C 39.03125 -42.5625 41.394531 -40.535156 43.125 -37.921875 C 44.863281 -35.304688 45.820312 -32.238281 46 -28.71875 L 34.0625 -28.71875 C 33.726562 -31 32.84375 -32.835938 31.40625 -34.234375 C 29.976562 -35.628906 28.101562 -36.328125 25.78125 -36.328125 C 22.851562 -36.328125 20.5 -35.148438 18.71875 -32.796875 C 16.9375 -30.441406 16.046875 -27.109375 16.046875 -22.796875 C 16.046875 -18.441406 16.929688 -15.070312 18.703125 -12.6875 C 20.472656 -10.300781 22.832031 -9.109375 25.78125 -9.109375 C 27.957031 -9.109375 29.785156 -9.765625 31.265625 -11.078125 C 32.753906 -12.398438 33.6875 -14.273438 34.0625 -16.703125 L 46 -16.703125 C 45.800781 -13.222656 44.851562 -10.15625 43.15625 -7.5 C 41.46875 -4.851562 39.140625 -2.789062 36.171875 -1.3125 C 33.203125 0.15625 29.691406 0.890625 25.640625 0.890625 Z M 25.640625 0.890625 "/></g></g></g><g fill="#ffffff" fill-opacity="1"><g transform="translate(-1.013922, 65.653738)"><g><path d="M 5.28125 -60.765625 L 21.125 -60.765625 L 37.859375 -19.9375 L 38.578125 -19.9375 L 55.3125 -60.765625 L 71.15625 -60.765625 L 71.15625 0 L 58.703125 0 L 58.703125 -39.5625 L 58.1875 -39.5625 L 42.46875 -0.296875 L 33.984375 -0.296875 L 18.25 -39.703125 L 17.75 -39.703125 L 17.75 0 L 5.28125 0 Z M 5.28125 -60.765625 "/></g></g></g><g fill="#ffffff" fill-opacity="1"><g transform="translate(72.599957, 65.653738)"><g><path d="M 5.046875 0 L 5.046875 -45.578125 L 17.6875 -45.578125 L 17.6875 0 Z M 11.40625 -51.453125 C 9.539062 -51.453125 7.9375 -52.078125 6.59375 -53.328125 C 5.25 -54.585938 4.578125 -56.097656 4.578125 -57.859375 C 4.578125 -59.617188 5.25 -61.125 6.59375 -62.375 C 7.9375 -63.625 9.539062 -64.25 11.40625 -64.25 C 13.28125 -64.25 14.890625 -63.625 16.234375 -62.375 C 17.578125 -61.125 18.25 -59.617188 18.25 -57.859375 C 18.25 -56.097656 17.578125 -54.585938 16.234375 -53.328125 C 14.890625 -52.078125 13.28125 -51.453125 11.40625 -51.453125 Z M 11.40625 -51.453125 "/></g></g></g><g fill="#ffffff" fill-opacity="1"><g transform="translate(91.735752, 65.653738)"><g><path d="M 5.28125 0 L 5.28125 -60.765625 L 29.265625 -60.765625 C 33.867188 -60.765625 37.789062 -59.890625 41.03125 -58.140625 C 44.28125 -56.390625 46.757812 -53.96875 48.46875 -50.875 C 50.1875 -47.78125 51.046875 -44.210938 51.046875 -40.171875 C 51.046875 -36.140625 50.171875 -32.582031 48.421875 -29.5 C 46.679688 -26.425781 44.164062 -24.023438 40.875 -22.296875 C 37.582031 -20.566406 33.601562 -19.703125 28.9375 -19.703125 L 18.125 -19.703125 L 18.125 0 Z M 18.125 -30 L 26.859375 -30 C 30.535156 -30 33.28125 -30.941406 35.09375 -32.828125 C 36.90625 -34.722656 37.8125 -37.171875 37.8125 -40.171875 C 37.8125 -43.203125 36.90625 -45.640625 35.09375 -47.484375 C 33.28125 -49.335938 30.515625 -50.265625 26.796875 -50.265625 L 18.125 -50.265625 Z M 18.125 -30 "/></g></g></g><g fill="#ffffff" fill-opacity="1"><g transform="translate(142.264698, 65.653738)"><g><path d="M 25.8125 0.890625 C 21.144531 0.890625 17.117188 -0.0625 13.734375 -1.96875 C 10.359375 -3.882812 7.757812 -6.597656 5.9375 -10.109375 C 4.113281 -13.617188 3.203125 -17.773438 3.203125 -22.578125 C 3.203125 -27.265625 4.113281 -31.378906 5.9375 -34.921875 C 7.757812 -38.460938 10.328125 -41.222656 13.640625 -43.203125 C 16.953125 -45.179688 20.84375 -46.171875 25.3125 -46.171875 C 29.332031 -46.171875 32.957031 -45.316406 36.1875 -43.609375 C 39.425781 -41.910156 41.992188 -39.34375 43.890625 -35.90625 C 45.785156 -32.476562 46.734375 -28.1875 46.734375 -23.03125 L 46.734375 -19.5625 L 15.703125 -19.5625 L 15.703125 -19.53125 C 15.703125 -16.125 16.628906 -13.441406 18.484375 -11.484375 C 20.347656 -9.523438 22.863281 -8.546875 26.03125 -8.546875 C 28.144531 -8.546875 29.972656 -8.988281 31.515625 -9.875 C 33.054688 -10.769531 34.144531 -12.085938 34.78125 -13.828125 L 46.46875 -13.0625 C 45.582031 -8.820312 43.328125 -5.4375 39.703125 -2.90625 C 36.085938 -0.375 31.457031 0.890625 25.8125 0.890625 Z M 15.703125 -27.390625 L 34.84375 -27.390625 C 34.820312 -30.097656 33.945312 -32.332031 32.21875 -34.09375 C 30.5 -35.851562 28.265625 -36.734375 25.515625 -36.734375 C 22.710938 -36.734375 20.410156 -35.820312 18.609375 -34 C 16.804688 -32.1875 15.835938 -29.984375 15.703125 -27.390625 Z M 15.703125 -27.390625 "/></g></g></g><g fill="#ffffff" fill-opacity="1"><g transform="translate(188.609872, 65.653738)"><g><path d="M 29.28125 -45.578125 L 29.28125 -36.078125 L 20.71875 -36.078125 L 20.71875 -14 C 20.71875 -12.257812 21.113281 -11.082031 21.90625 -10.46875 C 22.695312 -9.863281 23.722656 -9.5625 24.984375 -9.5625 C 25.578125 -9.5625 26.171875 -9.613281 26.765625 -9.71875 C 27.359375 -9.820312 27.8125 -9.90625 28.125 -9.96875 L 30.125 -0.5625 C 29.488281 -0.363281 28.597656 -0.132812 27.453125 0.125 C 26.304688 0.394531 24.910156 0.5625 23.265625 0.625 C 18.671875 0.820312 14.984375 -0.171875 12.203125 -2.359375 C 9.429688 -4.546875 8.054688 -7.875 8.078125 -12.34375 L 8.078125 -36.078125 L 1.84375 -36.078125 L 1.84375 -45.578125 L 8.078125 -45.578125 L 8.078125 -56.5 L 20.71875 -56.5 L 20.71875 -45.578125 Z M 29.28125 -45.578125 "/></g></g></g></svg>