<svg xmlns="http://www.w3.org/2000/svg" xmlns:xlink="http://www.w3.org/1999/xlink" width="1550" zoomAndPan="magnify" viewBox="0 0 1162.5 223.499994" height="298" preserveAspectRatio="xMidYMid meet" version="1.0"><defs><g/><clipPath id="cc88ff70e4"><path d="M 1.046875 46 L 66 46 L 66 176 L 1.046875 176 Z M 1.046875 46 " clip-rule="nonzero"/></clipPath><clipPath id="3bca389553"><path d="M 1127 77 L 1160.953125 77 L 1160.953125 177 L 1127 177 Z M 1127 77 " clip-rule="nonzero"/></clipPath></defs><g clip-path="url(#cc88ff70e4)"><g fill="#1b1b29" fill-opacity="1"><g transform="translate(-62.777426, 175.172632)"><g><path d="M 34.546875 -129.125 L 65.765625 -31.015625 L 66.953125 -31.015625 L 98.234375 -129.125 L 128.5 -129.125 L 83.984375 0 L 48.796875 0 L 4.21875 -129.125 Z M 34.546875 -129.125 "/></g></g></g></g><g fill="#1b1b29" fill-opacity="1"><g transform="translate(62.362648, 175.172632)"><g><path d="M 54.859375 1.890625 C 44.929688 1.890625 36.375 -0.132812 29.1875 -4.1875 C 22 -8.25 16.472656 -14.007812 12.609375 -21.46875 C 8.742188 -28.925781 6.8125 -37.765625 6.8125 -47.984375 C 6.8125 -57.941406 8.742188 -66.679688 12.609375 -74.203125 C 16.472656 -81.734375 21.925781 -87.597656 28.96875 -91.796875 C 36.007812 -96.003906 44.28125 -98.109375 53.78125 -98.109375 C 62.3125 -98.109375 70.015625 -96.300781 76.890625 -92.6875 C 83.765625 -89.070312 89.21875 -83.613281 93.25 -76.3125 C 97.28125 -69.019531 99.296875 -59.890625 99.296875 -48.921875 L 99.296875 -41.546875 L 33.359375 -41.546875 L 33.359375 -41.484375 C 33.359375 -34.253906 35.332031 -28.554688 39.28125 -24.390625 C 43.226562 -20.234375 48.566406 -18.15625 55.296875 -18.15625 C 59.796875 -18.15625 63.679688 -19.097656 66.953125 -20.984375 C 70.234375 -22.878906 72.546875 -25.675781 73.890625 -29.375 L 98.734375 -27.734375 C 96.835938 -18.742188 92.046875 -11.554688 84.359375 -6.171875 C 76.671875 -0.796875 66.835938 1.890625 54.859375 1.890625 Z M 33.359375 -58.1875 L 74.015625 -58.1875 C 73.972656 -63.945312 72.125 -68.695312 68.46875 -72.4375 C 64.8125 -76.1875 60.0625 -78.0625 54.21875 -78.0625 C 48.25 -78.0625 43.351562 -76.125 39.53125 -72.25 C 35.707031 -68.382812 33.648438 -63.695312 33.359375 -58.1875 Z M 33.359375 -58.1875 "/></g></g></g><g fill="#1b1b29" fill-opacity="1"><g transform="translate(160.834355, 175.172632)"><g><path d="M 62.234375 -96.84375 L 62.234375 -76.671875 L 44.015625 -76.671875 L 44.015625 -29.765625 C 44.015625 -26.066406 44.851562 -23.5625 46.53125 -22.25 C 48.207031 -20.945312 50.394531 -20.296875 53.09375 -20.296875 C 54.351562 -20.296875 55.613281 -20.410156 56.875 -20.640625 C 58.132812 -20.878906 59.097656 -21.0625 59.765625 -21.1875 L 64 -1.203125 C 62.65625 -0.773438 60.757812 -0.28125 58.3125 0.28125 C 55.875 0.851562 52.914062 1.203125 49.4375 1.328125 C 39.675781 1.742188 31.84375 -0.367188 25.9375 -5.015625 C 20.039062 -9.660156 17.113281 -16.734375 17.15625 -26.234375 L 17.15625 -76.671875 L 3.90625 -76.671875 L 3.90625 -96.84375 L 17.15625 -96.84375 L 17.15625 -120.046875 L 44.015625 -120.046875 L 44.015625 -96.84375 Z M 62.234375 -96.84375 "/></g></g></g><g fill="#1b1b29" fill-opacity="1"><g transform="translate(222.17208, 175.172632)"><g/></g></g><g fill="#1b1b29" fill-opacity="1"><g transform="translate(255.706594, 175.172632)"><g><path d="M 11.21875 0 L 11.21875 -129.125 L 62.171875 -129.125 C 76.835938 -129.125 88.210938 -125.296875 96.296875 -117.640625 C 104.390625 -109.992188 108.4375 -99.757812 108.4375 -86.9375 C 108.4375 -78.113281 106.472656 -70.570312 102.546875 -64.3125 C 98.617188 -58.050781 92.976562 -53.34375 85.625 -50.1875 L 113.046875 0 L 82.90625 0 L 58.453125 -45.78125 L 38.515625 -45.78125 L 38.515625 0 Z M 38.515625 -67.71875 L 57.0625 -67.71875 C 72.570312 -67.71875 80.328125 -74.125 80.328125 -86.9375 C 80.328125 -100.1875 72.53125 -106.8125 56.9375 -106.8125 L 38.515625 -106.8125 Z M 38.515625 -67.71875 "/></g></g></g><g fill="#1b1b29" fill-opacity="1"><g transform="translate(364.580861, 175.172632)"><g><path d="M 72.828125 -41.234375 L 72.828125 -96.84375 L 99.6875 -96.84375 L 99.6875 0 L 73.890625 0 L 73.890625 -17.59375 L 72.890625 -17.59375 C 70.703125 -11.914062 67.070312 -7.351562 62 -3.90625 C 56.9375 -0.457031 50.769531 1.265625 43.5 1.265625 C 33.75 1.265625 25.859375 -1.976562 19.828125 -8.46875 C 13.796875 -14.96875 10.757812 -23.875 10.71875 -35.1875 L 10.71875 -96.84375 L 37.578125 -96.84375 L 37.578125 -39.96875 C 37.617188 -34.257812 39.148438 -29.742188 42.171875 -26.421875 C 45.203125 -23.097656 49.257812 -21.4375 54.34375 -21.4375 C 59.175781 -21.4375 63.472656 -23.117188 67.234375 -26.484375 C 71.003906 -29.847656 72.867188 -34.765625 72.828125 -41.234375 Z M 72.828125 -41.234375 "/></g></g></g><g fill="#1b1b29" fill-opacity="1"><g transform="translate(467.339698, 175.172632)"><g><path d="M 10.71875 0 L 10.71875 -96.84375 L 36.3125 -96.84375 L 36.3125 -79.75 L 37.453125 -79.75 C 39.472656 -85.46875 42.84375 -89.957031 47.5625 -93.21875 C 52.289062 -96.476562 57.914062 -98.109375 64.4375 -98.109375 C 71.070312 -98.109375 76.722656 -96.457031 81.390625 -93.15625 C 86.054688 -89.851562 89.171875 -85.382812 90.734375 -79.75 L 91.734375 -79.75 C 93.710938 -85.300781 97.296875 -89.75 102.484375 -93.09375 C 107.671875 -96.4375 113.816406 -98.109375 120.921875 -98.109375 C 129.960938 -98.109375 137.304688 -95.238281 142.953125 -89.5 C 148.609375 -83.757812 151.4375 -75.632812 151.4375 -65.125 L 151.4375 0 L 124.65625 0 L 124.65625 -59.828125 C 124.65625 -65.210938 123.222656 -69.25 120.359375 -71.9375 C 117.503906 -74.625 113.929688 -75.96875 109.640625 -75.96875 C 104.765625 -75.96875 100.957031 -74.410156 98.21875 -71.296875 C 95.488281 -68.191406 94.125 -64.140625 94.125 -59.140625 L 94.125 0 L 68.09375 0 L 68.09375 -60.40625 C 68.09375 -65.15625 66.734375 -68.9375 64.015625 -71.75 C 61.304688 -74.5625 57.75 -75.96875 53.34375 -75.96875 C 48.882812 -75.96875 45.140625 -74.335938 42.109375 -71.078125 C 39.085938 -67.828125 37.578125 -63.507812 37.578125 -58.125 L 37.578125 0 Z M 10.71875 0 "/></g></g></g><g fill="#1b1b29" fill-opacity="1"><g transform="translate(621.60695, 175.172632)"><g><path d="M 10.71875 0 L 10.71875 -96.84375 L 37.578125 -96.84375 L 37.578125 0 Z M 24.203125 -109.328125 C 20.253906 -109.328125 16.847656 -110.660156 13.984375 -113.328125 C 11.128906 -115.992188 9.703125 -119.203125 9.703125 -122.953125 C 9.703125 -126.691406 11.128906 -129.882812 13.984375 -132.53125 C 16.847656 -135.175781 20.253906 -136.5 24.203125 -136.5 C 28.203125 -136.5 31.628906 -135.175781 34.484375 -132.53125 C 37.347656 -129.882812 38.78125 -126.691406 38.78125 -122.953125 C 38.78125 -119.203125 37.347656 -115.992188 34.484375 -113.328125 C 31.628906 -110.660156 28.203125 -109.328125 24.203125 -109.328125 Z M 24.203125 -109.328125 "/></g></g></g><g fill="#1b1b29" fill-opacity="1"><g transform="translate(662.265623, 175.172632)"><g><path d="M 10.71875 36.3125 L 10.71875 -96.84375 L 37.203125 -96.84375 L 37.203125 -80.578125 L 38.390625 -80.578125 C 39.609375 -83.222656 41.332031 -85.890625 43.5625 -88.578125 C 45.789062 -91.273438 48.734375 -93.535156 52.390625 -95.359375 C 56.046875 -97.191406 60.566406 -98.109375 65.953125 -98.109375 C 73.054688 -98.109375 79.570312 -96.269531 85.5 -92.59375 C 91.425781 -88.914062 96.1875 -83.382812 99.78125 -76 C 103.375 -68.625 105.171875 -59.390625 105.171875 -48.296875 C 105.171875 -37.492188 103.425781 -28.378906 99.9375 -20.953125 C 96.445312 -13.535156 91.738281 -7.925781 85.8125 -4.125 C 79.882812 -0.320312 73.242188 1.578125 65.890625 1.578125 C 60.671875 1.578125 56.242188 0.71875 52.609375 -1 C 48.972656 -2.726562 46.007812 -4.90625 43.71875 -7.53125 C 41.425781 -10.15625 39.648438 -12.816406 38.390625 -15.515625 L 37.578125 -15.515625 L 37.578125 36.3125 Z M 37.015625 -48.421875 C 37.015625 -39.804688 38.789062 -32.878906 42.34375 -27.640625 C 45.894531 -22.410156 50.90625 -19.796875 57.375 -19.796875 C 63.976562 -19.796875 69.019531 -22.453125 72.5 -27.765625 C 75.988281 -33.085938 77.734375 -39.972656 77.734375 -48.421875 C 77.734375 -56.828125 76 -63.644531 72.53125 -68.875 C 69.070312 -74.113281 64.019531 -76.734375 57.375 -76.734375 C 50.863281 -76.734375 45.84375 -74.175781 42.3125 -69.0625 C 38.78125 -63.957031 37.015625 -57.078125 37.015625 -48.421875 Z M 37.015625 -48.421875 "/></g></g></g><g fill="#1b1b29" fill-opacity="1"><g transform="translate(766.915803, 175.172632)"><g><path d="M 38.328125 1.828125 C 29.085938 1.828125 21.414062 -0.585938 15.3125 -5.421875 C 9.21875 -10.253906 6.171875 -17.460938 6.171875 -27.046875 C 6.171875 -34.273438 7.875 -39.945312 11.28125 -44.0625 C 14.6875 -48.1875 19.148438 -51.203125 24.671875 -53.109375 C 30.203125 -55.023438 36.164062 -56.28125 42.5625 -56.875 C 50.96875 -57.707031 56.976562 -58.585938 60.59375 -59.515625 C 64.207031 -60.441406 66.015625 -62.460938 66.015625 -65.578125 L 66.015625 -65.953125 C 66.015625 -69.941406 64.765625 -73.03125 62.265625 -75.21875 C 59.765625 -77.40625 56.222656 -78.5 51.640625 -78.5 C 46.804688 -78.5 42.957031 -77.445312 40.09375 -75.34375 C 37.238281 -73.238281 35.347656 -70.570312 34.421875 -67.34375 L 9.578125 -69.359375 C 11.429688 -78.179688 16.023438 -85.175781 23.359375 -90.34375 C 30.691406 -95.519531 40.160156 -98.109375 51.765625 -98.109375 C 58.953125 -98.109375 65.675781 -96.972656 71.9375 -94.703125 C 78.195312 -92.429688 83.25 -88.890625 87.09375 -84.078125 C 90.945312 -79.265625 92.875 -73.007812 92.875 -65.3125 L 92.875 0 L 67.40625 0 L 67.40625 -13.421875 L 66.640625 -13.421875 C 64.285156 -8.929688 60.765625 -5.265625 56.078125 -2.421875 C 51.390625 0.410156 45.472656 1.828125 38.328125 1.828125 Z M 46.03125 -16.703125 C 51.914062 -16.703125 56.75 -18.414062 60.53125 -21.84375 C 64.3125 -25.269531 66.203125 -29.523438 66.203125 -34.609375 L 66.203125 -44.890625 C 65.148438 -44.171875 63.519531 -43.539062 61.3125 -43 C 59.101562 -42.457031 56.75 -41.984375 54.25 -41.578125 C 51.75 -41.179688 49.515625 -40.835938 47.546875 -40.546875 C 42.835938 -39.867188 39.039062 -38.539062 36.15625 -36.5625 C 33.28125 -34.59375 31.84375 -31.71875 31.84375 -27.9375 C 31.84375 -24.226562 33.175781 -21.425781 35.84375 -19.53125 C 38.507812 -17.644531 41.90625 -16.703125 46.03125 -16.703125 Z M 46.03125 -16.703125 "/></g></g></g><g fill="#1b1b29" fill-opacity="1"><g transform="translate(862.298252, 175.172632)"><g><path d="M 10.71875 0 L 10.71875 -96.84375 L 36.3125 -96.84375 L 36.3125 -79.75 L 37.453125 -79.75 C 39.472656 -85.46875 42.84375 -89.957031 47.5625 -93.21875 C 52.289062 -96.476562 57.914062 -98.109375 64.4375 -98.109375 C 71.070312 -98.109375 76.722656 -96.457031 81.390625 -93.15625 C 86.054688 -89.851562 89.171875 -85.382812 90.734375 -79.75 L 91.734375 -79.75 C 93.710938 -85.300781 97.296875 -89.75 102.484375 -93.09375 C 107.671875 -96.4375 113.816406 -98.109375 120.921875 -98.109375 C 129.960938 -98.109375 137.304688 -95.238281 142.953125 -89.5 C 148.609375 -83.757812 151.4375 -75.632812 151.4375 -65.125 L 151.4375 0 L 124.65625 0 L 124.65625 -59.828125 C 124.65625 -65.210938 123.222656 -69.25 120.359375 -71.9375 C 117.503906 -74.625 113.929688 -75.96875 109.640625 -75.96875 C 104.765625 -75.96875 100.957031 -74.410156 98.21875 -71.296875 C 95.488281 -68.191406 94.125 -64.140625 94.125 -59.140625 L 94.125 0 L 68.09375 0 L 68.09375 -60.40625 C 68.09375 -65.15625 66.734375 -68.9375 64.015625 -71.75 C 61.304688 -74.5625 57.75 -75.96875 53.34375 -75.96875 C 48.882812 -75.96875 45.140625 -74.335938 42.109375 -71.078125 C 39.085938 -67.828125 37.578125 -63.507812 37.578125 -58.125 L 37.578125 0 Z M 10.71875 0 "/></g></g></g><g fill="#1b1b29" fill-opacity="1"><g transform="translate(1016.565441, 175.172632)"><g><path d="M 11.21875 0 L 11.21875 -129.125 L 38.078125 -129.125 L 38.078125 -80.578125 L 38.90625 -80.578125 C 40.125 -83.222656 41.84375 -85.890625 44.0625 -88.578125 C 46.289062 -91.273438 49.234375 -93.535156 52.890625 -95.359375 C 56.554688 -97.191406 61.078125 -98.109375 66.453125 -98.109375 C 73.554688 -98.109375 80.070312 -96.269531 86 -92.59375 C 91.925781 -88.914062 96.6875 -83.382812 100.28125 -76 C 103.875 -68.625 105.671875 -59.390625 105.671875 -48.296875 C 105.671875 -37.492188 103.925781 -28.378906 100.4375 -20.953125 C 96.945312 -13.535156 92.238281 -7.925781 86.3125 -4.125 C 80.382812 -0.320312 73.742188 1.578125 66.390625 1.578125 C 61.179688 1.578125 56.757812 0.71875 53.125 -1 C 49.488281 -2.726562 46.523438 -4.90625 44.234375 -7.53125 C 41.941406 -10.15625 40.164062 -12.816406 38.90625 -15.515625 L 37.703125 -15.515625 L 37.703125 0 Z M 37.515625 -48.421875 C 37.515625 -39.804688 39.289062 -32.878906 42.84375 -27.640625 C 46.394531 -22.410156 51.40625 -19.796875 57.875 -19.796875 C 64.476562 -19.796875 69.523438 -22.453125 73.015625 -27.765625 C 76.503906 -33.085938 78.25 -39.972656 78.25 -48.421875 C 78.25 -56.828125 76.515625 -63.644531 73.046875 -68.875 C 69.578125 -74.113281 64.519531 -76.734375 57.875 -76.734375 C 51.363281 -76.734375 46.34375 -74.175781 42.8125 -69.0625 C 39.28125 -63.957031 37.515625 -57.078125 37.515625 -48.421875 Z M 37.515625 -48.421875 "/></g></g></g><g clip-path="url(#3bca389553)"><g fill="#1b1b29" fill-opacity="1"><g transform="translate(1121.719954, 175.172632)"><g><path d="M 38.328125 1.828125 C 29.085938 1.828125 21.414062 -0.585938 15.3125 -5.421875 C 9.21875 -10.253906 6.171875 -17.460938 6.171875 -27.046875 C 6.171875 -34.273438 7.875 -39.945312 11.28125 -44.0625 C 14.6875 -48.1875 19.148438 -51.203125 24.671875 -53.109375 C 30.203125 -55.023438 36.164062 -56.28125 42.5625 -56.875 C 50.96875 -57.707031 56.976562 -58.585938 60.59375 -59.515625 C 64.207031 -60.441406 66.015625 -62.460938 66.015625 -65.578125 L 66.015625 -65.953125 C 66.015625 -69.941406 64.765625 -73.03125 62.265625 -75.21875 C 59.765625 -77.40625 56.222656 -78.5 51.640625 -78.5 C 46.804688 -78.5 42.957031 -77.445312 40.09375 -75.34375 C 37.238281 -73.238281 35.347656 -70.570312 34.421875 -67.34375 L 9.578125 -69.359375 C 11.429688 -78.179688 16.023438 -85.175781 23.359375 -90.34375 C 30.691406 -95.519531 40.160156 -98.109375 51.765625 -98.109375 C 58.953125 -98.109375 65.675781 -96.972656 71.9375 -94.703125 C 78.195312 -92.429688 83.25 -88.890625 87.09375 -84.078125 C 90.945312 -79.265625 92.875 -73.007812 92.875 -65.3125 L 92.875 0 L 67.40625 0 L 67.40625 -13.421875 L 66.640625 -13.421875 C 64.285156 -8.929688 60.765625 -5.265625 56.078125 -2.421875 C 51.390625 0.410156 45.472656 1.828125 38.328125 1.828125 Z M 46.03125 -16.703125 C 51.914062 -16.703125 56.75 -18.414062 60.53125 -21.84375 C 64.3125 -25.269531 66.203125 -29.523438 66.203125 -34.609375 L 66.203125 -44.890625 C 65.148438 -44.171875 63.519531 -43.539062 61.3125 -43 C 59.101562 -42.457031 56.75 -41.984375 54.25 -41.578125 C 51.75 -41.179688 49.515625 -40.835938 47.546875 -40.546875 C 42.835938 -39.867188 39.039062 -38.539062 36.15625 -36.5625 C 33.28125 -34.59375 31.84375 -31.71875 31.84375 -27.9375 C 31.84375 -24.226562 33.175781 -21.425781 35.84375 -19.53125 C 38.507812 -17.644531 41.90625 -16.703125 46.03125 -16.703125 Z M 46.03125 -16.703125 "/></g></g></g></g></svg>