<svg xmlns="http://www.w3.org/2000/svg" xmlns:xlink="http://www.w3.org/1999/xlink" width="581" zoomAndPan="magnify" viewBox="0 0 435.75 149.999998" height="200" preserveAspectRatio="xMidYMid meet" version="1.0"><defs><g/><clipPath id="c8cfe5e498"><path d="M 0 0.0429688 L 435.5 0.0429688 L 435.5 149.957031 L 0 149.957031 Z M 0 0.0429688 " clip-rule="nonzero"/></clipPath><clipPath id="afca18f8ac"><path d="M 386 21 L 435.5 21 L 435.5 133 L 386 133 Z M 386 21 " clip-rule="nonzero"/></clipPath></defs><g clip-path="url(#c8cfe5e498)"><path fill="#ffffff" d="M 0 0.0429688 L 435.5 0.0429688 L 435.5 149.957031 L 0 149.957031 Z M 0 0.0429688 " fill-opacity="1" fill-rule="nonzero"/><path fill="#ffffff" d="M 0 0.0429688 L 435.5 0.0429688 L 435.5 149.957031 L 0 149.957031 Z M 0 0.0429688 " fill-opacity="1" fill-rule="nonzero"/></g><g fill="#393939" fill-opacity="1"><g transform="translate(-14.509726, 130.469428)"><g><path d="M 10.203125 -117.46875 L 40.84375 -117.46875 L 73.1875 -38.546875 L 74.5625 -38.546875 L 106.90625 -117.46875 L 137.546875 -117.46875 L 137.546875 0 L 113.453125 0 L 113.453125 -76.453125 L 112.46875 -76.453125 L 82.078125 -0.578125 L 65.671875 -0.578125 L 35.28125 -76.75 L 34.296875 -76.75 L 34.296875 0 L 10.203125 0 Z M 10.203125 -117.46875 "/></g></g></g><g fill="#393939" fill-opacity="1"><g transform="translate(127.777189, 130.469428)"><g><path d="M 9.75 0 L 9.75 -88.09375 L 34.1875 -88.09375 L 34.1875 0 Z M 22.03125 -99.453125 C 18.4375 -99.453125 15.335938 -100.664062 12.734375 -103.09375 C 10.140625 -105.519531 8.84375 -108.4375 8.84375 -111.84375 C 8.84375 -115.25 10.140625 -118.15625 12.734375 -120.5625 C 15.335938 -122.96875 18.4375 -124.171875 22.03125 -124.171875 C 25.664062 -124.171875 28.78125 -122.96875 31.375 -120.5625 C 33.976562 -118.15625 35.28125 -115.25 35.28125 -111.84375 C 35.28125 -108.4375 33.976562 -105.519531 31.375 -103.09375 C 28.78125 -100.664062 25.664062 -99.453125 22.03125 -99.453125 Z M 22.03125 -99.453125 "/></g></g></g><g fill="#393939" fill-opacity="1"><g transform="translate(164.764417, 130.469428)"><g/></g></g><g fill="#393939" fill-opacity="1"><g transform="translate(195.270783, 130.469428)"><g><path d="M 10.203125 0 L 10.203125 -117.46875 L 56.546875 -117.46875 C 65.460938 -117.46875 73.054688 -115.773438 79.328125 -112.390625 C 85.597656 -109.003906 90.382812 -104.316406 93.6875 -98.328125 C 97 -92.347656 98.65625 -85.457031 98.65625 -77.65625 C 98.65625 -69.851562 96.972656 -62.976562 93.609375 -57.03125 C 90.242188 -51.09375 85.375 -46.445312 79 -43.09375 C 72.632812 -39.75 64.941406 -38.078125 55.921875 -38.078125 L 35.046875 -38.078125 L 35.046875 0 Z M 35.046875 -57.984375 L 51.90625 -57.984375 C 59.019531 -57.984375 64.328125 -59.804688 67.828125 -63.453125 C 71.328125 -67.109375 73.078125 -71.84375 73.078125 -77.65625 C 73.078125 -83.507812 71.328125 -88.222656 67.828125 -91.796875 C 64.328125 -95.367188 58.984375 -97.15625 51.796875 -97.15625 L 35.046875 -97.15625 Z M 35.046875 -57.984375 "/></g></g></g><g fill="#393939" fill-opacity="1"><g transform="translate(292.937268, 130.469428)"><g><path d="M 49.90625 1.71875 C 40.875 1.71875 33.085938 -0.125 26.546875 -3.8125 C 20.015625 -7.5 14.988281 -12.734375 11.46875 -19.515625 C 7.945312 -26.304688 6.1875 -34.347656 6.1875 -43.640625 C 6.1875 -52.703125 7.945312 -60.65625 11.46875 -67.5 C 14.988281 -74.351562 19.953125 -79.691406 26.359375 -83.515625 C 32.765625 -87.335938 40.285156 -89.25 48.921875 -89.25 C 56.679688 -89.25 63.6875 -87.601562 69.9375 -84.3125 C 76.195312 -81.019531 81.160156 -76.054688 84.828125 -69.421875 C 88.503906 -62.796875 90.34375 -54.492188 90.34375 -44.515625 L 90.34375 -37.796875 L 30.34375 -37.796875 L 30.34375 -37.734375 C 30.34375 -31.160156 32.140625 -25.976562 35.734375 -22.1875 C 39.328125 -18.40625 44.179688 -16.515625 50.296875 -16.515625 C 54.390625 -16.515625 57.925781 -17.375 60.90625 -19.09375 C 63.894531 -20.820312 66 -23.367188 67.21875 -26.734375 L 89.8125 -25.234375 C 88.09375 -17.054688 83.734375 -10.519531 76.734375 -5.625 C 69.742188 -0.726562 60.800781 1.71875 49.90625 1.71875 Z M 30.34375 -52.9375 L 67.34375 -52.9375 C 67.300781 -58.175781 65.613281 -62.492188 62.28125 -65.890625 C 58.957031 -69.296875 54.640625 -71 49.328125 -71 C 43.898438 -71 39.445312 -69.238281 35.96875 -65.71875 C 32.488281 -62.207031 30.613281 -57.945312 30.34375 -52.9375 Z M 30.34375 -52.9375 "/></g></g></g><g clip-path="url(#afca18f8ac)"><g fill="#393939" fill-opacity="1"><g transform="translate(382.516976, 130.469428)"><g><path d="M 56.609375 -88.09375 L 56.609375 -69.75 L 40.03125 -69.75 L 40.03125 -27.078125 C 40.03125 -23.710938 40.796875 -21.4375 42.328125 -20.25 C 43.859375 -19.0625 45.847656 -18.46875 48.296875 -18.46875 C 49.441406 -18.46875 50.585938 -18.570312 51.734375 -18.78125 C 52.878906 -18.988281 53.757812 -19.148438 54.375 -19.265625 L 58.21875 -1.09375 C 56.988281 -0.707031 55.265625 -0.257812 53.046875 0.25 C 50.835938 0.769531 48.144531 1.085938 44.96875 1.203125 C 36.09375 1.585938 28.96875 -0.328125 23.59375 -4.546875 C 18.226562 -8.773438 15.5625 -15.210938 15.59375 -23.859375 L 15.59375 -69.75 L 3.5625 -69.75 L 3.5625 -88.09375 L 15.59375 -88.09375 L 15.59375 -109.203125 L 40.03125 -109.203125 L 40.03125 -88.09375 Z M 56.609375 -88.09375 "/></g></g></g></g></svg>