<svg xmlns="http://www.w3.org/2000/svg" xmlns:xlink="http://www.w3.org/1999/xlink" width="581" zoomAndPan="magnify" viewBox="0 0 435.75 217.499994" height="290" preserveAspectRatio="xMidYMid meet" version="1.0"><defs><g/></defs><g fill="#0d1525" fill-opacity="1"><g transform="translate(-2.406306, 100.269488)"><g><path d="M 8.171875 -94.078125 L 32.703125 -94.078125 L 58.609375 -30.875 L 59.71875 -30.875 L 85.625 -94.078125 L 110.15625 -94.078125 L 110.15625 0 L 90.859375 0 L 90.859375 -61.234375 L 90.078125 -61.234375 L 65.734375 -0.453125 L 52.59375 -0.453125 L 28.25 -61.46875 L 27.46875 -61.46875 L 27.46875 0 L 8.171875 0 Z M 8.171875 -94.078125 "/></g></g></g><g fill="#0d1525" fill-opacity="1"><g transform="translate(111.559182, 100.269488)"><g><path d="M 7.8125 0 L 7.8125 -70.5625 L 27.375 -70.5625 L 27.375 0 Z M 17.640625 -79.65625 C 14.765625 -79.65625 12.285156 -80.625 10.203125 -82.5625 C 8.117188 -84.507812 7.078125 -86.847656 7.078125 -89.578125 C 7.078125 -92.304688 8.117188 -94.632812 10.203125 -96.5625 C 12.285156 -98.488281 14.765625 -99.453125 17.640625 -99.453125 C 20.554688 -99.453125 23.054688 -98.488281 25.140625 -96.5625 C 27.222656 -94.632812 28.265625 -92.304688 28.265625 -89.578125 C 28.265625 -86.847656 27.222656 -84.507812 25.140625 -82.5625 C 23.054688 -80.625 20.554688 -79.65625 17.640625 -79.65625 Z M 17.640625 -79.65625 "/></g></g></g><g fill="#0d1525" fill-opacity="1"><g transform="translate(141.184306, 100.269488)"><g/></g></g><g fill="#0d1525" fill-opacity="1"><g transform="translate(165.618547, 100.269488)"><g><path d="M 7.8125 26.453125 L 7.8125 -70.5625 L 27.109375 -70.5625 L 27.109375 -58.703125 L 27.96875 -58.703125 C 28.863281 -60.640625 30.117188 -62.585938 31.734375 -64.546875 C 33.359375 -66.503906 35.503906 -68.148438 38.171875 -69.484375 C 40.835938 -70.816406 44.128906 -71.484375 48.046875 -71.484375 C 53.222656 -71.484375 57.96875 -70.140625 62.28125 -67.453125 C 66.601562 -64.773438 70.070312 -60.75 72.6875 -55.375 C 75.3125 -50 76.625 -43.269531 76.625 -35.1875 C 76.625 -27.3125 75.351562 -20.671875 72.8125 -15.265625 C 70.269531 -9.867188 66.835938 -5.785156 62.515625 -3.015625 C 58.203125 -0.242188 53.363281 1.140625 48 1.140625 C 44.207031 1.140625 40.984375 0.515625 38.328125 -0.734375 C 35.679688 -1.992188 33.523438 -3.578125 31.859375 -5.484375 C 30.191406 -7.398438 28.894531 -9.335938 27.96875 -11.296875 L 27.375 -11.296875 L 27.375 26.453125 Z M 26.96875 -35.28125 C 26.96875 -29 28.257812 -23.953125 30.84375 -20.140625 C 33.4375 -16.328125 37.085938 -14.421875 41.796875 -14.421875 C 46.609375 -14.421875 50.285156 -16.359375 52.828125 -20.234375 C 55.367188 -24.109375 56.640625 -29.125 56.640625 -35.28125 C 56.640625 -41.40625 55.375 -46.375 52.84375 -50.1875 C 50.320312 -54 46.640625 -55.90625 41.796875 -55.90625 C 37.054688 -55.90625 33.398438 -54.046875 30.828125 -50.328125 C 28.253906 -46.609375 26.96875 -41.59375 26.96875 -35.28125 Z M 26.96875 -35.28125 "/></g></g></g><g fill="#0d1525" fill-opacity="1"><g transform="translate(241.869746, 100.269488)"><g><path d="M 39.96875 1.375 C 32.738281 1.375 26.503906 -0.0976562 21.265625 -3.046875 C 16.023438 -6.003906 12 -10.203125 9.1875 -15.640625 C 6.375 -21.078125 4.96875 -27.515625 4.96875 -34.953125 C 4.96875 -42.210938 6.375 -48.582031 9.1875 -54.0625 C 12 -59.550781 15.96875 -63.828125 21.09375 -66.890625 C 26.226562 -69.953125 32.257812 -71.484375 39.1875 -71.484375 C 45.40625 -71.484375 51.015625 -70.164062 56.015625 -67.53125 C 61.023438 -64.894531 65 -60.921875 67.9375 -55.609375 C 70.875 -50.296875 72.34375 -43.640625 72.34375 -35.640625 L 72.34375 -30.265625 L 24.296875 -30.265625 L 24.296875 -30.234375 C 24.296875 -24.960938 25.734375 -20.8125 28.609375 -17.78125 C 31.492188 -14.75 35.382812 -13.234375 40.28125 -13.234375 C 43.5625 -13.234375 46.394531 -13.921875 48.78125 -15.296875 C 51.175781 -16.671875 52.863281 -18.707031 53.84375 -21.40625 L 71.9375 -20.21875 C 70.5625 -13.65625 67.070312 -8.414062 61.46875 -4.5 C 55.863281 -0.582031 48.695312 1.375 39.96875 1.375 Z M 24.296875 -42.40625 L 53.9375 -42.40625 C 53.90625 -46.59375 52.554688 -50.050781 49.890625 -52.78125 C 47.222656 -55.507812 43.757812 -56.875 39.5 -56.875 C 35.15625 -56.875 31.585938 -55.460938 28.796875 -52.640625 C 26.015625 -49.828125 24.515625 -46.414062 24.296875 -42.40625 Z M 24.296875 -42.40625 "/></g></g></g><g fill="#0d1525" fill-opacity="1"><g transform="translate(313.61913, 100.269488)"><g><path d="M 45.34375 -70.5625 L 45.34375 -55.859375 L 32.0625 -55.859375 L 32.0625 -21.6875 C 32.0625 -18.988281 32.671875 -17.164062 33.890625 -16.21875 C 35.117188 -15.269531 36.710938 -14.796875 38.671875 -14.796875 C 39.597656 -14.796875 40.519531 -14.878906 41.4375 -15.046875 C 42.351562 -15.210938 43.054688 -15.34375 43.546875 -15.4375 L 46.625 -0.875 C 45.644531 -0.5625 44.265625 -0.203125 42.484375 0.203125 C 40.710938 0.617188 38.554688 0.875 36.015625 0.96875 C 28.910156 1.269531 23.207031 -0.269531 18.90625 -3.65625 C 14.601562 -7.039062 12.46875 -12.191406 12.5 -19.109375 L 12.5 -55.859375 L 2.84375 -55.859375 L 2.84375 -70.5625 L 12.5 -70.5625 L 12.5 -87.46875 L 32.0625 -87.46875 L 32.0625 -70.5625 Z M 45.34375 -70.5625 "/></g></g></g><g fill="#0d1525" fill-opacity="1"><g transform="translate(358.323003, 100.269488)"><g/></g></g><g fill="#0d1525" fill-opacity="1"><g transform="translate(-2.406306, 214.008012)"><g><path d="M 91.1875 -61.140625 L 71.0625 -61.140625 C 70.300781 -66.316406 68.097656 -70.378906 64.453125 -73.328125 C 60.804688 -76.285156 56.257812 -77.765625 50.8125 -77.765625 C 43.519531 -77.765625 37.675781 -75.09375 33.28125 -69.75 C 28.882812 -64.40625 26.6875 -56.835938 26.6875 -47.046875 C 26.6875 -36.992188 28.898438 -29.359375 33.328125 -24.140625 C 37.753906 -18.921875 43.535156 -16.3125 50.671875 -16.3125 C 55.960938 -16.3125 60.445312 -17.695312 64.125 -20.46875 C 67.800781 -23.238281 70.113281 -27.132812 71.0625 -32.15625 L 91.1875 -32.0625 C 90.476562 -26.300781 88.425781 -20.878906 85.03125 -15.796875 C 81.632812 -10.710938 77.015625 -6.59375 71.171875 -3.4375 C 65.335938 -0.289062 58.394531 1.28125 50.34375 1.28125 C 41.957031 1.28125 34.460938 -0.613281 27.859375 -4.40625 C 21.265625 -8.207031 16.054688 -13.707031 12.234375 -20.90625 C 8.421875 -28.101562 6.515625 -36.816406 6.515625 -47.046875 C 6.515625 -57.296875 8.441406 -66.019531 12.296875 -73.21875 C 16.160156 -80.414062 21.398438 -85.90625 28.015625 -89.6875 C 34.628906 -93.46875 42.070312 -95.359375 50.34375 -95.359375 C 57.601562 -95.359375 64.148438 -94.019531 69.984375 -91.34375 C 75.816406 -88.664062 80.59375 -84.773438 84.3125 -79.671875 C 88.039062 -74.578125 90.332031 -68.398438 91.1875 -61.140625 Z M 91.1875 -61.140625 "/></g></g></g><g fill="#0d1525" fill-opacity="1"><g transform="translate(89.328116, 214.008012)"><g><path d="M 27.375 -94.078125 L 27.375 0 L 7.8125 0 L 7.8125 -94.078125 Z M 27.375 -94.078125 "/></g></g></g><g fill="#0d1525" fill-opacity="1"><g transform="translate(118.95324, 214.008012)"><g><path d="M 7.8125 0 L 7.8125 -70.5625 L 27.375 -70.5625 L 27.375 0 Z M 17.640625 -79.65625 C 14.765625 -79.65625 12.285156 -80.625 10.203125 -82.5625 C 8.117188 -84.507812 7.078125 -86.847656 7.078125 -89.578125 C 7.078125 -92.304688 8.117188 -94.632812 10.203125 -96.5625 C 12.285156 -98.488281 14.765625 -99.453125 17.640625 -99.453125 C 20.554688 -99.453125 23.054688 -98.488281 25.140625 -96.5625 C 27.222656 -94.632812 28.265625 -92.304688 28.265625 -89.578125 C 28.265625 -86.847656 27.222656 -84.507812 25.140625 -82.5625 C 23.054688 -80.625 20.554688 -79.65625 17.640625 -79.65625 Z M 17.640625 -79.65625 "/></g></g></g><g fill="#0d1525" fill-opacity="1"><g transform="translate(148.578364, 214.008012)"><g><path d="M 27.375 -40.796875 L 27.375 0 L 7.8125 0 L 7.8125 -70.5625 L 26.453125 -70.5625 L 26.453125 -58.109375 L 27.28125 -58.109375 C 28.875 -62.210938 31.5 -65.46875 35.15625 -67.875 C 38.820312 -70.28125 43.273438 -71.484375 48.515625 -71.484375 C 55.859375 -71.484375 61.75 -69.113281 66.1875 -64.375 C 70.632812 -59.644531 72.859375 -53.160156 72.859375 -44.921875 L 72.859375 0 L 53.28125 0 L 53.28125 -41.4375 C 53.3125 -45.75 52.207031 -49.125 49.96875 -51.5625 C 47.738281 -54 44.664062 -55.21875 40.75 -55.21875 C 36.800781 -55.21875 33.59375 -53.953125 31.125 -51.421875 C 28.65625 -48.898438 27.40625 -45.359375 27.375 -40.796875 Z M 27.375 -40.796875 "/></g></g></g><g fill="#0d1525" fill-opacity="1"><g transform="translate(223.451452, 214.008012)"><g><path d="M 7.8125 0 L 7.8125 -70.5625 L 27.375 -70.5625 L 27.375 0 Z M 17.640625 -79.65625 C 14.765625 -79.65625 12.285156 -80.625 10.203125 -82.5625 C 8.117188 -84.507812 7.078125 -86.847656 7.078125 -89.578125 C 7.078125 -92.304688 8.117188 -94.632812 10.203125 -96.5625 C 12.285156 -98.488281 14.765625 -99.453125 17.640625 -99.453125 C 20.554688 -99.453125 23.054688 -98.488281 25.140625 -96.5625 C 27.222656 -94.632812 28.265625 -92.304688 28.265625 -89.578125 C 28.265625 -86.847656 27.222656 -84.507812 25.140625 -82.5625 C 23.054688 -80.625 20.554688 -79.65625 17.640625 -79.65625 Z M 17.640625 -79.65625 "/></g></g></g><g fill="#0d1525" fill-opacity="1"><g transform="translate(253.076576, 214.008012)"><g><path d="M 39.6875 1.375 C 32.457031 1.375 26.25 -0.160156 21.0625 -3.234375 C 15.875 -6.316406 11.894531 -10.597656 9.125 -16.078125 C 6.351562 -21.554688 4.96875 -27.863281 4.96875 -35 C 4.96875 -42.226562 6.367188 -48.578125 9.171875 -54.046875 C 11.972656 -59.515625 15.957031 -63.785156 21.125 -66.859375 C 26.300781 -69.941406 32.457031 -71.484375 39.59375 -71.484375 C 45.75 -71.484375 51.144531 -70.363281 55.78125 -68.125 C 60.425781 -65.882812 64.085938 -62.742188 66.765625 -58.703125 C 69.453125 -54.660156 70.929688 -49.914062 71.203125 -44.46875 L 52.734375 -44.46875 C 52.210938 -47.988281 50.84375 -50.828125 48.625 -52.984375 C 46.40625 -55.148438 43.503906 -56.234375 39.921875 -56.234375 C 35.390625 -56.234375 31.742188 -54.410156 28.984375 -50.765625 C 26.234375 -47.117188 24.859375 -41.957031 24.859375 -35.28125 C 24.859375 -28.539062 26.226562 -23.328125 28.96875 -19.640625 C 31.707031 -15.953125 35.359375 -14.109375 39.921875 -14.109375 C 43.285156 -14.109375 46.113281 -15.125 48.40625 -17.15625 C 50.707031 -19.195312 52.148438 -22.097656 52.734375 -25.859375 L 71.203125 -25.859375 C 70.898438 -20.472656 69.4375 -15.726562 66.8125 -11.625 C 64.195312 -7.519531 60.59375 -4.328125 56 -2.046875 C 51.40625 0.234375 45.96875 1.375 39.6875 1.375 Z M 39.6875 1.375 "/></g></g></g></svg>