<svg xmlns="http://www.w3.org/2000/svg" xmlns:xlink="http://www.w3.org/1999/xlink" width="581" zoomAndPan="magnify" viewBox="0 0 435.75 149.999998" height="200" preserveAspectRatio="xMidYMid meet" version="1.0"><defs><g/><clipPath id="ca577d01a4"><path d="M 382 50 L 435.5 50 L 435.5 114 L 382 114 Z M 382 50 " clip-rule="nonzero"/></clipPath></defs><g fill="#393939" fill-opacity="1"><g transform="translate(-9.49256, 112.211413)"><g><path d="M 7.046875 0 L 7.046875 -80.984375 L 38.984375 -80.984375 C 45.128906 -80.984375 50.363281 -79.816406 54.6875 -77.484375 C 59.007812 -75.148438 62.3125 -71.921875 64.59375 -67.796875 C 66.875 -63.671875 68.015625 -58.921875 68.015625 -53.546875 C 68.015625 -48.171875 66.851562 -43.429688 64.53125 -39.328125 C 62.21875 -35.222656 58.863281 -32.019531 54.46875 -29.71875 C 50.082031 -27.414062 44.78125 -26.265625 38.5625 -26.265625 L 24.15625 -26.265625 L 24.15625 0 Z M 24.15625 -39.984375 L 35.78125 -39.984375 C 40.6875 -39.984375 44.34375 -41.238281 46.75 -43.75 C 49.164062 -46.269531 50.375 -49.535156 50.375 -53.546875 C 50.375 -57.578125 49.164062 -60.820312 46.75 -63.28125 C 44.34375 -65.75 40.660156 -66.984375 35.703125 -66.984375 L 24.15625 -66.984375 Z M 24.15625 -39.984375 "/></g></g></g><g fill="#393939" fill-opacity="1"><g transform="translate(57.850369, 112.211413)"><g><path d="M 34.40625 1.1875 C 28.1875 1.1875 22.820312 -0.0820312 18.3125 -2.625 C 13.800781 -5.175781 10.332031 -8.789062 7.90625 -13.46875 C 5.476562 -18.144531 4.265625 -23.6875 4.265625 -30.09375 C 4.265625 -36.34375 5.476562 -41.828125 7.90625 -46.546875 C 10.332031 -51.265625 13.753906 -54.941406 18.171875 -57.578125 C 22.585938 -60.210938 27.773438 -61.53125 33.734375 -61.53125 C 39.085938 -61.53125 43.914062 -60.394531 48.21875 -58.125 C 52.53125 -55.863281 55.953125 -52.445312 58.484375 -47.875 C 61.015625 -43.300781 62.28125 -37.570312 62.28125 -30.6875 L 62.28125 -26.0625 L 20.921875 -26.0625 L 20.921875 -26.015625 C 20.921875 -21.484375 22.160156 -17.910156 24.640625 -15.296875 C 27.117188 -12.691406 30.46875 -11.390625 34.6875 -11.390625 C 37.5 -11.390625 39.929688 -11.984375 41.984375 -13.171875 C 44.046875 -14.359375 45.5 -16.109375 46.34375 -18.421875 L 61.921875 -17.40625 C 60.734375 -11.757812 57.726562 -7.25 52.90625 -3.875 C 48.082031 -0.5 41.914062 1.1875 34.40625 1.1875 Z M 20.921875 -36.5 L 46.421875 -36.5 C 46.398438 -40.113281 45.238281 -43.09375 42.9375 -45.4375 C 40.644531 -47.78125 37.671875 -48.953125 34.015625 -48.953125 C 30.265625 -48.953125 27.191406 -47.738281 24.796875 -45.3125 C 22.398438 -42.894531 21.109375 -39.957031 20.921875 -36.5 Z M 20.921875 -36.5 "/></g></g></g><g fill="#393939" fill-opacity="1"><g transform="translate(119.617328, 112.211413)"><g><path d="M 39.03125 -60.734375 L 39.03125 -48.09375 L 27.609375 -48.09375 L 27.609375 -18.671875 C 27.609375 -16.347656 28.132812 -14.773438 29.1875 -13.953125 C 30.238281 -13.140625 31.609375 -12.734375 33.296875 -12.734375 C 34.085938 -12.734375 34.878906 -12.804688 35.671875 -12.953125 C 36.460938 -13.097656 37.066406 -13.207031 37.484375 -13.28125 L 40.140625 -0.75 C 39.296875 -0.488281 38.109375 -0.179688 36.578125 0.171875 C 35.046875 0.535156 33.1875 0.753906 31 0.828125 C 24.882812 1.085938 19.972656 -0.234375 16.265625 -3.140625 C 12.566406 -6.054688 10.726562 -10.492188 10.75 -16.453125 L 10.75 -48.09375 L 2.453125 -48.09375 L 2.453125 -60.734375 L 10.75 -60.734375 L 10.75 -75.296875 L 27.609375 -75.296875 L 27.609375 -60.734375 Z M 39.03125 -60.734375 "/></g></g></g><g fill="#393939" fill-opacity="1"><g transform="translate(158.091777, 112.211413)"><g><path d="M 78.5 -52.640625 L 61.171875 -52.640625 C 60.515625 -57.085938 58.617188 -60.582031 55.484375 -63.125 C 52.347656 -65.675781 48.429688 -66.953125 43.734375 -66.953125 C 37.460938 -66.953125 32.429688 -64.648438 28.640625 -60.046875 C 24.859375 -55.453125 22.96875 -48.9375 22.96875 -40.5 C 22.96875 -31.851562 24.875 -25.28125 28.6875 -20.78125 C 32.5 -16.28125 37.476562 -14.03125 43.625 -14.03125 C 48.175781 -14.03125 52.035156 -15.222656 55.203125 -17.609375 C 58.367188 -20.003906 60.359375 -23.363281 61.171875 -27.6875 L 78.5 -27.609375 C 77.894531 -22.648438 76.128906 -17.984375 73.203125 -13.609375 C 70.273438 -9.234375 66.296875 -5.6875 61.265625 -2.96875 C 56.242188 -0.25 50.269531 1.109375 43.34375 1.109375 C 36.113281 1.109375 29.660156 -0.523438 23.984375 -3.796875 C 18.304688 -7.066406 13.820312 -11.796875 10.53125 -17.984375 C 7.25 -24.179688 5.609375 -31.6875 5.609375 -40.5 C 5.609375 -49.320312 7.269531 -56.832031 10.59375 -63.03125 C 13.914062 -69.226562 18.425781 -73.953125 24.125 -77.203125 C 29.820312 -80.460938 36.226562 -82.09375 43.34375 -82.09375 C 49.59375 -82.09375 55.226562 -80.9375 60.25 -78.625 C 65.269531 -76.320312 69.378906 -72.972656 72.578125 -68.578125 C 75.785156 -64.191406 77.757812 -58.878906 78.5 -52.640625 Z M 78.5 -52.640625 "/></g></g></g><g fill="#393939" fill-opacity="1"><g transform="translate(237.061184, 112.211413)"><g><path d="M 23.5625 -80.984375 L 23.5625 0 L 6.71875 0 L 6.71875 -80.984375 Z M 23.5625 -80.984375 "/></g></g></g><g fill="#393939" fill-opacity="1"><g transform="translate(262.564597, 112.211413)"><g><path d="M 6.71875 0 L 6.71875 -60.734375 L 23.5625 -60.734375 L 23.5625 0 Z M 15.1875 -68.578125 C 12.707031 -68.578125 10.570312 -69.410156 8.78125 -71.078125 C 6.988281 -72.753906 6.09375 -74.765625 6.09375 -77.109375 C 6.09375 -79.460938 6.988281 -81.46875 8.78125 -83.125 C 10.570312 -84.78125 12.707031 -85.609375 15.1875 -85.609375 C 17.6875 -85.609375 19.832031 -84.78125 21.625 -83.125 C 23.414062 -81.46875 24.3125 -79.460938 24.3125 -77.109375 C 24.3125 -74.765625 23.414062 -72.753906 21.625 -71.078125 C 19.832031 -69.410156 17.6875 -68.578125 15.1875 -68.578125 Z M 15.1875 -68.578125 "/></g></g></g><g fill="#393939" fill-opacity="1"><g transform="translate(288.068009, 112.211413)"><g><path d="M 23.5625 -35.109375 L 23.5625 0 L 6.71875 0 L 6.71875 -60.734375 L 22.78125 -60.734375 L 22.78125 -50.03125 L 23.484375 -50.03125 C 24.859375 -53.5625 27.117188 -56.359375 30.265625 -58.421875 C 33.421875 -60.492188 37.253906 -61.53125 41.765625 -61.53125 C 48.085938 -61.53125 53.160156 -59.492188 56.984375 -55.421875 C 60.804688 -51.347656 62.71875 -45.765625 62.71875 -38.671875 L 62.71875 0 L 45.875 0 L 45.875 -35.671875 C 45.894531 -39.390625 44.941406 -42.296875 43.015625 -44.390625 C 41.097656 -46.484375 38.453125 -47.53125 35.078125 -47.53125 C 31.671875 -47.53125 28.90625 -46.441406 26.78125 -44.265625 C 24.664062 -42.097656 23.59375 -39.046875 23.5625 -35.109375 Z M 23.5625 -35.109375 "/></g></g></g><g fill="#393939" fill-opacity="1"><g transform="translate(352.524075, 112.211413)"><g><path d="M 6.71875 0 L 6.71875 -60.734375 L 23.5625 -60.734375 L 23.5625 0 Z M 15.1875 -68.578125 C 12.707031 -68.578125 10.570312 -69.410156 8.78125 -71.078125 C 6.988281 -72.753906 6.09375 -74.765625 6.09375 -77.109375 C 6.09375 -79.460938 6.988281 -81.46875 8.78125 -83.125 C 10.570312 -84.78125 12.707031 -85.609375 15.1875 -85.609375 C 17.6875 -85.609375 19.832031 -84.78125 21.625 -83.125 C 23.414062 -81.46875 24.3125 -79.460938 24.3125 -77.109375 C 24.3125 -74.765625 23.414062 -72.753906 21.625 -71.078125 C 19.832031 -69.410156 17.6875 -68.578125 15.1875 -68.578125 Z M 15.1875 -68.578125 "/></g></g></g><g clip-path="url(#ca577d01a4)"><g fill="#393939" fill-opacity="1"><g transform="translate(378.027467, 112.211413)"><g><path d="M 34.171875 1.1875 C 27.941406 1.1875 22.59375 -0.132812 18.125 -2.78125 C 13.65625 -5.4375 10.226562 -9.125 7.84375 -13.84375 C 5.457031 -18.5625 4.265625 -23.992188 4.265625 -30.140625 C 4.265625 -36.359375 5.46875 -41.816406 7.875 -46.515625 C 10.289062 -51.222656 13.726562 -54.898438 18.1875 -57.546875 C 22.644531 -60.203125 27.945312 -61.53125 34.09375 -61.53125 C 39.382812 -61.53125 44.023438 -60.566406 48.015625 -58.640625 C 52.015625 -56.722656 55.164062 -54.019531 57.46875 -50.53125 C 59.78125 -47.050781 61.054688 -42.96875 61.296875 -38.28125 L 45.390625 -38.28125 C 44.941406 -41.3125 43.757812 -43.753906 41.84375 -45.609375 C 39.9375 -47.472656 37.441406 -48.40625 34.359375 -48.40625 C 30.460938 -48.40625 27.328125 -46.832031 24.953125 -43.6875 C 22.578125 -40.550781 21.390625 -36.113281 21.390625 -30.375 C 21.390625 -24.570312 22.566406 -20.082031 24.921875 -16.90625 C 27.285156 -13.726562 30.429688 -12.140625 34.359375 -12.140625 C 37.265625 -12.140625 39.703125 -13.015625 41.671875 -14.765625 C 43.648438 -16.523438 44.890625 -19.023438 45.390625 -22.265625 L 61.296875 -22.265625 C 61.035156 -17.617188 59.773438 -13.53125 57.515625 -10 C 55.265625 -6.46875 52.160156 -3.71875 48.203125 -1.75 C 44.253906 0.207031 39.578125 1.1875 34.171875 1.1875 Z M 34.171875 1.1875 "/></g></g></g></g></svg>