<svg xmlns="http://www.w3.org/2000/svg" xmlns:xlink="http://www.w3.org/1999/xlink" width="581" zoomAndPan="magnify" viewBox="0 0 435.75 217.499994" height="290" preserveAspectRatio="xMidYMid meet" version="1.0"><defs><g/></defs><g fill="#0d1525" fill-opacity="1"><g transform="translate(2.614135, 106.841899)"><g><path d="M 15.53125 -58.046875 L 29.5625 -13.9375 L 30.09375 -13.9375 L 44.15625 -58.046875 L 57.765625 -58.046875 L 37.75 0 L 21.9375 0 L 1.90625 -58.046875 Z M 15.53125 -58.046875 "/></g></g></g><g fill="#0d1525" fill-opacity="1"><g transform="translate(58.868643, 106.841899)"><g><path d="M 24.65625 0.84375 C 20.195312 0.84375 16.351562 -0.0664062 13.125 -1.890625 C 9.894531 -3.710938 7.410156 -6.300781 5.671875 -9.65625 C 3.929688 -13.007812 3.0625 -16.976562 3.0625 -21.5625 C 3.0625 -26.039062 3.929688 -29.972656 5.671875 -33.359375 C 7.410156 -36.742188 9.859375 -39.378906 13.015625 -41.265625 C 16.179688 -43.148438 19.898438 -44.09375 24.171875 -44.09375 C 28.003906 -44.09375 31.46875 -43.28125 34.5625 -41.65625 C 37.65625 -40.03125 40.109375 -37.578125 41.921875 -34.296875 C 43.734375 -31.023438 44.640625 -26.925781 44.640625 -22 L 44.640625 -18.671875 L 15 -18.671875 L 15 -18.65625 C 15 -15.40625 15.882812 -12.84375 17.65625 -10.96875 C 19.4375 -9.09375 21.835938 -8.15625 24.859375 -8.15625 C 26.878906 -8.15625 28.625 -8.582031 30.09375 -9.4375 C 31.570312 -10.289062 32.613281 -11.546875 33.21875 -13.203125 L 44.390625 -12.46875 C 43.535156 -8.425781 41.378906 -5.195312 37.921875 -2.78125 C 34.460938 -0.363281 30.039062 0.84375 24.65625 0.84375 Z M 15 -26.15625 L 33.28125 -26.15625 C 33.257812 -28.75 32.425781 -30.882812 30.78125 -32.5625 C 29.132812 -34.25 27 -35.09375 24.375 -35.09375 C 21.6875 -35.09375 19.484375 -34.222656 17.765625 -32.484375 C 16.046875 -30.742188 15.125 -28.632812 15 -26.15625 Z M 15 -26.15625 "/></g></g></g><g fill="#0d1525" fill-opacity="1"><g transform="translate(103.134815, 106.841899)"><g><path d="M 27.96875 -43.53125 L 27.96875 -34.46875 L 19.78125 -34.46875 L 19.78125 -13.375 C 19.78125 -11.71875 20.15625 -10.59375 20.90625 -10 C 21.664062 -9.414062 22.648438 -9.125 23.859375 -9.125 C 24.429688 -9.125 25 -9.175781 25.5625 -9.28125 C 26.132812 -9.382812 26.570312 -9.460938 26.875 -9.515625 L 28.765625 -0.53125 C 28.160156 -0.34375 27.3125 -0.125 26.21875 0.125 C 25.125 0.382812 23.789062 0.539062 22.21875 0.59375 C 17.832031 0.78125 14.3125 -0.164062 11.65625 -2.25 C 9.007812 -4.34375 7.691406 -7.523438 7.703125 -11.796875 L 7.703125 -34.46875 L 1.75 -34.46875 L 1.75 -43.53125 L 7.703125 -43.53125 L 7.703125 -53.96875 L 19.78125 -53.96875 L 19.78125 -43.53125 Z M 27.96875 -43.53125 "/></g></g></g><g fill="#0d1525" fill-opacity="1"><g transform="translate(130.707993, 106.841899)"><g><path d="M 24.65625 0.84375 C 20.195312 0.84375 16.351562 -0.0664062 13.125 -1.890625 C 9.894531 -3.710938 7.410156 -6.300781 5.671875 -9.65625 C 3.929688 -13.007812 3.0625 -16.976562 3.0625 -21.5625 C 3.0625 -26.039062 3.929688 -29.972656 5.671875 -33.359375 C 7.410156 -36.742188 9.859375 -39.378906 13.015625 -41.265625 C 16.179688 -43.148438 19.898438 -44.09375 24.171875 -44.09375 C 28.003906 -44.09375 31.46875 -43.28125 34.5625 -41.65625 C 37.65625 -40.03125 40.109375 -37.578125 41.921875 -34.296875 C 43.734375 -31.023438 44.640625 -26.925781 44.640625 -22 L 44.640625 -18.671875 L 15 -18.671875 L 15 -18.65625 C 15 -15.40625 15.882812 -12.84375 17.65625 -10.96875 C 19.4375 -9.09375 21.835938 -8.15625 24.859375 -8.15625 C 26.878906 -8.15625 28.625 -8.582031 30.09375 -9.4375 C 31.570312 -10.289062 32.613281 -11.546875 33.21875 -13.203125 L 44.390625 -12.46875 C 43.535156 -8.425781 41.378906 -5.195312 37.921875 -2.78125 C 34.460938 -0.363281 30.039062 0.84375 24.65625 0.84375 Z M 15 -26.15625 L 33.28125 -26.15625 C 33.257812 -28.75 32.425781 -30.882812 30.78125 -32.5625 C 29.132812 -34.25 27 -35.09375 24.375 -35.09375 C 21.6875 -35.09375 19.484375 -34.222656 17.765625 -32.484375 C 16.046875 -30.742188 15.125 -28.632812 15 -26.15625 Z M 15 -26.15625 "/></g></g></g><g fill="#0d1525" fill-opacity="1"><g transform="translate(174.97416, 106.841899)"><g><path d="M 4.8125 0 L 4.8125 -43.53125 L 16.53125 -43.53125 L 16.53125 -35.9375 L 16.984375 -35.9375 C 17.773438 -38.632812 19.097656 -40.675781 20.953125 -42.0625 C 22.816406 -43.457031 24.976562 -44.15625 27.4375 -44.15625 C 28.601562 -44.15625 29.6875 -44.015625 30.6875 -43.734375 C 31.695312 -43.453125 32.597656 -43.066406 33.390625 -42.578125 L 29.765625 -32.59375 C 29.191406 -32.875 28.566406 -33.113281 27.890625 -33.3125 C 27.222656 -33.507812 26.476562 -33.609375 25.65625 -33.609375 C 23.21875 -33.609375 21.148438 -32.773438 19.453125 -31.109375 C 17.765625 -29.453125 16.910156 -27.289062 16.890625 -24.625 L 16.890625 0 Z M 4.8125 0 "/></g></g></g><g fill="#0d1525" fill-opacity="1"><g transform="translate(205.749894, 106.841899)"><g><path d="M 4.8125 0 L 4.8125 -43.53125 L 16.890625 -43.53125 L 16.890625 0 Z M 10.890625 -49.140625 C 9.109375 -49.140625 7.578125 -49.738281 6.296875 -50.9375 C 5.015625 -52.144531 4.375 -53.585938 4.375 -55.265625 C 4.375 -56.953125 5.015625 -58.390625 6.296875 -59.578125 C 7.578125 -60.765625 9.109375 -61.359375 10.890625 -61.359375 C 12.679688 -61.359375 14.21875 -60.765625 15.5 -59.578125 C 16.789062 -58.390625 17.4375 -56.953125 17.4375 -55.265625 C 17.4375 -53.585938 16.789062 -52.144531 15.5 -50.9375 C 14.21875 -49.738281 12.679688 -49.140625 10.890625 -49.140625 Z M 10.890625 -49.140625 "/></g></g></g><g fill="#0d1525" fill-opacity="1"><g transform="translate(224.027166, 106.841899)"><g><path d="M 16.890625 -25.171875 L 16.890625 0 L 4.8125 0 L 4.8125 -43.53125 L 16.328125 -43.53125 L 16.328125 -35.859375 L 16.828125 -35.859375 C 17.816406 -38.390625 19.4375 -40.394531 21.6875 -41.875 C 23.945312 -43.351562 26.691406 -44.09375 29.921875 -44.09375 C 34.460938 -44.09375 38.101562 -42.632812 40.84375 -39.71875 C 43.582031 -36.800781 44.953125 -32.800781 44.953125 -27.71875 L 44.953125 0 L 32.875 0 L 32.875 -25.5625 C 32.894531 -28.226562 32.210938 -30.3125 30.828125 -31.8125 C 29.453125 -33.3125 27.554688 -34.0625 25.140625 -34.0625 C 22.703125 -34.0625 20.722656 -33.28125 19.203125 -31.71875 C 17.679688 -30.164062 16.910156 -27.984375 16.890625 -25.171875 Z M 16.890625 -25.171875 "/></g></g></g><g fill="#0d1525" fill-opacity="1"><g transform="translate(270.22054, 106.841899)"><g><path d="M 17.234375 0.828125 C 13.078125 0.828125 9.628906 -0.257812 6.890625 -2.4375 C 4.148438 -4.613281 2.78125 -7.851562 2.78125 -12.15625 C 2.78125 -15.40625 3.546875 -17.957031 5.078125 -19.8125 C 6.609375 -21.664062 8.613281 -23.019531 11.09375 -23.875 C 13.582031 -24.738281 16.257812 -25.300781 19.125 -25.5625 C 22.90625 -25.9375 25.609375 -26.332031 27.234375 -26.75 C 28.859375 -27.164062 29.671875 -28.070312 29.671875 -29.46875 L 29.671875 -29.640625 C 29.671875 -31.441406 29.109375 -32.832031 27.984375 -33.8125 C 26.859375 -34.789062 25.269531 -35.28125 23.21875 -35.28125 C 21.039062 -35.28125 19.304688 -34.804688 18.015625 -33.859375 C 16.734375 -32.921875 15.882812 -31.722656 15.46875 -30.265625 L 4.3125 -31.171875 C 5.144531 -35.140625 7.207031 -38.285156 10.5 -40.609375 C 13.800781 -42.929688 18.054688 -44.09375 23.265625 -44.09375 C 26.492188 -44.09375 29.515625 -43.582031 32.328125 -42.5625 C 35.148438 -41.550781 37.425781 -39.960938 39.15625 -37.796875 C 40.882812 -35.628906 41.75 -32.816406 41.75 -29.359375 L 41.75 0 L 30.296875 0 L 30.296875 -6.03125 L 29.953125 -6.03125 C 28.898438 -4.007812 27.316406 -2.359375 25.203125 -1.078125 C 23.097656 0.191406 20.441406 0.828125 17.234375 0.828125 Z M 20.6875 -7.515625 C 23.332031 -7.515625 25.503906 -8.28125 27.203125 -9.8125 C 28.910156 -11.351562 29.765625 -13.269531 29.765625 -15.5625 L 29.765625 -20.1875 C 29.285156 -19.863281 28.550781 -19.578125 27.5625 -19.328125 C 26.570312 -19.085938 25.515625 -18.875 24.390625 -18.6875 C 23.265625 -18.507812 22.257812 -18.351562 21.375 -18.21875 C 19.257812 -17.914062 17.550781 -17.320312 16.25 -16.4375 C 14.957031 -15.550781 14.3125 -14.257812 14.3125 -12.5625 C 14.3125 -10.894531 14.910156 -9.632812 16.109375 -8.78125 C 17.304688 -7.9375 18.832031 -7.515625 20.6875 -7.515625 Z M 20.6875 -7.515625 "/></g></g></g><g fill="#0d1525" fill-opacity="1"><g transform="translate(313.097989, 106.841899)"><g><path d="M 4.8125 0 L 4.8125 -43.53125 L 16.53125 -43.53125 L 16.53125 -35.9375 L 16.984375 -35.9375 C 17.773438 -38.632812 19.097656 -40.675781 20.953125 -42.0625 C 22.816406 -43.457031 24.976562 -44.15625 27.4375 -44.15625 C 28.601562 -44.15625 29.6875 -44.015625 30.6875 -43.734375 C 31.695312 -43.453125 32.597656 -43.066406 33.390625 -42.578125 L 29.765625 -32.59375 C 29.191406 -32.875 28.566406 -33.113281 27.890625 -33.3125 C 27.222656 -33.507812 26.476562 -33.609375 25.65625 -33.609375 C 23.21875 -33.609375 21.148438 -32.773438 19.453125 -31.109375 C 17.765625 -29.453125 16.910156 -27.289062 16.890625 -24.625 L 16.890625 0 Z M 4.8125 0 "/></g></g></g><g fill="#0d1525" fill-opacity="1"><g transform="translate(343.873734, 106.841899)"><g><path d="M 4.8125 0 L 4.8125 -43.53125 L 16.890625 -43.53125 L 16.890625 0 Z M 10.890625 -49.140625 C 9.109375 -49.140625 7.578125 -49.738281 6.296875 -50.9375 C 5.015625 -52.144531 4.375 -53.585938 4.375 -55.265625 C 4.375 -56.953125 5.015625 -58.390625 6.296875 -59.578125 C 7.578125 -60.765625 9.109375 -61.359375 10.890625 -61.359375 C 12.679688 -61.359375 14.21875 -60.765625 15.5 -59.578125 C 16.789062 -58.390625 17.4375 -56.953125 17.4375 -55.265625 C 17.4375 -53.585938 16.789062 -52.144531 15.5 -50.9375 C 14.21875 -49.738281 12.679688 -49.140625 10.890625 -49.140625 Z M 10.890625 -49.140625 "/></g></g></g><g fill="#0d1525" fill-opacity="1"><g transform="translate(362.151006, 106.841899)"><g><path d="M 17.234375 0.828125 C 13.078125 0.828125 9.628906 -0.257812 6.890625 -2.4375 C 4.148438 -4.613281 2.78125 -7.851562 2.78125 -12.15625 C 2.78125 -15.40625 3.546875 -17.957031 5.078125 -19.8125 C 6.609375 -21.664062 8.613281 -23.019531 11.09375 -23.875 C 13.582031 -24.738281 16.257812 -25.300781 19.125 -25.5625 C 22.90625 -25.9375 25.609375 -26.332031 27.234375 -26.75 C 28.859375 -27.164062 29.671875 -28.070312 29.671875 -29.46875 L 29.671875 -29.640625 C 29.671875 -31.441406 29.109375 -32.832031 27.984375 -33.8125 C 26.859375 -34.789062 25.269531 -35.28125 23.21875 -35.28125 C 21.039062 -35.28125 19.304688 -34.804688 18.015625 -33.859375 C 16.734375 -32.921875 15.882812 -31.722656 15.46875 -30.265625 L 4.3125 -31.171875 C 5.144531 -35.140625 7.207031 -38.285156 10.5 -40.609375 C 13.800781 -42.929688 18.054688 -44.09375 23.265625 -44.09375 C 26.492188 -44.09375 29.515625 -43.582031 32.328125 -42.5625 C 35.148438 -41.550781 37.425781 -39.960938 39.15625 -37.796875 C 40.882812 -35.628906 41.75 -32.816406 41.75 -29.359375 L 41.75 0 L 30.296875 0 L 30.296875 -6.03125 L 29.953125 -6.03125 C 28.898438 -4.007812 27.316406 -2.359375 25.203125 -1.078125 C 23.097656 0.191406 20.441406 0.828125 17.234375 0.828125 Z M 20.6875 -7.515625 C 23.332031 -7.515625 25.503906 -8.28125 27.203125 -9.8125 C 28.910156 -11.351562 29.765625 -13.269531 29.765625 -15.5625 L 29.765625 -20.1875 C 29.285156 -19.863281 28.550781 -19.578125 27.5625 -19.328125 C 26.570312 -19.085938 25.515625 -18.875 24.390625 -18.6875 C 23.265625 -18.507812 22.257812 -18.351562 21.375 -18.21875 C 19.257812 -17.914062 17.550781 -17.320312 16.25 -16.4375 C 14.957031 -15.550781 14.3125 -14.257812 14.3125 -12.5625 C 14.3125 -10.894531 14.910156 -9.632812 16.109375 -8.78125 C 17.304688 -7.9375 18.832031 -7.515625 20.6875 -7.515625 Z M 20.6875 -7.515625 "/></g></g></g><g fill="#0d1525" fill-opacity="1"><g transform="translate(0.564964, 167.776774)"><g><path d="M 5.046875 0 L 5.046875 -58.046875 L 27.953125 -58.046875 C 34.546875 -58.046875 39.660156 -56.328125 43.296875 -52.890625 C 46.929688 -49.453125 48.75 -44.847656 48.75 -39.078125 C 48.75 -35.109375 47.863281 -31.71875 46.09375 -28.90625 C 44.332031 -26.09375 41.796875 -23.976562 38.484375 -22.5625 L 50.8125 0 L 37.265625 0 L 26.28125 -20.578125 L 17.3125 -20.578125 L 17.3125 0 Z M 17.3125 -30.4375 L 25.65625 -30.4375 C 32.625 -30.4375 36.109375 -33.316406 36.109375 -39.078125 C 36.109375 -45.035156 32.601562 -48.015625 25.59375 -48.015625 L 17.3125 -48.015625 Z M 17.3125 -30.4375 "/></g></g></g><g fill="#0d1525" fill-opacity="1"><g transform="translate(49.50744, 167.776774)"><g><path d="M 32.734375 -18.53125 L 32.734375 -43.53125 L 44.8125 -43.53125 L 44.8125 0 L 33.21875 0 L 33.21875 -7.90625 L 32.765625 -7.90625 C 31.785156 -5.351562 30.15625 -3.300781 27.875 -1.75 C 25.59375 -0.207031 22.820312 0.5625 19.5625 0.5625 C 15.175781 0.5625 11.625 -0.894531 8.90625 -3.8125 C 6.195312 -6.726562 4.832031 -10.726562 4.8125 -15.8125 L 4.8125 -43.53125 L 16.890625 -43.53125 L 16.890625 -17.96875 C 16.910156 -15.394531 17.597656 -13.363281 18.953125 -11.875 C 20.316406 -10.382812 22.144531 -9.640625 24.4375 -9.640625 C 26.601562 -9.640625 28.53125 -10.394531 30.21875 -11.90625 C 31.914062 -13.414062 32.753906 -15.625 32.734375 -18.53125 Z M 32.734375 -18.53125 "/></g></g></g><g fill="#0d1525" fill-opacity="1"><g transform="translate(95.700807, 167.776774)"><g><path d="M 4.8125 0 L 4.8125 -43.53125 L 16.328125 -43.53125 L 16.328125 -35.859375 L 16.828125 -35.859375 C 17.742188 -38.421875 19.265625 -40.429688 21.390625 -41.890625 C 23.515625 -43.359375 26.039062 -44.09375 28.96875 -44.09375 C 31.945312 -44.09375 34.484375 -43.351562 36.578125 -41.875 C 38.679688 -40.394531 40.082031 -38.390625 40.78125 -35.859375 L 41.234375 -35.859375 C 42.128906 -38.347656 43.742188 -40.34375 46.078125 -41.84375 C 48.410156 -43.34375 51.171875 -44.09375 54.359375 -44.09375 C 58.421875 -44.09375 61.722656 -42.800781 64.265625 -40.21875 C 66.804688 -37.644531 68.078125 -34 68.078125 -29.28125 L 68.078125 0 L 56.03125 0 L 56.03125 -26.890625 C 56.03125 -29.316406 55.382812 -31.132812 54.09375 -32.34375 C 52.8125 -33.550781 51.207031 -34.15625 49.28125 -34.15625 C 47.09375 -34.15625 45.382812 -33.453125 44.15625 -32.046875 C 42.925781 -30.648438 42.3125 -28.828125 42.3125 -26.578125 L 42.3125 0 L 30.609375 0 L 30.609375 -27.15625 C 30.609375 -29.289062 30 -30.988281 28.78125 -32.25 C 27.5625 -33.519531 25.960938 -34.15625 23.984375 -34.15625 C 21.972656 -34.15625 20.285156 -33.421875 18.921875 -31.953125 C 17.566406 -30.492188 16.890625 -28.550781 16.890625 -26.125 L 16.890625 0 Z M 4.8125 0 "/></g></g></g><g fill="#0d1525" fill-opacity="1"><g transform="translate(165.048972, 167.776774)"><g><path d="M 4.8125 0 L 4.8125 -43.53125 L 16.890625 -43.53125 L 16.890625 0 Z M 10.890625 -49.140625 C 9.109375 -49.140625 7.578125 -49.738281 6.296875 -50.9375 C 5.015625 -52.144531 4.375 -53.585938 4.375 -55.265625 C 4.375 -56.953125 5.015625 -58.390625 6.296875 -59.578125 C 7.578125 -60.765625 9.109375 -61.359375 10.890625 -61.359375 C 12.679688 -61.359375 14.21875 -60.765625 15.5 -59.578125 C 16.789062 -58.390625 17.4375 -56.953125 17.4375 -55.265625 C 17.4375 -53.585938 16.789062 -52.144531 15.5 -50.9375 C 14.21875 -49.738281 12.679688 -49.140625 10.890625 -49.140625 Z M 10.890625 -49.140625 "/></g></g></g><g fill="#0d1525" fill-opacity="1"><g transform="translate(183.326233, 167.776774)"><g><path d="M 4.8125 16.328125 L 4.8125 -43.53125 L 16.71875 -43.53125 L 16.71875 -36.21875 L 17.265625 -36.21875 C 17.804688 -37.40625 18.578125 -38.601562 19.578125 -39.8125 C 20.585938 -41.03125 21.910156 -42.046875 23.546875 -42.859375 C 25.191406 -43.679688 27.222656 -44.09375 29.640625 -44.09375 C 32.835938 -44.09375 35.765625 -43.265625 38.421875 -41.609375 C 41.085938 -39.960938 43.226562 -37.476562 44.84375 -34.15625 C 46.46875 -30.84375 47.28125 -26.691406 47.28125 -21.703125 C 47.28125 -16.847656 46.492188 -12.753906 44.921875 -9.421875 C 43.359375 -6.085938 41.242188 -3.566406 38.578125 -1.859375 C 35.910156 -0.148438 32.925781 0.703125 29.625 0.703125 C 27.28125 0.703125 25.289062 0.316406 23.65625 -0.453125 C 22.019531 -1.222656 20.6875 -2.195312 19.65625 -3.375 C 18.625 -4.5625 17.828125 -5.757812 17.265625 -6.96875 L 16.890625 -6.96875 L 16.890625 16.328125 Z M 16.640625 -21.765625 C 16.640625 -17.890625 17.4375 -14.773438 19.03125 -12.421875 C 20.625 -10.078125 22.878906 -8.90625 25.796875 -8.90625 C 28.753906 -8.90625 31.019531 -10.097656 32.59375 -12.484375 C 34.164062 -14.867188 34.953125 -17.960938 34.953125 -21.765625 C 34.953125 -25.546875 34.171875 -28.613281 32.609375 -30.96875 C 31.046875 -33.320312 28.773438 -34.5 25.796875 -34.5 C 22.867188 -34.5 20.609375 -33.347656 19.015625 -31.046875 C 17.429688 -28.753906 16.640625 -25.660156 16.640625 -21.765625 Z M 16.640625 -21.765625 "/></g></g></g><g fill="#0d1525" fill-opacity="1"><g transform="translate(230.369836, 167.776774)"><g><path d="M 17.234375 0.828125 C 13.078125 0.828125 9.628906 -0.257812 6.890625 -2.4375 C 4.148438 -4.613281 2.78125 -7.851562 2.78125 -12.15625 C 2.78125 -15.40625 3.546875 -17.957031 5.078125 -19.8125 C 6.609375 -21.664062 8.613281 -23.019531 11.09375 -23.875 C 13.582031 -24.738281 16.257812 -25.300781 19.125 -25.5625 C 22.90625 -25.9375 25.609375 -26.332031 27.234375 -26.75 C 28.859375 -27.164062 29.671875 -28.070312 29.671875 -29.46875 L 29.671875 -29.640625 C 29.671875 -31.441406 29.109375 -32.832031 27.984375 -33.8125 C 26.859375 -34.789062 25.269531 -35.28125 23.21875 -35.28125 C 21.039062 -35.28125 19.304688 -34.804688 18.015625 -33.859375 C 16.734375 -32.921875 15.882812 -31.722656 15.46875 -30.265625 L 4.3125 -31.171875 C 5.144531 -35.140625 7.207031 -38.285156 10.5 -40.609375 C 13.800781 -42.929688 18.054688 -44.09375 23.265625 -44.09375 C 26.492188 -44.09375 29.515625 -43.582031 32.328125 -42.5625 C 35.148438 -41.550781 37.425781 -39.960938 39.15625 -37.796875 C 40.882812 -35.628906 41.75 -32.816406 41.75 -29.359375 L 41.75 0 L 30.296875 0 L 30.296875 -6.03125 L 29.953125 -6.03125 C 28.898438 -4.007812 27.316406 -2.359375 25.203125 -1.078125 C 23.097656 0.191406 20.441406 0.828125 17.234375 0.828125 Z M 20.6875 -7.515625 C 23.332031 -7.515625 25.503906 -8.28125 27.203125 -9.8125 C 28.910156 -11.351562 29.765625 -13.269531 29.765625 -15.5625 L 29.765625 -20.1875 C 29.285156 -19.863281 28.550781 -19.578125 27.5625 -19.328125 C 26.570312 -19.085938 25.515625 -18.875 24.390625 -18.6875 C 23.265625 -18.507812 22.257812 -18.351562 21.375 -18.21875 C 19.257812 -17.914062 17.550781 -17.320312 16.25 -16.4375 C 14.957031 -15.550781 14.3125 -14.257812 14.3125 -12.5625 C 14.3125 -10.894531 14.910156 -9.632812 16.109375 -8.78125 C 17.304688 -7.9375 18.832031 -7.515625 20.6875 -7.515625 Z M 20.6875 -7.515625 "/></g></g></g><g fill="#0d1525" fill-opacity="1"><g transform="translate(273.247285, 167.776774)"><g><path d="M 4.8125 0 L 4.8125 -43.53125 L 16.328125 -43.53125 L 16.328125 -35.859375 L 16.828125 -35.859375 C 17.742188 -38.421875 19.265625 -40.429688 21.390625 -41.890625 C 23.515625 -43.359375 26.039062 -44.09375 28.96875 -44.09375 C 31.945312 -44.09375 34.484375 -43.351562 36.578125 -41.875 C 38.679688 -40.394531 40.082031 -38.390625 40.78125 -35.859375 L 41.234375 -35.859375 C 42.128906 -38.347656 43.742188 -40.34375 46.078125 -41.84375 C 48.410156 -43.34375 51.171875 -44.09375 54.359375 -44.09375 C 58.421875 -44.09375 61.722656 -42.800781 64.265625 -40.21875 C 66.804688 -37.644531 68.078125 -34 68.078125 -29.28125 L 68.078125 0 L 56.03125 0 L 56.03125 -26.890625 C 56.03125 -29.316406 55.382812 -31.132812 54.09375 -32.34375 C 52.8125 -33.550781 51.207031 -34.15625 49.28125 -34.15625 C 47.09375 -34.15625 45.382812 -33.453125 44.15625 -32.046875 C 42.925781 -30.648438 42.3125 -28.828125 42.3125 -26.578125 L 42.3125 0 L 30.609375 0 L 30.609375 -27.15625 C 30.609375 -29.289062 30 -30.988281 28.78125 -32.25 C 27.5625 -33.519531 25.960938 -34.15625 23.984375 -34.15625 C 21.972656 -34.15625 20.285156 -33.421875 18.921875 -31.953125 C 17.566406 -30.492188 16.890625 -28.550781 16.890625 -26.125 L 16.890625 0 Z M 4.8125 0 "/></g></g></g><g fill="#0d1525" fill-opacity="1"><g transform="translate(342.59545, 167.776774)"><g><path d="M 5.046875 0 L 5.046875 -58.046875 L 17.125 -58.046875 L 17.125 -36.21875 L 17.484375 -36.21875 C 18.035156 -37.40625 18.8125 -38.601562 19.8125 -39.8125 C 20.8125 -41.03125 22.132812 -42.046875 23.78125 -42.859375 C 25.425781 -43.679688 27.457031 -44.09375 29.875 -44.09375 C 33.0625 -44.09375 35.988281 -43.265625 38.65625 -41.609375 C 41.320312 -39.960938 43.460938 -37.476562 45.078125 -34.15625 C 46.691406 -30.84375 47.5 -26.691406 47.5 -21.703125 C 47.5 -16.847656 46.710938 -12.753906 45.140625 -9.421875 C 43.578125 -6.085938 41.460938 -3.566406 38.796875 -1.859375 C 36.128906 -0.148438 33.144531 0.703125 29.84375 0.703125 C 27.5 0.703125 25.507812 0.316406 23.875 -0.453125 C 22.238281 -1.222656 20.90625 -2.195312 19.875 -3.375 C 18.851562 -4.5625 18.054688 -5.757812 17.484375 -6.96875 L 16.953125 -6.96875 L 16.953125 0 Z M 16.859375 -21.765625 C 16.859375 -17.890625 17.65625 -14.773438 19.25 -12.421875 C 20.851562 -10.078125 23.109375 -8.90625 26.015625 -8.90625 C 28.984375 -8.90625 31.25 -10.097656 32.8125 -12.484375 C 34.382812 -14.867188 35.171875 -17.960938 35.171875 -21.765625 C 35.171875 -25.546875 34.390625 -28.613281 32.828125 -30.96875 C 31.273438 -33.320312 29.003906 -34.5 26.015625 -34.5 C 23.085938 -34.5 20.828125 -33.347656 19.234375 -31.046875 C 17.648438 -28.753906 16.859375 -25.660156 16.859375 -21.765625 Z M 16.859375 -21.765625 "/></g></g></g><g fill="#0d1525" fill-opacity="1"><g transform="translate(389.865777, 167.776774)"><g><path d="M 17.234375 0.828125 C 13.078125 0.828125 9.628906 -0.257812 6.890625 -2.4375 C 4.148438 -4.613281 2.78125 -7.851562 2.78125 -12.15625 C 2.78125 -15.40625 3.546875 -17.957031 5.078125 -19.8125 C 6.609375 -21.664062 8.613281 -23.019531 11.09375 -23.875 C 13.582031 -24.738281 16.257812 -25.300781 19.125 -25.5625 C 22.90625 -25.9375 25.609375 -26.332031 27.234375 -26.75 C 28.859375 -27.164062 29.671875 -28.070312 29.671875 -29.46875 L 29.671875 -29.640625 C 29.671875 -31.441406 29.109375 -32.832031 27.984375 -33.8125 C 26.859375 -34.789062 25.269531 -35.28125 23.21875 -35.28125 C 21.039062 -35.28125 19.304688 -34.804688 18.015625 -33.859375 C 16.734375 -32.921875 15.882812 -31.722656 15.46875 -30.265625 L 4.3125 -31.171875 C 5.144531 -35.140625 7.207031 -38.285156 10.5 -40.609375 C 13.800781 -42.929688 18.054688 -44.09375 23.265625 -44.09375 C 26.492188 -44.09375 29.515625 -43.582031 32.328125 -42.5625 C 35.148438 -41.550781 37.425781 -39.960938 39.15625 -37.796875 C 40.882812 -35.628906 41.75 -32.816406 41.75 -29.359375 L 41.75 0 L 30.296875 0 L 30.296875 -6.03125 L 29.953125 -6.03125 C 28.898438 -4.007812 27.316406 -2.359375 25.203125 -1.078125 C 23.097656 0.191406 20.441406 0.828125 17.234375 0.828125 Z M 20.6875 -7.515625 C 23.332031 -7.515625 25.503906 -8.28125 27.203125 -9.8125 C 28.910156 -11.351562 29.765625 -13.269531 29.765625 -15.5625 L 29.765625 -20.1875 C 29.285156 -19.863281 28.550781 -19.578125 27.5625 -19.328125 C 26.570312 -19.085938 25.515625 -18.875 24.390625 -18.6875 C 23.265625 -18.507812 22.257812 -18.351562 21.375 -18.21875 C 19.257812 -17.914062 17.550781 -17.320312 16.25 -16.4375 C 14.957031 -15.550781 14.3125 -14.257812 14.3125 -12.5625 C 14.3125 -10.894531 14.910156 -9.632812 16.109375 -8.78125 C 17.304688 -7.9375 18.832031 -7.515625 20.6875 -7.515625 Z M 20.6875 -7.515625 "/></g></g></g></svg>