<svg width="216" height="96" viewBox="0 0 216 96" fill="none" xmlns="http://www.w3.org/2000/svg">
<path fill-rule="evenodd" clip-rule="evenodd" d="M122.479 75.7437C122.479 77.2057 123.663 78.3909 125.124 78.3909H163.375C164.836 78.3909 166.021 77.2057 166.021 75.7437V69.9456C166.021 68.4835 164.836 67.2979 163.375 67.2979H142.538C143.512 66.438 144.506 65.5468 145.522 64.6243C148.643 61.8416 151.566 58.8604 154.29 55.6815C154.294 55.6757 154.299 55.6698 154.305 55.6634C157.068 52.3809 159.362 48.9874 161.172 45.4821C161.175 45.4769 161.178 45.4716 161.18 45.4663C163.06 41.7653 164.034 37.9609 164.034 34.0785C164.034 27.8301 162.217 22.6906 158.171 19.1717C154.35 15.7452 149.494 14.1191 143.836 14.1191C139.984 14.1191 136.439 14.9173 133.259 16.5713C130.045 18.2434 127.502 20.698 125.656 23.8771C123.772 27.0676 122.892 30.8099 122.892 34.9897C122.892 36.4517 124.077 37.6369 125.539 37.6369H132.244C133.706 37.6369 134.891 36.4517 134.891 34.9897C134.891 33.1972 135.231 31.5573 135.894 30.0413C136.57 28.6174 137.534 27.5193 138.813 26.6943C138.829 26.6836 138.845 26.6726 138.862 26.6615C140.044 25.8605 141.621 25.3776 143.753 25.3776C146.062 25.3776 147.557 25.8617 148.507 26.5411C148.525 26.5535 148.542 26.5656 148.559 26.5775C149.647 27.3159 150.407 28.2813 150.879 29.541C150.888 29.5634 150.897 29.5857 150.906 29.6078C151.486 31.0365 151.787 32.6008 151.787 34.327C151.787 36.5629 151.142 39.0063 149.701 41.6892C149.695 41.7005 149.689 41.7118 149.683 41.7231C148.26 44.4691 146.246 47.3261 143.601 50.2903C143.597 50.2943 143.594 50.2982 143.59 50.3021C143.588 50.3045 143.585 50.3075 143.583 50.3099C140.956 53.3141 137.912 56.3888 134.444 59.5334C131.013 62.6384 127.361 65.72 123.486 68.778C122.85 69.2798 122.479 70.0458 122.479 70.8563V75.7437Z" fill="blue"/>
<path fill-rule="evenodd" clip-rule="evenodd" d="M195.225 75.7438C195.225 77.2058 196.41 78.391 197.872 78.391H204.743C206.204 78.391 207.389 77.2058 207.389 75.7438V65.9661H213.354C214.815 65.9661 216 64.781 216 63.3189V57.1892C216 55.7272 214.815 54.542 213.354 54.542H207.389V17.7605C207.389 16.2984 206.204 15.1133 204.743 15.1133H196.63C195.767 15.1133 194.958 15.5341 194.463 16.2409L166.313 56.4149C166.001 56.8605 165.834 57.3907 165.834 57.9346V63.3189C165.834 64.781 167.019 65.9661 168.48 65.9661H195.225V75.7438ZM181.239 54.542L195.556 33.9163V54.542H181.239Z" fill="blue"/>
<path d="M63.3527 41.54H55.8176C55.1764 41.54 54.6535 41.0172 54.6535 40.3758V32.8408C54.6535 31.5257 53.5862 30.4531 52.2656 30.4531H43.2539C41.9387 30.4531 40.8662 31.5203 40.8662 32.8408V40.3758C40.8662 41.0172 40.3433 41.54 39.702 41.54H32.167C30.8519 41.54 29.7793 42.6072 29.7793 43.9277V52.9343C29.7793 54.2491 30.8465 55.3217 32.167 55.3217H39.702C40.3433 55.3217 40.8662 55.8446 40.8662 56.4859V64.0209C40.8662 65.3362 41.9334 66.4089 43.2539 66.4089H52.2602C53.5754 66.4089 54.6481 65.3416 54.6481 64.0209V56.4859C54.6481 55.8446 55.171 55.3217 55.8122 55.3217H63.3473C64.6621 55.3217 65.7347 54.2545 65.7347 52.9343V43.9277C65.7401 42.6072 64.6675 41.54 63.3527 41.54Z" fill="blue"/>
<path d="M75.5007 48.434C75.5007 36.5063 71.9271 25.7806 66.241 18.3803C64.7643 16.4616 66.7961 13.8313 69.0329 14.7584C69.1244 14.7961 69.2163 14.8338 69.3078 14.8716C73.6464 16.7041 77.5379 19.3343 80.885 22.676C84.2268 26.0177 86.8515 29.9146 88.6896 34.2534C90.5923 38.7485 91.5569 43.5185 91.5569 48.434C91.5569 53.3495 90.5923 58.1195 88.6896 62.6146C86.8568 66.9532 84.2268 70.8448 80.885 74.1919C77.5433 77.5336 73.6464 80.1588 69.3078 81.9964C69.2163 82.0341 69.1244 82.0718 69.0329 82.1099C66.7961 83.0368 64.7643 80.4117 66.241 78.4879C71.9271 71.082 75.5007 60.3617 75.5007 48.434Z" fill="blue"/>
<path d="M43.6037 3.25098V10.3709C43.6037 11.6861 44.6709 12.7586 45.9914 12.7586H49.1498C50.4651 12.7586 51.5377 11.6915 51.5377 10.3709V3.25098C51.5377 1.93586 50.4704 0.863281 49.1498 0.863281H45.9914C44.6709 0.863281 43.6037 1.93047 43.6037 3.25098ZM15.0538 13.6857L12.8224 15.9171C11.89 16.8495 11.89 18.3586 12.8224 19.2911L17.8565 24.3252C18.789 25.2576 20.2981 25.2576 21.2306 24.3252L23.4619 22.0938C24.3944 21.1614 24.3944 19.6522 23.4619 18.7198L18.4278 13.6857C17.4954 12.7533 15.9808 12.7533 15.0538 13.6857ZM0 46.8547V50.0131C0 51.3283 1.06718 52.401 2.3877 52.401H9.50767C10.8228 52.401 11.8954 51.3337 11.8954 50.0131V46.8547C11.8954 45.5396 10.8282 44.467 9.50767 44.467H2.3877C1.06718 44.467 0 45.5342 0 46.8547ZM17.8565 72.537L12.8224 77.5712C11.89 78.5039 11.89 80.0129 12.8224 80.9452L15.0538 83.1766C15.9862 84.1094 17.4954 84.1094 18.4278 83.1766L23.4619 78.1425C24.3944 77.2102 24.3944 75.7012 23.4619 74.7684L21.2306 72.537C20.2981 71.6101 18.7835 71.6101 17.8565 72.537ZM43.6037 86.4914V93.6117C43.6037 94.9265 44.6709 95.9992 45.9914 95.9992H49.1498C50.4651 95.9992 51.5377 94.9319 51.5377 93.6117V86.4914C51.5377 85.1762 50.4704 84.104 49.1498 84.104H45.9914C44.6709 84.1094 43.6037 85.1762 43.6037 86.4914Z" fill="blue"/>
</svg>
