<svg width="56" height="55" viewBox="0 0 56 55" fill="none" xmlns="http://www.w3.org/2000/svg">
<path d="M48.5902 23.4276H43.4123C42.2213 23.4276 41.2375 22.6189 41.1339 21.5723L39.6323 9.67969H52.4737L50.9721 21.5723C50.765 22.6189 49.7812 23.4276 48.5902 23.4276ZM40.9268 10.7738L42.2731 21.4296C42.3249 21.9529 42.7909 22.3335 43.3605 22.3335H48.5902C49.1598 22.3335 49.6258 21.9529 49.6776 21.4296L51.0239 10.7738H40.9268Z" fill="#0142FF" stroke="#0142FF" stroke-width="0.995041" stroke-linejoin="round"/>
<path d="M41.5481 50.6386H21.7683C18.9721 50.6386 16.7456 48.5455 16.7456 46.0243V41.2197C16.7456 40.9342 17.0045 40.6488 17.367 40.6488C17.6776 40.6488 17.9883 40.8867 17.9883 41.2197V46.0243C17.9883 47.9747 19.6971 49.5445 21.82 49.5445H41.5999C43.7229 49.5445 45.4316 47.9747 45.4316 46.0243V26.2349C45.4316 25.9495 45.6905 25.6641 46.053 25.6641C46.4155 25.6641 46.6744 25.9019 46.6744 26.2349V46.0243C46.5708 48.5931 44.3443 50.6386 41.5481 50.6386Z" fill="#0142FF" stroke="#0142FF" stroke-width="0.995041" stroke-linejoin="round"/>
<path d="M46.0013 26.8017C44.8104 26.8017 43.7748 26.0406 43.5159 24.9465L42.9463 22.3301H49.1081L48.5385 24.9465C48.2278 26.0406 47.1922 26.8017 46.0013 26.8017ZM44.3961 23.4242L44.7068 24.7086C44.8104 25.2795 45.3799 25.7076 46.0013 25.7076C46.6227 25.7076 47.1922 25.2795 47.2958 24.7086L47.6065 23.4242H44.3961Z" fill="#0142FF" stroke="#0142FF" stroke-width="0.995041" stroke-linejoin="round"/>
<path d="M52.8363 10.7749H51.749C51.4383 10.7749 51.1276 10.537 51.1276 10.204C51.1276 9.91858 51.3865 9.63316 51.749 9.63316H52.8363C52.9917 9.63316 53.0434 9.53802 53.0952 9.53802C53.147 9.49045 53.1988 9.39531 53.147 9.2526L52.6292 6.68378C52.4739 5.92265 51.749 5.39937 50.9205 5.39937H41.0305C40.202 5.39937 39.5289 5.92265 39.3218 6.68378L38.804 9.2526C38.804 9.44288 38.8558 9.53802 38.8558 9.58559C38.9076 9.63316 38.9593 9.68073 39.1147 9.68073H40.202C40.5127 9.68073 40.8234 9.91858 40.8234 10.2516C40.8234 10.537 40.5645 10.8224 40.202 10.8224H39.1147C38.6487 10.8224 38.2344 10.6321 37.9237 10.2991C37.6131 9.96616 37.5095 9.53802 37.6131 9.10988L38.1309 6.54107C38.3898 5.30423 39.5807 4.40039 40.9787 4.40039H50.9205C52.3185 4.40039 53.5095 5.30423 53.7684 6.54107L54.2862 9.10988C54.3897 9.53802 54.2344 9.96616 53.9755 10.2991C53.7166 10.5846 53.3023 10.7749 52.8363 10.7749Z" fill="#0142FF" stroke="#0142FF" stroke-width="0.995041" stroke-linejoin="round"/>
<path d="M26.1173 41.6941H8.61567C7.42474 41.6941 6.44092 40.7902 6.44092 39.6961V36.6991C6.44092 35.605 7.42474 34.7012 8.61567 34.7012H26.0655C27.2564 34.7012 28.2402 35.605 28.2402 36.6991V39.6961C28.2402 40.7902 27.2564 41.6941 26.1173 41.6941ZM8.61567 35.8429C8.09787 35.8429 7.68363 36.2234 7.68363 36.6991V39.6961C7.68363 40.1718 8.09787 40.5524 8.61567 40.5524H26.0655C26.5833 40.5524 26.9975 40.1718 26.9975 39.6961V36.6991C26.9975 36.2234 26.5833 35.8429 26.0655 35.8429H8.61567Z" fill="#0142FF" stroke="#0142FF" stroke-width="0.995041" stroke-linejoin="round"/>
<path d="M29.1729 31.0836H5.56131C3.95614 31.0836 2.60986 29.8943 2.60986 28.4196V16.1939C2.60986 14.7193 3.95614 13.4824 5.56131 13.4824H29.1729C30.7781 13.4824 32.1244 14.7193 32.1244 16.1939V28.4196C32.1244 29.8943 30.7781 31.0836 29.1729 31.0836ZM5.56131 14.5765C4.5775 14.5765 3.8008 15.2901 3.8008 16.1939V28.4196C3.8008 29.3234 4.5775 30.037 5.56131 30.037H29.1729C30.1567 30.037 30.9334 29.3234 30.9334 28.4196V16.1939C30.9334 15.2901 30.1567 14.5765 29.1729 14.5765H5.56131Z" fill="#0142FF" stroke="#0142FF" stroke-width="0.995041" stroke-linejoin="round"/>
<path d="M17.3668 27.6163C14.1047 27.6163 10.8426 26.5221 8.30535 24.3339L7.89111 24.0009L12.8102 18.1973L13.2762 18.6254C15.5545 20.5758 19.1273 20.5758 21.3539 18.6254L21.8199 18.1973L26.739 24.0009L26.4283 24.3339C23.8911 26.5221 20.629 27.6163 17.3668 27.6163ZM9.54807 23.8582C14.0529 27.3784 20.7325 27.3784 25.1856 23.8582L21.7163 19.8147C19.1791 21.6699 15.5545 21.6699 12.9655 19.8147L9.54807 23.8582Z" fill="#0142FF" stroke="#0142FF" stroke-width="0.995041" stroke-linejoin="round"/>
<path d="M13.691 35.8412C13.6393 35.8412 13.5357 35.8412 13.4839 35.7937C13.1732 35.6985 13.0179 35.3655 13.1732 35.0801C13.7946 33.7006 13.7946 32.1783 13.1732 30.7512C13.0697 30.4658 13.1732 30.1328 13.4839 30.0376C13.7946 29.9425 14.1571 30.0376 14.2606 30.3231C14.9855 31.988 14.9855 33.7957 14.2606 35.4607C14.1571 35.6985 13.8982 35.8412 13.691 35.8412Z" fill="#0142FF" stroke="#0142FF" stroke-width="0.995041" stroke-linejoin="round"/>
<path d="M21.043 35.8413C20.7841 35.8413 20.5769 35.6986 20.4734 35.5083C19.7485 33.8434 19.7485 32.0357 20.4734 30.3707C20.5769 30.0853 20.9394 29.9426 21.2501 30.0853C21.5608 30.1804 21.7161 30.5134 21.5608 30.7988C20.9394 32.1784 20.9394 33.7007 21.5608 35.1278C21.6643 35.4132 21.5608 35.7462 21.2501 35.8413C21.1983 35.8413 21.1465 35.8413 21.043 35.8413Z" fill="#0142FF" stroke="#0142FF" stroke-width="0.995041" stroke-linejoin="round"/>
</svg>
