<svg width="45" height="48" viewBox="0 0 45 48" fill="none" xmlns="http://www.w3.org/2000/svg">
<mask id="path-1-outside-1_1959_91436" maskUnits="userSpaceOnUse" x="0.266602" y="-0.599609" width="45" height="48" fill="black">
<rect fill="white" x="0.266602" y="-0.599609" width="45" height="48"/>
<path d="M43.5568 0.400391H7.47305C7.27208 0.400391 7.07934 0.473736 6.93724 0.604291C6.79513 0.734847 6.71529 0.911918 6.71529 1.09655C6.71529 1.28118 6.79513 1.45826 6.93724 1.58881C7.07934 1.71937 7.27208 1.79271 7.47305 1.79271H16.2414L7.22047 8.82062H5.07348C4.57204 8.82061 4.07554 8.91162 3.61249 9.08842C3.14944 9.26521 2.72898 9.52431 2.37524 9.85083C2.02151 10.1774 1.74147 10.5649 1.55123 10.9911C1.36098 11.4173 1.26427 11.8739 1.26664 12.3346V35.2084C1.27141 36.1331 1.6746 37.0184 2.388 37.6707C3.1014 38.323 4.06696 38.6892 5.07348 38.6892H13.1743V41.7225C13.1719 41.8153 13.1897 41.9076 13.2267 41.994C13.2637 42.0804 13.3191 42.1591 13.3898 42.2255C13.4604 42.2919 13.5447 42.3447 13.6378 42.3807C13.731 42.4167 13.831 42.4353 13.932 42.4352H17.5404V46.0984C17.5234 46.1999 17.5305 46.3037 17.5612 46.4025C17.592 46.5013 17.6456 46.5928 17.7184 46.6708C17.7912 46.7488 17.8816 46.8114 17.9832 46.8543C18.0848 46.8973 18.1954 46.9195 18.3072 46.9195C18.4191 46.9195 18.5296 46.8973 18.6312 46.8543C18.7329 46.8114 18.8232 46.7488 18.896 46.6708C18.9688 46.5928 19.0225 46.5013 19.0532 46.4025C19.0839 46.3037 19.091 46.1999 19.074 46.0984V42.4352H22.6824C22.7834 42.4353 22.8834 42.4167 22.9766 42.3807C23.0697 42.3447 23.1541 42.2919 23.2247 42.2255C23.2953 42.1591 23.3507 42.0804 23.3877 41.994C23.4247 41.9076 23.4425 41.8153 23.4401 41.7225V38.6892H31.5409C32.0447 38.6958 32.545 38.6109 33.013 38.4393C33.4809 38.2677 33.9074 38.0129 34.2678 37.6894C34.6283 37.366 34.9156 36.9803 35.1133 36.5545C35.311 36.1288 35.4152 35.6713 35.4199 35.2084V12.3346C35.4199 11.8717 35.3204 11.4134 35.1271 10.986C34.9337 10.5586 34.6504 10.1705 34.2933 9.84395C33.9362 9.51744 33.5124 9.25895 33.0463 9.08333C32.5801 8.90772 32.0808 8.81844 31.577 8.82062H29.412L20.391 1.79271H42.781V46.0984C42.781 46.2874 42.8628 46.4687 43.0083 46.6023C43.1537 46.736 43.3511 46.8111 43.5568 46.8111C43.6579 46.8111 43.7579 46.7926 43.851 46.7566C43.9442 46.7206 44.0285 46.6678 44.0991 46.6014C44.1697 46.535 44.2252 46.4562 44.2622 46.3699C44.2992 46.2835 44.317 46.1912 44.3146 46.0984V1.11313C44.317 1.02032 44.2992 0.928009 44.2622 0.841624C44.2252 0.75524 44.1697 0.676527 44.0991 0.610116C44.0285 0.543706 43.9442 0.49094 43.851 0.454923C43.7579 0.418905 43.6579 0.400364 43.5568 0.400391ZM21.9066 41.0098H14.6898V38.6892H21.9066V41.0098ZM31.5229 37.2969H5.07348C4.4689 37.2969 3.88881 37.0774 3.45962 36.6862C3.03043 36.295 2.78692 35.7638 2.78216 35.2084V18.0696C3.3481 17.8813 3.94934 17.7989 4.55047 17.8274C5.15159 17.8559 5.74043 17.9946 6.28229 18.2354C7.12553 18.6121 8.05092 18.8078 8.98857 18.8078C9.92622 18.8078 10.8516 18.6121 11.6949 18.2354C12.3012 17.9618 12.9678 17.8195 13.6434 17.8195C14.3189 17.8195 14.9855 17.9618 15.5919 18.2354C16.4363 18.6085 17.3612 18.8023 18.2982 18.8023C19.2352 18.8023 20.1601 18.6085 21.0045 18.2354C21.6109 17.9618 22.2774 17.8195 22.953 17.8195C23.6286 17.8195 24.2951 17.9618 24.9015 18.2354C25.744 18.6145 26.6697 18.8116 27.6078 18.8116C28.5459 18.8116 29.4716 18.6145 30.3141 18.2354C30.8716 17.9836 31.4792 17.839 32.0997 17.8105C32.7201 17.782 33.3404 17.8702 33.9225 18.0696V35.2084C33.9181 35.4943 33.8508 35.7764 33.7248 36.0378C33.5988 36.2991 33.4165 36.5344 33.189 36.7295C32.9616 36.9246 32.6935 37.0754 32.401 37.1729C32.1085 37.2704 31.7975 37.3126 31.4868 37.2969H31.5229ZM33.7962 12.3346V16.5778C32.3621 16.2508 30.8485 16.3974 29.5202 16.9922C28.9158 17.262 28.2527 17.4021 27.5807 17.4021C26.9088 17.4021 26.2456 17.262 25.6412 16.9922C24.8032 16.5993 23.8758 16.3945 22.9349 16.3945C21.9941 16.3945 21.0667 16.5993 20.2287 16.9922C19.6211 17.2622 18.955 17.4025 18.2801 17.4025C17.6053 17.4025 16.9391 17.2622 16.3316 16.9922C15.4945 16.5967 14.5667 16.3904 13.6253 16.3904C12.684 16.3904 11.7562 16.5967 10.9191 16.9922C10.3115 17.2622 9.6454 17.4025 8.97053 17.4025C8.29566 17.4025 7.62952 17.2622 7.02201 16.9922C5.70071 16.3959 4.1921 16.249 2.76412 16.5778V12.3346C2.76411 12.0567 2.82397 11.7816 2.94025 11.5252C3.05652 11.2687 3.22692 11.0359 3.4416 10.8402C3.65628 10.6445 3.91101 10.4898 4.19109 10.385C4.47117 10.2802 4.77107 10.2273 5.07348 10.2295H31.4868C32.0962 10.2295 32.6808 10.4508 33.1134 10.8451C33.546 11.2394 33.7914 11.7748 33.7962 12.3346ZM9.52983 8.82062L18.2982 2.05792L27.0485 8.87035L9.52983 8.82062Z"/>
</mask>
<path d="M43.5568 0.400391H7.47305C7.27208 0.400391 7.07934 0.473736 6.93724 0.604291C6.79513 0.734847 6.71529 0.911918 6.71529 1.09655C6.71529 1.28118 6.79513 1.45826 6.93724 1.58881C7.07934 1.71937 7.27208 1.79271 7.47305 1.79271H16.2414L7.22047 8.82062H5.07348C4.57204 8.82061 4.07554 8.91162 3.61249 9.08842C3.14944 9.26521 2.72898 9.52431 2.37524 9.85083C2.02151 10.1774 1.74147 10.5649 1.55123 10.9911C1.36098 11.4173 1.26427 11.8739 1.26664 12.3346V35.2084C1.27141 36.1331 1.6746 37.0184 2.388 37.6707C3.1014 38.323 4.06696 38.6892 5.07348 38.6892H13.1743V41.7225C13.1719 41.8153 13.1897 41.9076 13.2267 41.994C13.2637 42.0804 13.3191 42.1591 13.3898 42.2255C13.4604 42.2919 13.5447 42.3447 13.6378 42.3807C13.731 42.4167 13.831 42.4353 13.932 42.4352H17.5404V46.0984C17.5234 46.1999 17.5305 46.3037 17.5612 46.4025C17.592 46.5013 17.6456 46.5928 17.7184 46.6708C17.7912 46.7488 17.8816 46.8114 17.9832 46.8543C18.0848 46.8973 18.1954 46.9195 18.3072 46.9195C18.4191 46.9195 18.5296 46.8973 18.6312 46.8543C18.7329 46.8114 18.8232 46.7488 18.896 46.6708C18.9688 46.5928 19.0225 46.5013 19.0532 46.4025C19.0839 46.3037 19.091 46.1999 19.074 46.0984V42.4352H22.6824C22.7834 42.4353 22.8834 42.4167 22.9766 42.3807C23.0697 42.3447 23.1541 42.2919 23.2247 42.2255C23.2953 42.1591 23.3507 42.0804 23.3877 41.994C23.4247 41.9076 23.4425 41.8153 23.4401 41.7225V38.6892H31.5409C32.0447 38.6958 32.545 38.6109 33.013 38.4393C33.4809 38.2677 33.9074 38.0129 34.2678 37.6894C34.6283 37.366 34.9156 36.9803 35.1133 36.5545C35.311 36.1288 35.4152 35.6713 35.4199 35.2084V12.3346C35.4199 11.8717 35.3204 11.4134 35.1271 10.986C34.9337 10.5586 34.6504 10.1705 34.2933 9.84395C33.9362 9.51744 33.5124 9.25895 33.0463 9.08333C32.5801 8.90772 32.0808 8.81844 31.577 8.82062H29.412L20.391 1.79271H42.781V46.0984C42.781 46.2874 42.8628 46.4687 43.0083 46.6023C43.1537 46.736 43.3511 46.8111 43.5568 46.8111C43.6579 46.8111 43.7579 46.7926 43.851 46.7566C43.9442 46.7206 44.0285 46.6678 44.0991 46.6014C44.1697 46.535 44.2252 46.4562 44.2622 46.3699C44.2992 46.2835 44.317 46.1912 44.3146 46.0984V1.11313C44.317 1.02032 44.2992 0.928009 44.2622 0.841624C44.2252 0.75524 44.1697 0.676527 44.0991 0.610116C44.0285 0.543706 43.9442 0.49094 43.851 0.454923C43.7579 0.418905 43.6579 0.400364 43.5568 0.400391ZM21.9066 41.0098H14.6898V38.6892H21.9066V41.0098ZM31.5229 37.2969H5.07348C4.4689 37.2969 3.88881 37.0774 3.45962 36.6862C3.03043 36.295 2.78692 35.7638 2.78216 35.2084V18.0696C3.3481 17.8813 3.94934 17.7989 4.55047 17.8274C5.15159 17.8559 5.74043 17.9946 6.28229 18.2354C7.12553 18.6121 8.05092 18.8078 8.98857 18.8078C9.92622 18.8078 10.8516 18.6121 11.6949 18.2354C12.3012 17.9618 12.9678 17.8195 13.6434 17.8195C14.3189 17.8195 14.9855 17.9618 15.5919 18.2354C16.4363 18.6085 17.3612 18.8023 18.2982 18.8023C19.2352 18.8023 20.1601 18.6085 21.0045 18.2354C21.6109 17.9618 22.2774 17.8195 22.953 17.8195C23.6286 17.8195 24.2951 17.9618 24.9015 18.2354C25.744 18.6145 26.6697 18.8116 27.6078 18.8116C28.5459 18.8116 29.4716 18.6145 30.3141 18.2354C30.8716 17.9836 31.4792 17.839 32.0997 17.8105C32.7201 17.782 33.3404 17.8702 33.9225 18.0696V35.2084C33.9181 35.4943 33.8508 35.7764 33.7248 36.0378C33.5988 36.2991 33.4165 36.5344 33.189 36.7295C32.9616 36.9246 32.6935 37.0754 32.401 37.1729C32.1085 37.2704 31.7975 37.3126 31.4868 37.2969H31.5229ZM33.7962 12.3346V16.5778C32.3621 16.2508 30.8485 16.3974 29.5202 16.9922C28.9158 17.262 28.2527 17.4021 27.5807 17.4021C26.9088 17.4021 26.2456 17.262 25.6412 16.9922C24.8032 16.5993 23.8758 16.3945 22.9349 16.3945C21.9941 16.3945 21.0667 16.5993 20.2287 16.9922C19.6211 17.2622 18.955 17.4025 18.2801 17.4025C17.6053 17.4025 16.9391 17.2622 16.3316 16.9922C15.4945 16.5967 14.5667 16.3904 13.6253 16.3904C12.684 16.3904 11.7562 16.5967 10.9191 16.9922C10.3115 17.2622 9.6454 17.4025 8.97053 17.4025C8.29566 17.4025 7.62952 17.2622 7.02201 16.9922C5.70071 16.3959 4.1921 16.249 2.76412 16.5778V12.3346C2.76411 12.0567 2.82397 11.7816 2.94025 11.5252C3.05652 11.2687 3.22692 11.0359 3.4416 10.8402C3.65628 10.6445 3.91101 10.4898 4.19109 10.385C4.47117 10.2802 4.77107 10.2273 5.07348 10.2295H31.4868C32.0962 10.2295 32.6808 10.4508 33.1134 10.8451C33.546 11.2394 33.7914 11.7748 33.7962 12.3346ZM9.52983 8.82062L18.2982 2.05792L27.0485 8.87035L9.52983 8.82062Z" fill="#0142FF"/>
<path d="M43.5568 0.400391H7.47305C7.27208 0.400391 7.07934 0.473736 6.93724 0.604291C6.79513 0.734847 6.71529 0.911918 6.71529 1.09655C6.71529 1.28118 6.79513 1.45826 6.93724 1.58881C7.07934 1.71937 7.27208 1.79271 7.47305 1.79271H16.2414L7.22047 8.82062H5.07348C4.57204 8.82061 4.07554 8.91162 3.61249 9.08842C3.14944 9.26521 2.72898 9.52431 2.37524 9.85083C2.02151 10.1774 1.74147 10.5649 1.55123 10.9911C1.36098 11.4173 1.26427 11.8739 1.26664 12.3346V35.2084C1.27141 36.1331 1.6746 37.0184 2.388 37.6707C3.1014 38.323 4.06696 38.6892 5.07348 38.6892H13.1743V41.7225C13.1719 41.8153 13.1897 41.9076 13.2267 41.994C13.2637 42.0804 13.3191 42.1591 13.3898 42.2255C13.4604 42.2919 13.5447 42.3447 13.6378 42.3807C13.731 42.4167 13.831 42.4353 13.932 42.4352H17.5404V46.0984C17.5234 46.1999 17.5305 46.3037 17.5612 46.4025C17.592 46.5013 17.6456 46.5928 17.7184 46.6708C17.7912 46.7488 17.8816 46.8114 17.9832 46.8543C18.0848 46.8973 18.1954 46.9195 18.3072 46.9195C18.4191 46.9195 18.5296 46.8973 18.6312 46.8543C18.7329 46.8114 18.8232 46.7488 18.896 46.6708C18.9688 46.5928 19.0225 46.5013 19.0532 46.4025C19.0839 46.3037 19.091 46.1999 19.074 46.0984V42.4352H22.6824C22.7834 42.4353 22.8834 42.4167 22.9766 42.3807C23.0697 42.3447 23.1541 42.2919 23.2247 42.2255C23.2953 42.1591 23.3507 42.0804 23.3877 41.994C23.4247 41.9076 23.4425 41.8153 23.4401 41.7225V38.6892H31.5409C32.0447 38.6958 32.545 38.6109 33.013 38.4393C33.4809 38.2677 33.9074 38.0129 34.2678 37.6894C34.6283 37.366 34.9156 36.9803 35.1133 36.5545C35.311 36.1288 35.4152 35.6713 35.4199 35.2084V12.3346C35.4199 11.8717 35.3204 11.4134 35.1271 10.986C34.9337 10.5586 34.6504 10.1705 34.2933 9.84395C33.9362 9.51744 33.5124 9.25895 33.0463 9.08333C32.5801 8.90772 32.0808 8.81844 31.577 8.82062H29.412L20.391 1.79271H42.781V46.0984C42.781 46.2874 42.8628 46.4687 43.0083 46.6023C43.1537 46.736 43.3511 46.8111 43.5568 46.8111C43.6579 46.8111 43.7579 46.7926 43.851 46.7566C43.9442 46.7206 44.0285 46.6678 44.0991 46.6014C44.1697 46.535 44.2252 46.4562 44.2622 46.3699C44.2992 46.2835 44.317 46.1912 44.3146 46.0984V1.11313C44.317 1.02032 44.2992 0.928009 44.2622 0.841624C44.2252 0.75524 44.1697 0.676527 44.0991 0.610116C44.0285 0.543706 43.9442 0.49094 43.851 0.454923C43.7579 0.418905 43.6579 0.400364 43.5568 0.400391ZM21.9066 41.0098H14.6898V38.6892H21.9066V41.0098ZM31.5229 37.2969H5.07348C4.4689 37.2969 3.88881 37.0774 3.45962 36.6862C3.03043 36.295 2.78692 35.7638 2.78216 35.2084V18.0696C3.3481 17.8813 3.94934 17.7989 4.55047 17.8274C5.15159 17.8559 5.74043 17.9946 6.28229 18.2354C7.12553 18.6121 8.05092 18.8078 8.98857 18.8078C9.92622 18.8078 10.8516 18.6121 11.6949 18.2354C12.3012 17.9618 12.9678 17.8195 13.6434 17.8195C14.3189 17.8195 14.9855 17.9618 15.5919 18.2354C16.4363 18.6085 17.3612 18.8023 18.2982 18.8023C19.2352 18.8023 20.1601 18.6085 21.0045 18.2354C21.6109 17.9618 22.2774 17.8195 22.953 17.8195C23.6286 17.8195 24.2951 17.9618 24.9015 18.2354C25.744 18.6145 26.6697 18.8116 27.6078 18.8116C28.5459 18.8116 29.4716 18.6145 30.3141 18.2354C30.8716 17.9836 31.4792 17.839 32.0997 17.8105C32.7201 17.782 33.3404 17.8702 33.9225 18.0696V35.2084C33.9181 35.4943 33.8508 35.7764 33.7248 36.0378C33.5988 36.2991 33.4165 36.5344 33.189 36.7295C32.9616 36.9246 32.6935 37.0754 32.401 37.1729C32.1085 37.2704 31.7975 37.3126 31.4868 37.2969H31.5229ZM33.7962 12.3346V16.5778C32.3621 16.2508 30.8485 16.3974 29.5202 16.9922C28.9158 17.262 28.2527 17.4021 27.5807 17.4021C26.9088 17.4021 26.2456 17.262 25.6412 16.9922C24.8032 16.5993 23.8758 16.3945 22.9349 16.3945C21.9941 16.3945 21.0667 16.5993 20.2287 16.9922C19.6211 17.2622 18.955 17.4025 18.2801 17.4025C17.6053 17.4025 16.9391 17.2622 16.3316 16.9922C15.4945 16.5967 14.5667 16.3904 13.6253 16.3904C12.684 16.3904 11.7562 16.5967 10.9191 16.9922C10.3115 17.2622 9.6454 17.4025 8.97053 17.4025C8.29566 17.4025 7.62952 17.2622 7.02201 16.9922C5.70071 16.3959 4.1921 16.249 2.76412 16.5778V12.3346C2.76411 12.0567 2.82397 11.7816 2.94025 11.5252C3.05652 11.2687 3.22692 11.0359 3.4416 10.8402C3.65628 10.6445 3.91101 10.4898 4.19109 10.385C4.47117 10.2802 4.77107 10.2273 5.07348 10.2295H31.4868C32.0962 10.2295 32.6808 10.4508 33.1134 10.8451C33.546 11.2394 33.7914 11.7748 33.7962 12.3346ZM9.52983 8.82062L18.2982 2.05792L27.0485 8.87035L9.52983 8.82062Z" stroke="#0142FF" stroke-width="0.710744" mask="url(#path-1-outside-1_1959_91436)"/>
</svg>
