<svg width="55" height="51" viewBox="0 0 55 51" fill="none" xmlns="http://www.w3.org/2000/svg">
<path d="M53.9216 23.7883V22.7494C53.9216 21.9229 53.5642 21.1301 52.928 20.5457C52.2918 19.9612 51.4289 19.6328 50.5292 19.6328H5.29716C4.39744 19.6328 3.53457 19.9612 2.89837 20.5457C2.26217 21.1301 1.90476 21.9229 1.90476 22.7494V23.7883C1.60485 23.7883 1.31723 23.8978 1.10516 24.0926C0.893095 24.2874 0.773957 24.5517 0.773957 24.8272C0.773957 31.0605 0.400793 32.0993 1.90476 32.0993H14.3436V34.1771C14.3413 35.2357 14.7789 36.2551 15.5669 37.0273C16.355 37.7996 17.4341 38.2665 18.5841 38.3326L32.4364 43.2049V44.5659H14.3436C9.09665 44.5659 7.24214 50.7991 9.82036 50.7991H46.006C48.5842 50.7991 46.741 44.5659 41.4828 44.5659V42.4881C41.485 41.4296 41.0475 40.4101 40.2594 39.6379C39.4714 38.8656 38.3923 38.3988 37.2423 38.3326L23.39 33.4603V32.0993H53.9216C54.2215 32.0993 54.5091 31.9899 54.7212 31.7951C54.9333 31.6002 55.0524 31.336 55.0524 31.0605C55.0524 24.8272 55.4256 23.7883 53.9216 23.7883ZM51.66 22.7494V23.7883H24.5208V21.7106H50.5292C50.8291 21.7106 51.1167 21.82 51.3288 22.0148C51.5409 22.2097 51.66 22.4739 51.66 22.7494ZM4.16636 22.7494C4.16636 22.4739 4.2855 22.2097 4.49756 22.0148C4.70963 21.82 4.99725 21.7106 5.29716 21.7106H22.2592V23.7883H4.16636V22.7494ZM23.1073 35.59L33.9403 39.3715C33.3947 39.8281 32.976 40.398 32.7191 41.0337L21.886 37.2937C22.4377 36.8254 22.8568 36.2406 23.1073 35.59ZM44.683 48.7214H11.1434C11.3773 48.1135 11.8108 47.5872 12.3839 47.2151C12.9571 46.8429 13.6417 46.6433 14.3436 46.6436H41.4828C42.1846 46.6433 42.8693 46.8429 43.4424 47.2151C44.0156 47.5872 44.449 48.1135 44.683 48.7214ZM39.2212 42.4881V44.5659H34.698V42.4881C34.698 41.9371 34.9363 41.4086 35.3604 41.0189C35.7845 40.6293 36.3598 40.4104 36.9596 40.4104C37.5594 40.4104 38.1346 40.6293 38.5588 41.0189C38.9829 41.4086 39.2212 41.9371 39.2212 42.4881ZM21.1284 34.1771C21.1284 34.7282 20.8901 35.2566 20.466 35.6463C20.0418 36.036 19.4666 36.2549 18.8668 36.2549C18.267 36.2549 17.6917 36.036 17.2676 35.6463C16.8434 35.2566 16.6052 34.7282 16.6052 34.1771V32.0993H21.1284V34.1771ZM52.7908 30.0216H3.03556V25.8661H52.7908V30.0216Z" fill="#0142FF"/>
<path d="M17.7362 9.24462H38.0906C40.6688 9.24462 38.8256 3.01135 33.5674 3.01135H32.4366V1.97247C32.4366 1.69694 32.3174 1.4327 32.1054 1.23787C31.8933 1.04305 31.6057 0.933594 31.3058 0.933594C31.0059 0.933594 30.7182 1.04305 30.5062 1.23787C30.2941 1.4327 30.175 1.69694 30.175 1.97247V3.01135H25.6518V1.97247C25.6518 1.69694 25.5326 1.4327 25.3206 1.23787C25.1085 1.04305 24.8209 0.933594 24.521 0.933594C24.2211 0.933594 23.9334 1.04305 23.7214 1.23787C23.5093 1.4327 23.3902 1.69694 23.3902 1.97247V3.01135H22.2594C17.0124 3.01135 15.1579 9.24462 17.7362 9.24462ZM22.2594 5.0891H33.5674C34.2692 5.08877 34.9539 5.28842 35.527 5.66055C36.1002 6.03267 36.5336 6.55895 36.7675 7.16686H19.0592C19.2931 6.55895 19.7265 6.03267 20.2997 5.66055C20.8729 5.28842 21.5575 5.08877 22.2594 5.0891Z" fill="#0142FF"/>
<path d="M26.7822 11.3221V13.3998C26.7822 13.6754 26.9014 13.9396 27.1134 14.1344C27.3255 14.3293 27.6131 14.4387 27.913 14.4387C28.2129 14.4387 28.5006 14.3293 28.7126 14.1344C28.9247 13.9396 29.0438 13.6754 29.0438 13.3998V11.3221C29.0438 11.0466 28.9247 10.7823 28.7126 10.5875C28.5006 10.3927 28.2129 10.2832 27.913 10.2832C27.6131 10.2832 27.3255 10.3927 27.1134 10.5875C26.9014 10.7823 26.7822 11.0466 26.7822 11.3221Z" fill="#0142FF"/>
<path d="M22.5873 10.5848L20.3257 12.6626C20.2203 12.7594 20.1367 12.8744 20.0796 13.001C20.0225 13.1276 19.9932 13.2632 19.9932 13.4002C19.9932 13.6768 20.1128 13.9422 20.3257 14.1378C20.5387 14.3334 20.8275 14.4433 21.1286 14.4433C21.2777 14.4433 21.4253 14.4163 21.5631 14.3639C21.7009 14.3115 21.826 14.2346 21.9315 14.1378L24.1931 12.06C24.406 11.8644 24.5256 11.5991 24.5256 11.3224C24.5256 11.0458 24.406 10.7804 24.1931 10.5848C23.9801 10.3892 23.6913 10.2793 23.3902 10.2793C23.0891 10.2793 22.8003 10.3892 22.5873 10.5848Z" fill="#0142FF"/>
<path d="M31.6333 12.06L33.8949 14.1378C34.1079 14.3334 34.3967 14.4433 34.6978 14.4433C34.9989 14.4433 35.2877 14.3334 35.5007 14.1378C35.7136 13.9422 35.8332 13.6768 35.8332 13.4002C35.8332 13.1235 35.7136 12.8582 35.5007 12.6626L33.2391 10.5848C33.1336 10.488 33.0085 10.4111 32.8707 10.3587C32.733 10.3063 32.5853 10.2793 32.4362 10.2793C32.1351 10.2793 31.8463 10.3892 31.6333 10.5848C31.5279 10.6817 31.4443 10.7967 31.3872 10.9232C31.3301 11.0498 31.3008 11.1854 31.3008 11.3224C31.3008 11.5991 31.4204 11.8644 31.6333 12.06Z" fill="#0142FF"/>
</svg>
