<svg xmlns="http://www.w3.org/2000/svg" xmlns:xlink="http://www.w3.org/1999/xlink" width="1550" zoomAndPan="magnify" viewBox="0 0 1162.5 223.499994" height="298" preserveAspectRatio="xMidYMid meet" version="1.0"><defs><g/><clipPath id="251dd9a7c7"><path d="M 1075 64 L 1160.953125 64 L 1160.953125 177 L 1075 177 Z M 1075 64 " clip-rule="nonzero"/></clipPath><clipPath id="ef0003cbaf"><path d="M 1.046875 30 L 94 30 L 94 181 L 1.046875 181 Z M 1.046875 30 " clip-rule="nonzero"/></clipPath><clipPath id="524cefe464"><path d="M 1.046875 30 L 94 30 L 94 181 L 1.046875 181 Z M 1.046875 30 " clip-rule="nonzero"/></clipPath></defs><g fill="#242424" fill-opacity="1"><g transform="translate(300.776886, 176.861136)"><g><path d="M 110.3125 0 L 100.390625 -26.921875 L 43.921875 -26.921875 L 34.203125 0 L 1.828125 0 L 57.28125 -141.6875 L 86.21875 -141.6875 L 143.5 0 Z M 72.0625 -104.234375 L 53.640625 -53.640625 L 90.671875 -53.640625 Z M 72.0625 -104.234375 "/></g></g></g><g fill="#242424" fill-opacity="1"><g transform="translate(434.556972, 176.861136)"><g><path d="M 67.609375 -26.3125 L 80.96875 -26.3125 L 80.96875 0 L 60.109375 0 C 48.097656 0 38.617188 -3.472656 31.671875 -10.421875 C 24.722656 -17.367188 21.25 -26.914062 21.25 -39.0625 L 21.25 -85.625 L 1.421875 -85.625 L 1.421875 -91.890625 L 44.734375 -137.84375 L 50.203125 -137.84375 L 50.203125 -109.296875 L 80.359375 -109.296875 L 80.359375 -85.625 L 50.796875 -85.625 L 50.796875 -42.90625 C 50.796875 -37.644531 52.242188 -33.5625 55.140625 -30.65625 C 58.046875 -27.757812 62.203125 -26.3125 67.609375 -26.3125 Z M 67.609375 -26.3125 "/></g></g></g><g fill="#242424" fill-opacity="1"><g transform="translate(510.048069, 176.861136)"><g><path d="M 67.609375 -26.3125 L 80.96875 -26.3125 L 80.96875 0 L 60.109375 0 C 48.097656 0 38.617188 -3.472656 31.671875 -10.421875 C 24.722656 -17.367188 21.25 -26.914062 21.25 -39.0625 L 21.25 -85.625 L 1.421875 -85.625 L 1.421875 -91.890625 L 44.734375 -137.84375 L 50.203125 -137.84375 L 50.203125 -109.296875 L 80.359375 -109.296875 L 80.359375 -85.625 L 50.796875 -85.625 L 50.796875 -42.90625 C 50.796875 -37.644531 52.242188 -33.5625 55.140625 -30.65625 C 58.046875 -27.757812 62.203125 -26.3125 67.609375 -26.3125 Z M 67.609375 -26.3125 "/></g></g></g><g fill="#242424" fill-opacity="1"><g transform="translate(585.539151, 176.861136)"><g><path d="M 120.234375 -55.046875 C 120.234375 -52.210938 120.03125 -49.3125 119.625 -46.34375 L 37.046875 -46.34375 C 38.253906 -38.925781 41.21875 -33.226562 45.9375 -29.25 C 50.664062 -25.269531 56.609375 -23.28125 63.765625 -23.28125 C 68.890625 -23.28125 73.472656 -24.390625 77.515625 -26.609375 C 81.566406 -28.835938 84.671875 -31.910156 86.828125 -35.828125 L 118 -35.828125 C 113.957031 -23.953125 107.078125 -14.503906 97.359375 -7.484375 C 87.640625 -0.472656 76.441406 3.03125 63.765625 3.03125 C 52.960938 3.03125 43.273438 0.503906 34.703125 -4.546875 C 26.140625 -9.609375 19.394531 -16.488281 14.46875 -25.1875 C 9.539062 -33.894531 7.078125 -43.71875 7.078125 -54.65625 C 7.078125 -65.582031 9.539062 -75.394531 14.46875 -84.09375 C 19.394531 -92.800781 26.140625 -99.679688 34.703125 -104.734375 C 43.273438 -109.796875 52.960938 -112.328125 63.765625 -112.328125 C 74.960938 -112.328125 84.8125 -109.726562 93.3125 -104.53125 C 101.8125 -99.34375 108.421875 -92.429688 113.140625 -83.796875 C 117.867188 -75.160156 120.234375 -65.578125 120.234375 -55.046875 Z M 63.765625 -87.234375 C 57.148438 -87.234375 51.582031 -85.410156 47.0625 -81.765625 C 42.539062 -78.128906 39.46875 -73.070312 37.84375 -66.59375 L 90.671875 -66.59375 C 86.359375 -80.351562 77.390625 -87.234375 63.765625 -87.234375 Z M 63.765625 -87.234375 "/></g></g></g><g fill="#242424" fill-opacity="1"><g transform="translate(701.103945, 176.861136)"><g><path d="M 76.515625 -111.9375 C 88.921875 -111.9375 98.734375 -107.785156 105.953125 -99.484375 C 113.171875 -91.179688 116.78125 -80.082031 116.78125 -66.1875 L 116.78125 0 L 87.234375 0 L 87.234375 -61.53125 C 87.234375 -77.851562 80.890625 -86.015625 68.203125 -86.015625 C 60.648438 -86.015625 54.679688 -83.453125 50.296875 -78.328125 C 45.910156 -73.203125 43.71875 -66.253906 43.71875 -57.484375 L 43.71875 0 L 14.171875 0 L 14.171875 -109.296875 L 34.40625 -109.296875 L 40.28125 -95.734375 C 44.320312 -100.734375 49.515625 -104.679688 55.859375 -107.578125 C 62.203125 -110.484375 69.085938 -111.9375 76.515625 -111.9375 Z M 76.515625 -111.9375 "/></g></g></g><g fill="#242424" fill-opacity="1"><g transform="translate(819.299868, 176.861136)"><g><path d="M 67.609375 -26.3125 L 80.96875 -26.3125 L 80.96875 0 L 60.109375 0 C 48.097656 0 38.617188 -3.472656 31.671875 -10.421875 C 24.722656 -17.367188 21.25 -26.914062 21.25 -39.0625 L 21.25 -85.625 L 1.421875 -85.625 L 1.421875 -91.890625 L 44.734375 -137.84375 L 50.203125 -137.84375 L 50.203125 -109.296875 L 80.359375 -109.296875 L 80.359375 -85.625 L 50.796875 -85.625 L 50.796875 -42.90625 C 50.796875 -37.644531 52.242188 -33.5625 55.140625 -30.65625 C 58.046875 -27.757812 62.203125 -26.3125 67.609375 -26.3125 Z M 67.609375 -26.3125 "/></g></g></g><g fill="#242424" fill-opacity="1"><g transform="translate(894.790981, 176.861136)"><g><path d="M 14.171875 -123.875 L 14.171875 -151.40625 L 43.71875 -151.40625 L 43.71875 -123.875 Z M 14.171875 0 L 14.171875 -109.296875 L 43.71875 -109.296875 L 43.71875 0 Z M 14.171875 0 "/></g></g></g><g fill="#242424" fill-opacity="1"><g transform="translate(941.137629, 176.861136)"><g><path d="M 66.1875 3.03125 C 54.851562 3.03125 44.734375 0.503906 35.828125 -4.546875 C 26.921875 -9.609375 19.898438 -16.488281 14.765625 -25.1875 C 9.640625 -33.894531 7.078125 -43.71875 7.078125 -54.65625 C 7.078125 -65.71875 9.640625 -75.597656 14.765625 -84.296875 C 19.898438 -93.003906 26.921875 -99.851562 35.828125 -104.84375 C 44.734375 -109.832031 54.851562 -112.328125 66.1875 -112.328125 C 77.382812 -112.328125 87.4375 -109.832031 96.34375 -104.84375 C 105.25 -99.851562 112.265625 -93.003906 117.390625 -84.296875 C 122.523438 -75.597656 125.09375 -65.71875 125.09375 -54.65625 C 125.09375 -43.71875 122.523438 -33.894531 117.390625 -25.1875 C 112.265625 -16.488281 105.25 -9.609375 96.34375 -4.546875 C 87.4375 0.503906 77.382812 3.03125 66.1875 3.03125 Z M 66.1875 -24.6875 C 74.6875 -24.6875 81.632812 -27.453125 87.03125 -32.984375 C 92.425781 -38.523438 95.125 -45.75 95.125 -54.65625 C 95.125 -63.5625 92.425781 -70.78125 87.03125 -76.3125 C 81.632812 -81.84375 74.6875 -84.609375 66.1875 -84.609375 C 57.550781 -84.609375 50.535156 -81.84375 45.140625 -76.3125 C 39.742188 -70.78125 37.046875 -63.5625 37.046875 -54.65625 C 37.046875 -45.75 39.742188 -38.523438 45.140625 -32.984375 C 50.535156 -27.453125 57.550781 -24.6875 66.1875 -24.6875 Z M 66.1875 -24.6875 "/></g></g></g><g clip-path="url(#251dd9a7c7)"><g fill="#242424" fill-opacity="1"><g transform="translate(1061.762267, 176.861136)"><g><path d="M 76.515625 -111.9375 C 88.921875 -111.9375 98.734375 -107.785156 105.953125 -99.484375 C 113.171875 -91.179688 116.78125 -80.082031 116.78125 -66.1875 L 116.78125 0 L 87.234375 0 L 87.234375 -61.53125 C 87.234375 -77.851562 80.890625 -86.015625 68.203125 -86.015625 C 60.648438 -86.015625 54.679688 -83.453125 50.296875 -78.328125 C 45.910156 -73.203125 43.71875 -66.253906 43.71875 -57.484375 L 43.71875 0 L 14.171875 0 L 14.171875 -109.296875 L 34.40625 -109.296875 L 40.28125 -95.734375 C 44.320312 -100.734375 49.515625 -104.679688 55.859375 -107.578125 C 62.203125 -110.484375 69.085938 -111.9375 76.515625 -111.9375 Z M 76.515625 -111.9375 "/></g></g></g></g><g clip-path="url(#ef0003cbaf)"><g fill="#f5a926" fill-opacity="0.4"><g transform="translate(-34.751857, 180.707376)"><g><path d="M 74.765625 -149.96875 C 84.910156 -149.96875 93.945312 -147.71875 101.875 -143.21875 C 109.800781 -138.726562 116.117188 -132.585938 120.828125 -124.796875 C 125.546875 -117.015625 127.90625 -108.195312 127.90625 -98.34375 C 127.90625 -88.488281 125.582031 -79.664062 120.9375 -71.875 C 116.300781 -64.09375 109.984375 -57.988281 101.984375 -53.5625 C 93.984375 -49.132812 84.910156 -46.921875 74.765625 -46.921875 L 49.703125 -46.921875 L 49.703125 0 L 17.140625 0 L 17.140625 -149.96875 Z M 73.484375 -76.921875 C 79.910156 -76.921875 85.085938 -78.953125 89.015625 -83.015625 C 92.941406 -87.085938 94.90625 -92.195312 94.90625 -98.34375 C 94.90625 -104.625 92.941406 -109.800781 89.015625 -113.875 C 85.085938 -117.945312 79.910156 -119.984375 73.484375 -119.984375 L 49.703125 -119.984375 L 49.703125 -76.921875 Z M 73.484375 -76.921875 "/></g></g></g></g><g fill="#f5a926" fill-opacity="0.4"><g transform="translate(86.28961, 180.707376)"><g><path d="M 127.265625 -58.28125 C 127.265625 -55.28125 127.050781 -52.207031 126.625 -49.0625 L 39.203125 -49.0625 C 40.492188 -41.207031 43.640625 -35.171875 48.640625 -30.953125 C 53.640625 -26.742188 59.921875 -24.640625 67.484375 -24.640625 C 72.910156 -24.640625 77.765625 -25.816406 82.046875 -28.171875 C 86.335938 -30.523438 89.625 -33.773438 91.90625 -37.921875 L 124.90625 -37.921875 C 120.625 -25.347656 113.335938 -15.347656 103.046875 -7.921875 C 92.765625 -0.492188 80.910156 3.21875 67.484375 3.21875 C 56.054688 3.21875 45.804688 0.539062 36.734375 -4.8125 C 27.671875 -10.175781 20.53125 -17.460938 15.3125 -26.671875 C 10.101562 -35.890625 7.5 -46.28125 7.5 -57.84375 C 7.5 -69.414062 10.101562 -79.804688 15.3125 -89.015625 C 20.53125 -98.234375 27.671875 -105.519531 36.734375 -110.875 C 45.804688 -116.226562 56.054688 -118.90625 67.484375 -118.90625 C 79.335938 -118.90625 89.765625 -116.15625 98.765625 -110.65625 C 107.765625 -105.15625 114.765625 -97.832031 119.765625 -88.6875 C 124.765625 -79.550781 127.265625 -69.414062 127.265625 -58.28125 Z M 67.484375 -92.34375 C 60.484375 -92.34375 54.59375 -90.410156 49.8125 -86.546875 C 45.03125 -82.691406 41.78125 -77.335938 40.0625 -70.484375 L 95.984375 -70.484375 C 91.410156 -85.054688 81.910156 -92.34375 67.484375 -92.34375 Z M 67.484375 -92.34375 "/></g></g></g><g fill="#f5a926" fill-opacity="0.4"><g transform="translate(208.616481, 180.707376)"><g><path d="M 71.5625 -27.859375 L 85.703125 -27.859375 L 85.703125 0 L 63.625 0 C 50.914062 0 40.882812 -3.675781 33.53125 -11.03125 C 26.175781 -18.382812 22.5 -28.488281 22.5 -41.34375 L 22.5 -90.625 L 1.5 -90.625 L 1.5 -97.265625 L 47.34375 -145.90625 L 53.140625 -145.90625 L 53.140625 -115.6875 L 85.0625 -115.6875 L 85.0625 -90.625 L 53.78125 -90.625 L 53.78125 -45.421875 C 53.78125 -39.847656 55.3125 -35.523438 58.375 -32.453125 C 61.445312 -29.390625 65.84375 -27.859375 71.5625 -27.859375 Z M 71.5625 -27.859375 "/></g></g></g><g clip-path="url(#524cefe464)"><g fill="#235de5" fill-opacity="1"><g transform="translate(-34.751857, 180.707376)"><g><path d="M 74.765625 -149.96875 C 84.910156 -149.96875 93.945312 -147.71875 101.875 -143.21875 C 109.800781 -138.726562 116.117188 -132.585938 120.828125 -124.796875 C 125.546875 -117.015625 127.90625 -108.195312 127.90625 -98.34375 C 127.90625 -88.488281 125.582031 -79.664062 120.9375 -71.875 C 116.300781 -64.09375 109.984375 -57.988281 101.984375 -53.5625 C 93.984375 -49.132812 84.910156 -46.921875 74.765625 -46.921875 L 49.703125 -46.921875 L 49.703125 0 L 17.140625 0 L 17.140625 -149.96875 Z M 73.484375 -76.921875 C 79.910156 -76.921875 85.085938 -78.953125 89.015625 -83.015625 C 92.941406 -87.085938 94.90625 -92.195312 94.90625 -98.34375 C 94.90625 -104.625 92.941406 -109.800781 89.015625 -113.875 C 85.085938 -117.945312 79.910156 -119.984375 73.484375 -119.984375 L 49.703125 -119.984375 L 49.703125 -76.921875 Z M 73.484375 -76.921875 "/></g></g></g></g><g fill="#235de5" fill-opacity="1"><g transform="translate(86.28961, 180.707376)"><g><path d="M 127.265625 -58.28125 C 127.265625 -55.28125 127.050781 -52.207031 126.625 -49.0625 L 39.203125 -49.0625 C 40.492188 -41.207031 43.640625 -35.171875 48.640625 -30.953125 C 53.640625 -26.742188 59.921875 -24.640625 67.484375 -24.640625 C 72.910156 -24.640625 77.765625 -25.816406 82.046875 -28.171875 C 86.335938 -30.523438 89.625 -33.773438 91.90625 -37.921875 L 124.90625 -37.921875 C 120.625 -25.347656 113.335938 -15.347656 103.046875 -7.921875 C 92.765625 -0.492188 80.910156 3.21875 67.484375 3.21875 C 56.054688 3.21875 45.804688 0.539062 36.734375 -4.8125 C 27.671875 -10.175781 20.53125 -17.460938 15.3125 -26.671875 C 10.101562 -35.890625 7.5 -46.28125 7.5 -57.84375 C 7.5 -69.414062 10.101562 -79.804688 15.3125 -89.015625 C 20.53125 -98.234375 27.671875 -105.519531 36.734375 -110.875 C 45.804688 -116.226562 56.054688 -118.90625 67.484375 -118.90625 C 79.335938 -118.90625 89.765625 -116.15625 98.765625 -110.65625 C 107.765625 -105.15625 114.765625 -97.832031 119.765625 -88.6875 C 124.765625 -79.550781 127.265625 -69.414062 127.265625 -58.28125 Z M 67.484375 -92.34375 C 60.484375 -92.34375 54.59375 -90.410156 49.8125 -86.546875 C 45.03125 -82.691406 41.78125 -77.335938 40.0625 -70.484375 L 95.984375 -70.484375 C 91.410156 -85.054688 81.910156 -92.34375 67.484375 -92.34375 Z M 67.484375 -92.34375 "/></g></g></g><g fill="#235de5" fill-opacity="1"><g transform="translate(208.616481, 180.707376)"><g><path d="M 71.5625 -27.859375 L 85.703125 -27.859375 L 85.703125 0 L 63.625 0 C 50.914062 0 40.882812 -3.675781 33.53125 -11.03125 C 26.175781 -18.382812 22.5 -28.488281 22.5 -41.34375 L 22.5 -90.625 L 1.5 -90.625 L 1.5 -97.265625 L 47.34375 -145.90625 L 53.140625 -145.90625 L 53.140625 -115.6875 L 85.0625 -115.6875 L 85.0625 -90.625 L 53.78125 -90.625 L 53.78125 -45.421875 C 53.78125 -39.847656 55.3125 -35.523438 58.375 -32.453125 C 61.445312 -29.390625 65.84375 -27.859375 71.5625 -27.859375 Z M 71.5625 -27.859375 "/></g></g></g></svg>