<svg xmlns="http://www.w3.org/2000/svg" xmlns:xlink="http://www.w3.org/1999/xlink" width="581" zoomAndPan="magnify" viewBox="0 0 435.75 217.499994" height="290" preserveAspectRatio="xMidYMid meet" version="1.0"><defs><g/></defs><g fill="#f5a926" fill-opacity="0.4"><g transform="translate(-5.310833, 106.074689)"><g><path d="M 34.8125 -69.828125 C 39.53125 -69.828125 43.734375 -68.78125 47.421875 -66.6875 C 51.117188 -64.59375 54.0625 -61.734375 56.25 -58.109375 C 58.445312 -54.484375 59.546875 -50.375 59.546875 -45.78125 C 59.546875 -41.195312 58.460938 -37.09375 56.296875 -33.46875 C 54.140625 -29.84375 51.195312 -27 47.46875 -24.9375 C 43.75 -22.875 39.53125 -21.84375 34.8125 -21.84375 L 23.140625 -21.84375 L 23.140625 0 L 7.984375 0 L 7.984375 -69.828125 Z M 34.21875 -35.8125 C 37.207031 -35.8125 39.613281 -36.757812 41.4375 -38.65625 C 43.269531 -40.550781 44.1875 -42.925781 44.1875 -45.78125 C 44.1875 -48.707031 43.269531 -51.117188 41.4375 -53.015625 C 39.613281 -54.910156 37.207031 -55.859375 34.21875 -55.859375 L 23.140625 -55.859375 L 23.140625 -35.8125 Z M 34.21875 -35.8125 "/></g></g></g><g fill="#f5a926" fill-opacity="0.4"><g transform="translate(51.048734, 106.074689)"><g><path d="M 59.25 -27.125 C 59.25 -25.726562 59.148438 -24.300781 58.953125 -22.84375 L 18.25 -22.84375 C 18.851562 -19.1875 20.316406 -16.375 22.640625 -14.40625 C 24.972656 -12.445312 27.898438 -11.46875 31.421875 -11.46875 C 33.953125 -11.46875 36.210938 -12.015625 38.203125 -13.109375 C 40.203125 -14.210938 41.734375 -15.726562 42.796875 -17.65625 L 58.15625 -17.65625 C 56.15625 -11.800781 52.757812 -7.144531 47.96875 -3.6875 C 43.1875 -0.226562 37.671875 1.5 31.421875 1.5 C 26.097656 1.5 21.320312 0.253906 17.09375 -2.234375 C 12.875 -4.734375 9.550781 -8.128906 7.125 -12.421875 C 4.695312 -16.710938 3.484375 -21.550781 3.484375 -26.9375 C 3.484375 -32.320312 4.695312 -37.15625 7.125 -41.4375 C 9.550781 -45.726562 12.875 -49.117188 17.09375 -51.609375 C 21.320312 -54.109375 26.097656 -55.359375 31.421875 -55.359375 C 36.941406 -55.359375 41.796875 -54.078125 45.984375 -51.515625 C 50.171875 -48.960938 53.425781 -45.554688 55.75 -41.296875 C 58.082031 -37.035156 59.25 -32.3125 59.25 -27.125 Z M 31.421875 -43 C 28.160156 -43 25.414062 -42.097656 23.1875 -40.296875 C 20.957031 -38.503906 19.445312 -36.007812 18.65625 -32.8125 L 44.6875 -32.8125 C 42.5625 -39.601562 38.140625 -43 31.421875 -43 Z M 31.421875 -43 "/></g></g></g><g fill="#f5a926" fill-opacity="0.4"><g transform="translate(108.00681, 106.074689)"><g><path d="M 33.3125 -12.96875 L 39.90625 -12.96875 L 39.90625 0 L 29.625 0 C 23.707031 0 19.035156 -1.710938 15.609375 -5.140625 C 12.179688 -8.566406 10.46875 -13.269531 10.46875 -19.25 L 10.46875 -42.1875 L 0.703125 -42.1875 L 0.703125 -45.28125 L 22.046875 -67.9375 L 24.734375 -67.9375 L 24.734375 -53.859375 L 39.59375 -53.859375 L 39.59375 -42.1875 L 25.03125 -42.1875 L 25.03125 -21.140625 C 25.03125 -18.546875 25.742188 -16.535156 27.171875 -15.109375 C 28.609375 -13.679688 30.65625 -12.96875 33.3125 -12.96875 Z M 33.3125 -12.96875 "/></g></g></g><g fill="#ffffff" fill-opacity="1"><g transform="translate(-5.310833, 106.074689)"><g><path d="M 34.8125 -69.828125 C 39.53125 -69.828125 43.734375 -68.78125 47.421875 -66.6875 C 51.117188 -64.59375 54.0625 -61.734375 56.25 -58.109375 C 58.445312 -54.484375 59.546875 -50.375 59.546875 -45.78125 C 59.546875 -41.195312 58.460938 -37.09375 56.296875 -33.46875 C 54.140625 -29.84375 51.195312 -27 47.46875 -24.9375 C 43.75 -22.875 39.53125 -21.84375 34.8125 -21.84375 L 23.140625 -21.84375 L 23.140625 0 L 7.984375 0 L 7.984375 -69.828125 Z M 34.21875 -35.8125 C 37.207031 -35.8125 39.613281 -36.757812 41.4375 -38.65625 C 43.269531 -40.550781 44.1875 -42.925781 44.1875 -45.78125 C 44.1875 -48.707031 43.269531 -51.117188 41.4375 -53.015625 C 39.613281 -54.910156 37.207031 -55.859375 34.21875 -55.859375 L 23.140625 -55.859375 L 23.140625 -35.8125 Z M 34.21875 -35.8125 "/></g></g></g><g fill="#ffffff" fill-opacity="1"><g transform="translate(51.048734, 106.074689)"><g><path d="M 59.25 -27.125 C 59.25 -25.726562 59.148438 -24.300781 58.953125 -22.84375 L 18.25 -22.84375 C 18.851562 -19.1875 20.316406 -16.375 22.640625 -14.40625 C 24.972656 -12.445312 27.898438 -11.46875 31.421875 -11.46875 C 33.953125 -11.46875 36.210938 -12.015625 38.203125 -13.109375 C 40.203125 -14.210938 41.734375 -15.726562 42.796875 -17.65625 L 58.15625 -17.65625 C 56.15625 -11.800781 52.757812 -7.144531 47.96875 -3.6875 C 43.1875 -0.226562 37.671875 1.5 31.421875 1.5 C 26.097656 1.5 21.320312 0.253906 17.09375 -2.234375 C 12.875 -4.734375 9.550781 -8.128906 7.125 -12.421875 C 4.695312 -16.710938 3.484375 -21.550781 3.484375 -26.9375 C 3.484375 -32.320312 4.695312 -37.15625 7.125 -41.4375 C 9.550781 -45.726562 12.875 -49.117188 17.09375 -51.609375 C 21.320312 -54.109375 26.097656 -55.359375 31.421875 -55.359375 C 36.941406 -55.359375 41.796875 -54.078125 45.984375 -51.515625 C 50.171875 -48.960938 53.425781 -45.554688 55.75 -41.296875 C 58.082031 -37.035156 59.25 -32.3125 59.25 -27.125 Z M 31.421875 -43 C 28.160156 -43 25.414062 -42.097656 23.1875 -40.296875 C 20.957031 -38.503906 19.445312 -36.007812 18.65625 -32.8125 L 44.6875 -32.8125 C 42.5625 -39.601562 38.140625 -43 31.421875 -43 Z M 31.421875 -43 "/></g></g></g><g fill="#ffffff" fill-opacity="1"><g transform="translate(108.00681, 106.074689)"><g><path d="M 33.3125 -12.96875 L 39.90625 -12.96875 L 39.90625 0 L 29.625 0 C 23.707031 0 19.035156 -1.710938 15.609375 -5.140625 C 12.179688 -8.566406 10.46875 -13.269531 10.46875 -19.25 L 10.46875 -42.1875 L 0.703125 -42.1875 L 0.703125 -45.28125 L 22.046875 -67.9375 L 24.734375 -67.9375 L 24.734375 -53.859375 L 39.59375 -53.859375 L 39.59375 -42.1875 L 25.03125 -42.1875 L 25.03125 -21.140625 C 25.03125 -18.546875 25.742188 -16.535156 27.171875 -15.109375 C 28.609375 -13.679688 30.65625 -12.96875 33.3125 -12.96875 Z M 33.3125 -12.96875 "/></g></g></g><g fill="#ffffff" fill-opacity="1"><g transform="translate(0.375006, 178.518147)"><g><path d="M 54.546875 0 L 49.640625 -13.3125 L 21.71875 -13.3125 L 16.90625 0 L 0.90625 0 L 28.328125 -70.046875 L 42.640625 -70.046875 L 70.953125 0 Z M 35.625 -51.546875 L 26.515625 -26.515625 L 44.828125 -26.515625 Z M 35.625 -51.546875 "/></g></g></g><g fill="#ffffff" fill-opacity="1"><g transform="translate(66.521623, 178.518147)"><g><path d="M 33.421875 -13.015625 L 40.03125 -13.015625 L 40.03125 0 L 29.71875 0 C 23.78125 0 19.09375 -1.71875 15.65625 -5.15625 C 12.226562 -8.59375 10.515625 -13.3125 10.515625 -19.3125 L 10.515625 -42.328125 L 0.703125 -42.328125 L 0.703125 -45.4375 L 22.125 -68.15625 L 24.8125 -68.15625 L 24.8125 -54.046875 L 39.734375 -54.046875 L 39.734375 -42.328125 L 25.125 -42.328125 L 25.125 -21.21875 C 25.125 -18.613281 25.835938 -16.59375 27.265625 -15.15625 C 28.703125 -13.726562 30.753906 -13.015625 33.421875 -13.015625 Z M 33.421875 -13.015625 "/></g></g></g><g fill="#ffffff" fill-opacity="1"><g transform="translate(103.847663, 178.518147)"><g><path d="M 33.421875 -13.015625 L 40.03125 -13.015625 L 40.03125 0 L 29.71875 0 C 23.78125 0 19.09375 -1.71875 15.65625 -5.15625 C 12.226562 -8.59375 10.515625 -13.3125 10.515625 -19.3125 L 10.515625 -42.328125 L 0.703125 -42.328125 L 0.703125 -45.4375 L 22.125 -68.15625 L 24.8125 -68.15625 L 24.8125 -54.046875 L 39.734375 -54.046875 L 39.734375 -42.328125 L 25.125 -42.328125 L 25.125 -21.21875 C 25.125 -18.613281 25.835938 -16.59375 27.265625 -15.15625 C 28.703125 -13.726562 30.753906 -13.015625 33.421875 -13.015625 Z M 33.421875 -13.015625 "/></g></g></g><g fill="#ffffff" fill-opacity="1"><g transform="translate(141.173694, 178.518147)"><g><path d="M 59.453125 -27.21875 C 59.453125 -25.820312 59.347656 -24.390625 59.140625 -22.921875 L 18.3125 -22.921875 C 18.914062 -19.242188 20.382812 -16.421875 22.71875 -14.453125 C 25.050781 -12.492188 27.988281 -11.515625 31.53125 -11.515625 C 34.0625 -11.515625 36.328125 -12.0625 38.328125 -13.15625 C 40.328125 -14.257812 41.863281 -15.78125 42.9375 -17.71875 L 58.34375 -17.71875 C 56.34375 -11.84375 52.941406 -7.171875 48.140625 -3.703125 C 43.335938 -0.234375 37.800781 1.5 31.53125 1.5 C 26.1875 1.5 21.394531 0.25 17.15625 -2.25 C 12.925781 -4.75 9.59375 -8.148438 7.15625 -12.453125 C 4.71875 -16.765625 3.5 -21.617188 3.5 -27.015625 C 3.5 -32.421875 4.71875 -37.273438 7.15625 -41.578125 C 9.59375 -45.878906 12.925781 -49.28125 17.15625 -51.78125 C 21.394531 -54.289062 26.1875 -55.546875 31.53125 -55.546875 C 37.0625 -55.546875 41.925781 -54.257812 46.125 -51.6875 C 50.332031 -49.125 53.601562 -45.707031 55.9375 -41.4375 C 58.28125 -37.164062 59.453125 -32.425781 59.453125 -27.21875 Z M 31.53125 -43.140625 C 28.257812 -43.140625 25.503906 -42.238281 23.265625 -40.4375 C 21.035156 -38.632812 19.519531 -36.128906 18.71875 -32.921875 L 44.828125 -32.921875 C 42.691406 -39.734375 38.257812 -43.140625 31.53125 -43.140625 Z M 31.53125 -43.140625 "/></g></g></g><g fill="#ffffff" fill-opacity="1"><g transform="translate(198.31389, 178.518147)"><g><path d="M 37.828125 -55.34375 C 43.960938 -55.34375 48.816406 -53.289062 52.390625 -49.1875 C 55.960938 -45.082031 57.75 -39.59375 57.75 -32.71875 L 57.75 0 L 43.140625 0 L 43.140625 -30.421875 C 43.140625 -38.492188 40 -42.53125 33.71875 -42.53125 C 29.988281 -42.53125 27.035156 -41.257812 24.859375 -38.71875 C 22.691406 -36.1875 21.609375 -32.753906 21.609375 -28.421875 L 21.609375 0 L 7 0 L 7 -54.046875 L 17.015625 -54.046875 L 19.921875 -47.34375 C 21.921875 -49.8125 24.488281 -51.757812 27.625 -53.1875 C 30.757812 -54.625 34.160156 -55.34375 37.828125 -55.34375 Z M 37.828125 -55.34375 "/></g></g></g><g fill="#ffffff" fill-opacity="1"><g transform="translate(256.755028, 178.518147)"><g><path d="M 33.421875 -13.015625 L 40.03125 -13.015625 L 40.03125 0 L 29.71875 0 C 23.78125 0 19.09375 -1.71875 15.65625 -5.15625 C 12.226562 -8.59375 10.515625 -13.3125 10.515625 -19.3125 L 10.515625 -42.328125 L 0.703125 -42.328125 L 0.703125 -45.4375 L 22.125 -68.15625 L 24.8125 -68.15625 L 24.8125 -54.046875 L 39.734375 -54.046875 L 39.734375 -42.328125 L 25.125 -42.328125 L 25.125 -21.21875 C 25.125 -18.613281 25.835938 -16.59375 27.265625 -15.15625 C 28.703125 -13.726562 30.753906 -13.015625 33.421875 -13.015625 Z M 33.421875 -13.015625 "/></g></g></g><g fill="#ffffff" fill-opacity="1"><g transform="translate(294.081075, 178.518147)"><g><path d="M 7 -61.25 L 7 -74.859375 L 21.609375 -74.859375 L 21.609375 -61.25 Z M 7 0 L 7 -54.046875 L 21.609375 -54.046875 L 21.609375 0 Z M 7 0 "/></g></g></g><g fill="#ffffff" fill-opacity="1"><g transform="translate(316.996848, 178.518147)"><g><path d="M 32.71875 1.5 C 27.113281 1.5 22.109375 0.25 17.703125 -2.25 C 13.304688 -4.75 9.835938 -8.148438 7.296875 -12.453125 C 4.765625 -16.765625 3.5 -21.617188 3.5 -27.015625 C 3.5 -32.492188 4.765625 -37.382812 7.296875 -41.6875 C 9.835938 -45.988281 13.304688 -49.375 17.703125 -51.84375 C 22.109375 -54.3125 27.113281 -55.546875 32.71875 -55.546875 C 38.257812 -55.546875 43.234375 -54.3125 47.640625 -51.84375 C 52.046875 -49.375 55.515625 -45.988281 58.046875 -41.6875 C 60.578125 -37.382812 61.84375 -32.492188 61.84375 -27.015625 C 61.84375 -21.617188 60.578125 -16.765625 58.046875 -12.453125 C 55.515625 -8.148438 52.046875 -4.75 47.640625 -2.25 C 43.234375 0.25 38.257812 1.5 32.71875 1.5 Z M 32.71875 -12.203125 C 36.925781 -12.203125 40.363281 -13.570312 43.03125 -16.3125 C 45.695312 -19.050781 47.03125 -22.617188 47.03125 -27.015625 C 47.03125 -31.421875 45.695312 -34.988281 43.03125 -37.71875 C 40.363281 -40.457031 36.925781 -41.828125 32.71875 -41.828125 C 28.457031 -41.828125 24.988281 -40.457031 22.3125 -37.71875 C 19.644531 -34.988281 18.3125 -31.421875 18.3125 -27.015625 C 18.3125 -22.617188 19.644531 -19.050781 22.3125 -16.3125 C 24.988281 -13.570312 28.457031 -12.203125 32.71875 -12.203125 Z M 32.71875 -12.203125 "/></g></g></g><g fill="#ffffff" fill-opacity="1"><g transform="translate(376.638847, 178.518147)"><g><path d="M 37.828125 -55.34375 C 43.960938 -55.34375 48.816406 -53.289062 52.390625 -49.1875 C 55.960938 -45.082031 57.75 -39.59375 57.75 -32.71875 L 57.75 0 L 43.140625 0 L 43.140625 -30.421875 C 43.140625 -38.492188 40 -42.53125 33.71875 -42.53125 C 29.988281 -42.53125 27.035156 -41.257812 24.859375 -38.71875 C 22.691406 -36.1875 21.609375 -32.753906 21.609375 -28.421875 L 21.609375 0 L 7 0 L 7 -54.046875 L 17.015625 -54.046875 L 19.921875 -47.34375 C 21.921875 -49.8125 24.488281 -51.757812 27.625 -53.1875 C 30.757812 -54.625 34.160156 -55.34375 37.828125 -55.34375 Z M 37.828125 -55.34375 "/></g></g></g></svg>